  0
SECTION
  2
HEADER
  9
$ACADVER
  1
AC1032
  9
$ACADMAINTVER
 90
      141
  9
$DWGCODEPAGE
  3
ANSI_1252
  9
$REQUIREDVERSIONS
160
                 0
  9
$INSBASE
 10
0.0
 20
0.0
 30
0.0
  9
$EXTMIN
 10
1.000000000000000E+20
 20
1.000000000000000E+20
 30
1.000000000000000E+20
  9
$EXTMAX
 10
-1.000000000000000E+20
 20
-1.000000000000000E+20
 30
-1.000000000000000E+20
  9
$LIMMIN
 10
0.0
 20
0.0
  9
$LIMMAX
 10
12.0
 20
9.0
  9
$ORTHOMODE
 70
     0
  9
$REGENMODE
 70
     1
  9
$FILLMODE
 70
     1
  9
$QTEXTMODE
 70
     0
  9
$MIRRTEXT
 70
     0
  9
$LTSCALE
 40
1.0
  9
$ATTMODE
 70
     1
  9
$TEXTSIZE
 40
0.2
  9
$TRACEWID
 40
0.05
  9
$TEXTSTYLE
  7
Standard
  9
$CLAYER
  8
0
  9
$CELTYPE
  6
ByLayer
  9
$CECOLOR
 62
   256
  9
$CELTSCALE
 40
1.0
  9
$DISPSILH
 70
     0
  9
$DIMSCALE
 40
1.0
  9
$DIMASZ
 40
0.18
  9
$DIMEXO
 40
0.0625
  9
$DIMDLI
 40
0.38
  9
$DIMRND
 40
0.0
  9
$DIMDLE
 40
0.0
  9
$DIMEXE
 40
0.18
  9
$DIMTP
 40
0.0
  9
$DIMTM
 40
0.0
  9
$DIMTXT
 40
0.18
  9
$DIMCEN
 40
0.09
  9
$DIMTSZ
 40
0.0
  9
$DIMTOL
 70
     0
  9
$DIMLIM
 70
     0
  9
$DIMTIH
 70
     1
  9
$DIMTOH
 70
     1
  9
$DIMSE1
 70
     0
  9
$DIMSE2
 70
     0
  9
$DIMTAD
 70
     0
  9
$DIMZIN
 70
     0
  9
$DIMBLK
  1

  9
$DIMASO
 70
     1
  9
$DIMSHO
 70
     1
  9
$DIMPOST
  1

  9
$DIMAPOST
  1

  9
$DIMALT
 70
     0
  9
$DIMALTD
 70
     2
  9
$DIMALTF
 40
25.4
  9
$DIMLFAC
 40
1.0
  9
$DIMTOFL
 70
     0
  9
$DIMTVP
 40
0.0
  9
$DIMTIX
 70
     0
  9
$DIMSOXD
 70
     0
  9
$DIMSAH
 70
     0
  9
$DIMBLK1
  1

  9
$DIMBLK2
  1

  9
$DIMSTYLE
  2
Standard
  9
$DIMCLRD
 70
     0
  9
$DIMCLRE
 70
     0
  9
$DIMCLRT
 70
     0
  9
$DIMTFAC
 40
1.0
  9
$DIMGAP
 40
0.09
  9
$DIMJUST
 70
     0
  9
$DIMSD1
 70
     0
  9
$DIMSD2
 70
     0
  9
$DIMTOLJ
 70
     1
  9
$DIMTZIN
 70
     0
  9
$DIMALTZ
 70
     0
  9
$DIMALTTZ
 70
     0
  9
$DIMUPT
 70
     0
  9
$DIMDEC
 70
     4
  9
$DIMTDEC
 70
     4
  9
$DIMALTU
 70
     2
  9
$DIMALTTD
 70
     2
  9
$DIMTXSTY
  7
Standard
  9
$DIMAUNIT
 70
     0
  9
$DIMADEC
 70
     0
  9
$DIMALTRND
 40
0.0
  9
$DIMAZIN
 70
     0
  9
$DIMDSEP
 70
    46
  9
$DIMATFIT
 70
     3
  9
$DIMFRAC
 70
     0
  9
$DIMLDRBLK
  1

  9
$DIMLUNIT
 70
     2
  9
$DIMLWD
 70
    -2
  9
$DIMLWE
 70
    -2
  9
$DIMTMOVE
 70
     0
  9
$DIMFXL
 40
1.0
  9
$DIMFXLON
 70
     0
  9
$DIMJOGANG
 40
0.7853981633974483
  9
$DIMTFILL
 70
     0
  9
$DIMTFILLCLR
 70
     0
  9
$DIMARCSYM
 70
     0
  9
$DIMLTYPE
  6

  9
$DIMLTEX1
  6

  9
$DIMLTEX2
  6

  9
$DIMTXTDIRECTION
 70
     0
  9
$LUNITS
 70
     2
  9
$LUPREC
 70
     4
  9
$SKETCHINC
 40
0.1
  9
$FILLETRAD
 40
0.0
  9
$AUNITS
 70
     0
  9
$AUPREC
 70
     0
  9
$MENU
  1
.
  9
$ELEVATION
 40
0.0
  9
$PELEVATION
 40
0.0
  9
$THICKNESS
 40
0.0
  9
$LIMCHECK
 70
     0
  9
$CHAMFERA
 40
0.0
  9
$CHAMFERB
 40
0.0
  9
$CHAMFERC
 40
0.0
  9
$CHAMFERD
 40
0.0
  9
$SKPOLY
 70
     0
  9
$TDCREATE
 40
2459569.419340278
  9
$TDUCREATE
 40
2459569.627673611
  9
$TDUPDATE
 40
2459569.419340278
  9
$TDUUPDATE
 40
2459569.627673611
  9
$TDINDWG
 40
0.0000000000
  9
$TDUSRTIMER
 40
0.0000000000
  9
$USRTIMER
 70
     1
  9
$ANGBASE
 50
0.0
  9
$ANGDIR
 70
     0
  9
$PDMODE
 70
     0
  9
$PDSIZE
 40
0.0
  9
$PLINEWID
 40
0.0
  9
$SPLFRAME
 70
     0
  9
$SPLINETYPE
 70
     6
  9
$SPLINESEGS
 70
     8
  9
$HANDSEED
  5
2F2
  9
$SURFTAB1
 70
     6
  9
$SURFTAB2
 70
     6
  9
$SURFTYPE
 70
     6
  9
$SURFU
 70
     6
  9
$SURFV
 70
     6
  9
$UCSBASE
  2

  9
$UCSNAME
  2

  9
$UCSORG
 10
0.0
 20
0.0
 30
0.0
  9
$UCSXDIR
 10
1.0
 20
0.0
 30
0.0
  9
$UCSYDIR
 10
0.0
 20
1.0
 30
0.0
  9
$UCSORTHOREF
  2

  9
$UCSORTHOVIEW
 70
     0
  9
$UCSORGTOP
 10
0.0
 20
0.0
 30
0.0
  9
$UCSORGBOTTOM
 10
0.0
 20
0.0
 30
0.0
  9
$UCSORGLEFT
 10
0.0
 20
0.0
 30
0.0
  9
$UCSORGRIGHT
 10
0.0
 20
0.0
 30
0.0
  9
$UCSORGFRONT
 10
0.0
 20
0.0
 30
0.0
  9
$UCSORGBACK
 10
0.0
 20
0.0
 30
0.0
  9
$PUCSBASE
  2

  9
$PUCSNAME
  2

  9
$PUCSORG
 10
0.0
 20
0.0
 30
0.0
  9
$PUCSXDIR
 10
1.0
 20
0.0
 30
0.0
  9
$PUCSYDIR
 10
0.0
 20
1.0
 30
0.0
  9
$PUCSORTHOREF
  2

  9
$PUCSORTHOVIEW
 70
     0
  9
$PUCSORGTOP
 10
0.0
 20
0.0
 30
0.0
  9
$PUCSORGBOTTOM
 10
0.0
 20
0.0
 30
0.0
  9
$PUCSORGLEFT
 10
0.0
 20
0.0
 30
0.0
  9
$PUCSORGRIGHT
 10
0.0
 20
0.0
 30
0.0
  9
$PUCSORGFRONT
 10
0.0
 20
0.0
 30
0.0
  9
$PUCSORGBACK
 10
0.0
 20
0.0
 30
0.0
  9
$USERI1
 70
     0
  9
$USERI2
 70
     0
  9
$USERI3
 70
     0
  9
$USERI4
 70
     0
  9
$USERI5
 70
     0
  9
$USERR1
 40
0.0
  9
$USERR2
 40
0.0
  9
$USERR3
 40
0.0
  9
$USERR4
 40
0.0
  9
$USERR5
 40
0.0
  9
$WORLDVIEW
 70
     1
  9
$SHADEDGE
 70
     3
  9
$SHADEDIF
 70
    70
  9
$TILEMODE
 70
     1
  9
$MAXACTVP
 70
    64
  9
$PINSBASE
 10
0.0
 20
0.0
 30
0.0
  9
$PLIMCHECK
 70
     0
  9
$PEXTMIN
 10
1.000000000000000E+20
 20
1.000000000000000E+20
 30
1.000000000000000E+20
  9
$PEXTMAX
 10
-1.000000000000000E+20
 20
-1.000000000000000E+20
 30
-1.000000000000000E+20
  9
$PLIMMIN
 10
0.0
 20
0.0
  9
$PLIMMAX
 10
12.0
 20
9.0
  9
$UNITMODE
 70
     0
  9
$VISRETAIN
 70
     1
  9
$PLINEGEN
 70
     0
  9
$PSLTSCALE
 70
     1
  9
$TREEDEPTH
 70
  3020
  9
$CMLSTYLE
  2
Standard
  9
$CMLJUST
 70
     0
  9
$CMLSCALE
 40
1.0
  9
$PROXYGRAPHICS
 70
     1
  9
$MEASUREMENT
 70
     0
  9
$CELWEIGHT
370
    -1
  9
$ENDCAPS
280
     0
  9
$JOINSTYLE
280
     0
  9
$LWDISPLAY
290
     1
  9
$INSUNITS
 70
     4
  9
$HYPERLINKBASE
  1

  9
$STYLESHEET
  1

  9
$XEDIT
290
     1
  9
$CEPSNTYPE
380
     0
  9
$PSTYLEMODE
290
     1
  9
$FINGERPRINTGUID
  2
{A84DB8AE-BA36-D749-B262-25219FF7E14D}
  9
$VERSIONGUID
  2
{CDDF6D9C-7D97-CA4E-B490-610012094888}
  9
$EXTNAMES
290
     1
  9
$PSVPSCALE
 40
0.0
  9
$OLESTARTUP
290
     0
  9
$SORTENTS
280
   127
  9
$INDEXCTL
280
     0
  9
$HIDETEXT
280
     1
  9
$XCLIPFRAME
280
     2
  9
$HALOGAP
280
     0
  9
$OBSCOLOR
 70
   257
  9
$OBSLTYPE
280
     0
  9
$INTERSECTIONDISPLAY
280
     0
  9
$INTERSECTIONCOLOR
 70
   257
  9
$DIMASSOC
280
     2
  9
$PROJECTNAME
  1

  9
$CAMERADISPLAY
290
     0
  9
$LENSLENGTH
 40
50.0
  9
$CAMERAHEIGHT
 40
0.0
  9
$STEPSPERSEC
 40
2.0
  9
$STEPSIZE
 40
6.0
  9
$3DDWFPREC
 40
2.0
  9
$PSOLWIDTH
 40
0.25
  9
$PSOLHEIGHT
 40
4.0
  9
$LOFTANG1
 40
1.570796326794896
  9
$LOFTANG2
 40
1.570796326794896
  9
$LOFTMAG1
 40
0.0
  9
$LOFTMAG2
 40
0.0
  9
$LOFTPARAM
 70
     7
  9
$LOFTNORMALS
280
     1
  9
$LATITUDE
 40
37.795
  9
$LONGITUDE
 40
-122.394
  9
$NORTHDIRECTION
 40
0.0
  9
$TIMEZONE
 70
 -8000
  9
$LIGHTGLYPHDISPLAY
280
     1
  9
$TILEMODELIGHTSYNCH
280
     1
  9
$CMATERIAL
347
11
  9
$SOLIDHIST
280
     0
  9
$SHOWHIST
280
     1
  9
$DWFFRAME
280
     2
  9
$DGNFRAME
280
     0
  9
$REALWORLDSCALE
290
     1
  9
$INTERFERECOLOR
 62
     1
  9
$INTERFEREOBJVS
345
33
  9
$INTERFEREVPVS
346
30
  9
$CSHADOW
280
     0
  9
$SHADOWPLANELOCATION
 40
0.0
  0
ENDSEC
  0
SECTION
  2
CLASSES
  0
CLASS
  1
ACDBDICTIONARYWDFLT
  2
AcDbDictionaryWithDefault
  3
ObjectDBX Classes
 90
        0
 91
        1
280
     0
281
     0
  0
CLASS
  1
MATERIAL
  2
AcDbMaterial
  3
ObjectDBX Classes
 90
     1153
 91
        3
280
     0
281
     0
  0
CLASS
  1
VISUALSTYLE
  2
AcDbVisualStyle
  3
ObjectDBX Classes
 90
     4095
 91
       24
280
     0
281
     0
  0
CLASS
  1
SCALE
  2
AcDbScale
  3
ObjectDBX Classes
 90
     1153
 91
       17
280
     0
281
     0
  0
CLASS
  1
TABLESTYLE
  2
AcDbTableStyle
  3
ObjectDBX Classes
 90
     4095
 91
        1
280
     0
281
     0
  0
CLASS
  1
MLEADERSTYLE
  2
AcDbMLeaderStyle
  3
ACDB_MLEADERSTYLE_CLASS
 90
     4095
 91
        1
280
     0
281
     0
  0
CLASS
  1
ACDBSECTIONVIEWSTYLE
  2
AcDbSectionViewStyle
  3
ObjectDBX Classes
 90
     1025
 91
        1
280
     0
281
     0
  0
CLASS
  1
ACDBDETAILVIEWSTYLE
  2
AcDbDetailViewStyle
  3
ObjectDBX Classes
 90
     1025
 91
        1
280
     0
281
     0
  0
CLASS
  1
DICTIONARYVAR
  2
AcDbDictionaryVar
  3
ObjectDBX Classes
 90
        0
 91
        5
280
     0
281
     0
  0
CLASS
  1
CELLSTYLEMAP
  2
AcDbCellStyleMap
  3
ObjectDBX Classes
 90
     1152
 91
        1
280
     0
281
     0
  0
ENDSEC
  0
SECTION
  2
TABLES
  0
TABLE
  2
VPORT
  5
8
330
0
100
AcDbSymbolTable
 70
     1
  0
VPORT
  5
57
330
8
100
AcDbSymbolTableRecord
100
AcDbViewportTableRecord
  2
*Active
 70
     0
 10
0.0
 20
0.0
 11
1.0
 21
1.0
 12
0.0
 22
0.0
 13
0.0
 23
0.0
 14
1.0
 24
1.0
 15
0.0
 25
0.0
 16
0.0
 26
0.0
 36
1.0
 17
107.9499999730125
 27
139.699999965075
 37
0.0
 40
404.8124998987969
 41
2.165333333333332
 42
50.0
 43
0.0
 44
0.0
 50
0.0
 51
0.0
 71
     0
 72
   100
 73
     1
 74
     1
 75
     0
 76
     0
 77
     0
 78
     0
281
     0
 65
     1
110
0.0
120
0.0
130
0.0
111
1.0
121
0.0
131
0.0
112
0.0
122
1.0
132
0.0
 79
     0
146
0.0
 60
     3
 61
     5
292
     1
282
     1
141
0.0
142
0.0
 63
   250
421
  3355443
  0
ENDTAB
  0
TABLE
  2
LTYPE
  5
5
330
0
100
AcDbSymbolTable
 70
     1
  0
LTYPE
  5
5B
330
5
100
AcDbSymbolTableRecord
100
AcDbLinetypeTableRecord
  2
ByBlock
 70
     0
  3

 72
    65
 73
     0
 40
0.0
  0
LTYPE
  5
5C
330
5
100
AcDbSymbolTableRecord
100
AcDbLinetypeTableRecord
  2
ByLayer
 70
     0
  3

 72
    65
 73
     0
 40
0.0
  0
LTYPE
  5
5D
330
5
100
AcDbSymbolTableRecord
100
AcDbLinetypeTableRecord
  2
Continuous
 70
     0
  3
Solid line
 72
    65
 73
     0
 40
0.0
  0
ENDTAB
  0
TABLE
  2
LAYER
  5
2
330
0
100
AcDbSymbolTable
 70
     1
  0
LAYER
  5
54
330
2
100
AcDbSymbolTableRecord
100
AcDbLayerTableRecord
  2
0
 70
     0
 62
     7
  6
Continuous
370
     0
390
F
347
21
348
0
  0
ENDTAB
  0
TABLE
  2
STYLE
  5
3
330
0
100
AcDbSymbolTable
 70
     2
  0
STYLE
  5
55
330
3
100
AcDbSymbolTableRecord
100
AcDbTextStyleTableRecord
  2
Standard
 70
     0
 40
0.0
 41
1.0
 50
0.0
 71
     0
 42
0.2
  3
txt
  4

  0
STYLE
  5
5A
330
3
100
AcDbSymbolTableRecord
100
AcDbTextStyleTableRecord
  2
Annotative
 70
     0
 40
0.0
 41
1.0
 50
0.0
 71
     0
 42
0.2
  3
txt
  4

1001
AcadAnnotative
1000
AnnotativeData
1002
{
1070
     1
1070
     1
1002
}
  0
ENDTAB
  0
TABLE
  2
VIEW
  5
6
330
0
100
AcDbSymbolTable
 70
     0
  0
ENDTAB
  0
TABLE
  2
UCS
  5
7
330
0
100
AcDbSymbolTable
 70
     0
  0
ENDTAB
  0
TABLE
  2
APPID
  5
9
330
0
100
AcDbSymbolTable
 70
     2
  0
APPID
  5
56
330
9
100
AcDbSymbolTableRecord
100
AcDbRegAppTableRecord
  2
ACAD
 70
     0
  0
APPID
  5
5E
330
9
100
AcDbSymbolTableRecord
100
AcDbRegAppTableRecord
  2
AcadAnnotative
 70
     0
  0
ENDTAB
  0
TABLE
  2
DIMSTYLE
  5
A
330
0
100
AcDbSymbolTable
 70
     2
100
AcDbDimStyleTable
 71
     0
  0
DIMSTYLE
105
58
330
A
100
AcDbSymbolTableRecord
100
AcDbDimStyleTableRecord
  2
Standard
 70
     0
340
55
  0
DIMSTYLE
105
59
330
A
100
AcDbSymbolTableRecord
100
AcDbDimStyleTableRecord
  2
Annotative
 70
     0
340
55
1001
AcadAnnotative
1000
AnnotativeData
1002
{
1070
     1
1070
     1
1002
}
  0
ENDTAB
  0
TABLE
  2
BLOCK_RECORD
  5
1
330
0
100
AcDbSymbolTable
 70
     1
  0
BLOCK_RECORD
  5
70
330
1
100
AcDbSymbolTableRecord
100
AcDbBlockTableRecord
  2
*Model_Space
340
73
 70
     0
280
     1
281
     0
  0
BLOCK_RECORD
  5
6C
330
1
100
AcDbSymbolTableRecord
100
AcDbBlockTableRecord
  2
*Paper_Space
340
6F
 70
     0
280
     1
281
     0
  0
BLOCK_RECORD
  5
74
330
1
100
AcDbSymbolTableRecord
100
AcDbBlockTableRecord
  2
*Paper_Space0
340
77
 70
     0
280
     1
281
     0
  0
ENDTAB
  0
ENDSEC
  0
SECTION
  2
BLOCKS
  0
BLOCK
  5
71
330
70
100
AcDbEntity
  8
0
100
AcDbBlockBegin
  2
*Model_Space
 70
     0
 10
0.0
 20
0.0
 30
0.0
  3
*Model_Space
  1

  0
ENDBLK
  5
72
330
70
100
AcDbEntity
  8
0
100
AcDbBlockEnd
  0
BLOCK
  5
6D
330
6C
100
AcDbEntity
 67
     1
  8
0
100
AcDbBlockBegin
  2
*Paper_Space
 70
     0
 10
0.0
 20
0.0
 30
0.0
  3
*Paper_Space
  1

  0
ENDBLK
  5
6E
330
6C
100
AcDbEntity
 67
     1
  8
0
100
AcDbBlockEnd
  0
BLOCK
  5
75
330
74
100
AcDbEntity
 67
     1
  8
0
100
AcDbBlockBegin
  2
*Paper_Space0
 70
     0
 10
0.0
 20
0.0
 30
0.0
  3
*Paper_Space0
  1

  0
ENDBLK
  5
76
330
74
100
AcDbEntity
 67
     1
  8
0
100
AcDbBlockEnd
  0
ENDSEC
  0
SECTION
  2
ENTITIES
  0
LWPOLYLINE
  5
78
330
70
100
AcDbEntity
  8
0
 62
    18
420
        0
370
    18
100
AcDbPolyline
 90
        1
 70
     0
 43
0.0
 10
-59.59657839744467
 20
212.0004877365221
  0
LWPOLYLINE
  5
79
330
70
100
AcDbEntity
  8
0
 62
    18
420
        0
370
    18
100
AcDbPolyline
 90
        1
 70
     0
 43
0.0
 10
276.138104221161
 20
68.02392964723357
  0
LINE
  5
7A
330
70
100
AcDbEntity
  8
0
 62
    18
420
        0
370
    18
100
AcDbLine
 10
276.138104221161
 20
68.02392964723357
 30
0.0
 11
-59.59657839744467
 21
68.02392964723357
 31
0.0
  0
LINE
  5
7B
330
70
100
AcDbEntity
  8
0
 62
    18
420
        0
370
    18
100
AcDbLine
 10
-59.59657839744467
 20
68.02392964723357
 30
0.0
 11
-59.59657839744467
 21
212.0004877365221
 31
0.0
  0
LINE
  5
7C
330
70
100
AcDbEntity
  8
0
 62
    18
420
        0
370
    18
100
AcDbLine
 10
-57.52952299744472
 20
71.8548876472338
 30
0.0
 11
-57.91950299744454
 21
71.65645764723333
 31
0.0
  0
LINE
  5
7D
330
70
100
AcDbEntity
  8
0
 62
    18
420
        0
370
    18
100
AcDbLine
 10
-57.91950299744454
 20
71.65645764723333
 30
0.0
 11
-58.22956299744475
 21
71.34639764723376
 31
0.0
  0
LINE
  5
7E
330
70
100
AcDbEntity
  8
0
 62
    18
420
        0
370
    18
100
AcDbLine
 10
-58.22956299744475
 20
71.34639764723376
 30
0.0
 11
-58.42938299744458
 21
70.95639764723379
 31
0.0
  0
LINE
  5
7F
330
70
100
AcDbEntity
  8
0
 62
    18
420
        0
370
    18
100
AcDbLine
 10
-58.42938299744458
 20
70.95639764723379
 30
0.0
 11
-58.49828299744458
 21
70.52368764723389
 31
0.0
  0
LINE
  5
80
330
70
100
AcDbEntity
  8
0
 62
    18
420
        0
370
    18
100
AcDbLine
 10
-58.49828299744458
 20
70.52368764723389
 30
0.0
 11
-58.42938299744458
 21
70.09098764723376
 31
0.0
  0
LINE
  5
81
330
70
100
AcDbEntity
  8
0
 62
    18
420
        0
370
    18
100
AcDbLine
 10
-58.42938299744458
 20
70.09098764723376
 30
0.0
 11
-58.22956299744475
 21
69.7010076472333
 31
0.0
  0
LINE
  5
82
330
70
100
AcDbEntity
  8
0
 62
    18
420
        0
370
    18
100
AcDbLine
 10
-58.22956299744475
 20
69.7010076472333
 30
0.0
 11
-57.91950299744454
 21
69.39094764723373
 31
0.0
  0
LINE
  5
83
330
70
100
AcDbEntity
  8
0
 62
    18
420
        0
370
    18
100
AcDbLine
 10
-57.91950299744454
 20
69.39094764723373
 30
0.0
 11
-57.52952299744472
 21
69.19250764723351
 31
0.0
  0
LINE
  5
84
330
70
100
AcDbEntity
  8
0
 62
    18
420
        0
370
    18
100
AcDbLine
 10
-57.52952299744472
 20
69.19250764723351
 30
0.0
 11
-57.09819299744476
 21
69.12360764723384
 31
0.0
  0
LINE
  5
85
330
70
100
AcDbEntity
  8
0
 62
    18
420
        0
370
    18
100
AcDbLine
 10
-57.09819299744476
 20
69.12360764723384
 30
0.0
 11
-56.66549299744463
 21
69.19250764723351
 31
0.0
  0
LINE
  5
86
330
70
100
AcDbEntity
  8
0
 62
    18
420
        0
370
    18
100
AcDbLine
 10
-56.66549299744463
 20
69.19250764723351
 30
0.0
 11
-56.27550299744473
 21
69.39094764723373
 31
0.0
  0
LINE
  5
87
330
70
100
AcDbEntity
  8
0
 62
    18
420
        0
370
    18
100
AcDbLine
 10
-56.27550299744473
 20
69.39094764723373
 30
0.0
 11
-55.96544299744452
 21
69.7010076472333
 31
0.0
  0
LINE
  5
88
330
70
100
AcDbEntity
  8
0
 62
    18
420
        0
370
    18
100
AcDbLine
 10
-55.96544299744452
 20
69.7010076472333
 30
0.0
 11
-55.76563299744477
 21
70.09098764723376
 31
0.0
  0
LINE
  5
89
330
70
100
AcDbEntity
  8
0
 62
    18
420
        0
370
    18
100
AcDbLine
 10
-55.76563299744477
 20
70.09098764723376
 30
0.0
 11
-55.69811299744471
 21
70.52368764723389
 31
0.0
  0
LINE
  5
8A
330
70
100
AcDbEntity
  8
0
 62
    18
420
        0
370
    18
100
AcDbLine
 10
-55.69811299744471
 20
70.52368764723389
 30
0.0
 11
-55.76563299744477
 21
70.95639764723379
 31
0.0
  0
LINE
  5
8B
330
70
100
AcDbEntity
  8
0
 62
    18
420
        0
370
    18
100
AcDbLine
 10
-55.76563299744477
 20
70.95639764723379
 30
0.0
 11
-55.96544299744452
 21
71.34639764723376
 31
0.0
  0
LINE
  5
8C
330
70
100
AcDbEntity
  8
0
 62
    18
420
        0
370
    18
100
AcDbLine
 10
-55.96544299744452
 20
71.34639764723376
 30
0.0
 11
-56.27550299744473
 21
71.65645764723333
 31
0.0
  0
LINE
  5
8D
330
70
100
AcDbEntity
  8
0
 62
    18
420
        0
370
    18
100
AcDbLine
 10
-56.27550299744473
 20
71.65645764723333
 30
0.0
 11
-56.66549299744463
 21
71.8548876472338
 31
0.0
  0
LINE
  5
8E
330
70
100
AcDbEntity
  8
0
 62
    18
420
        0
370
    18
100
AcDbLine
 10
-56.66549299744463
 20
71.8548876472338
 30
0.0
 11
-57.09819299744476
 21
71.92378764723347
 31
0.0
  0
LINE
  5
8F
330
70
100
AcDbEntity
  8
0
 62
    18
420
        0
370
    18
100
AcDbLine
 10
-57.09819299744476
 20
71.92378764723347
 30
0.0
 11
-57.52952299744472
 21
71.8548876472338
 31
0.0
  0
LINE
  5
90
330
70
100
AcDbEntity
  8
0
 62
    18
420
        0
370
    18
100
AcDbLine
 10
47.73450430255516
 20
71.8548876472338
 30
0.0
 11
47.34350430255511
 21
71.65645764723333
 31
0.0
  0
LINE
  5
91
330
70
100
AcDbEntity
  8
0
 62
    18
420
        0
370
    18
100
AcDbLine
 10
47.34350430255511
 20
71.65645764723333
 30
0.0
 11
47.03450430255514
 21
71.34639764723376
 31
0.0
  0
LINE
  5
92
330
70
100
AcDbEntity
  8
0
 62
    18
420
        0
370
    18
100
AcDbLine
 10
47.03450430255514
 20
71.34639764723376
 30
0.0
 11
46.83650430255494
 21
70.95639764723379
 31
0.0
  0
LINE
  5
93
330
70
100
AcDbEntity
  8
0
 62
    18
420
        0
370
    18
100
AcDbLine
 10
46.83650430255494
 20
70.95639764723379
 30
0.0
 11
46.7675043025551
 21
70.52368764723389
 31
0.0
  0
LINE
  5
94
330
70
100
AcDbEntity
  8
0
 62
    18
420
        0
370
    18
100
AcDbLine
 10
46.7675043025551
 20
70.52368764723389
 30
0.0
 11
46.83650430255494
 21
70.09098764723376
 31
0.0
  0
LINE
  5
95
330
70
100
AcDbEntity
  8
0
 62
    18
420
        0
370
    18
100
AcDbLine
 10
46.83650430255494
 20
70.09098764723376
 30
0.0
 11
47.03450430255514
 21
69.7010076472333
 31
0.0
  0
LINE
  5
96
330
70
100
AcDbEntity
  8
0
 62
    18
420
        0
370
    18
100
AcDbLine
 10
47.03450430255514
 20
69.7010076472333
 30
0.0
 11
47.34350430255511
 21
69.39094764723373
 31
0.0
  0
LINE
  5
97
330
70
100
AcDbEntity
  8
0
 62
    18
420
        0
370
    18
100
AcDbLine
 10
47.34350430255511
 20
69.39094764723373
 30
0.0
 11
47.73450430255516
 21
69.19250764723351
 31
0.0
  0
LINE
  5
98
330
70
100
AcDbEntity
  8
0
 62
    18
420
        0
370
    18
100
AcDbLine
 10
47.73450430255516
 20
69.19250764723351
 30
0.0
 11
48.16750430255515
 21
69.12360764723384
 31
0.0
  0
LINE
  5
99
330
70
100
AcDbEntity
  8
0
 62
    18
420
        0
370
    18
100
AcDbLine
 10
48.16750430255515
 20
69.12360764723384
 30
0.0
 11
48.60050430255514
 21
69.19250764723351
 31
0.0
  0
LINE
  5
9A
330
70
100
AcDbEntity
  8
0
 62
    18
420
        0
370
    18
100
AcDbLine
 10
48.60050430255514
 20
69.19250764723351
 30
0.0
 11
48.98950430255506
 21
69.39094764723373
 31
0.0
  0
LINE
  5
9B
330
70
100
AcDbEntity
  8
0
 62
    18
420
        0
370
    18
100
AcDbLine
 10
48.98950430255506
 20
69.39094764723373
 30
0.0
 11
49.29950430255511
 21
69.7010076472333
 31
0.0
  0
LINE
  5
9C
330
70
100
AcDbEntity
  8
0
 62
    18
420
        0
370
    18
100
AcDbLine
 10
49.29950430255511
 20
69.7010076472333
 30
0.0
 11
49.49850430255504
 21
70.09098764723376
 31
0.0
  0
LINE
  5
9D
330
70
100
AcDbEntity
  8
0
 62
    18
420
        0
370
    18
100
AcDbLine
 10
49.49850430255504
 20
70.09098764723376
 30
0.0
 11
49.56750430255488
 21
70.52368764723389
 31
0.0
  0
LINE
  5
9E
330
70
100
AcDbEntity
  8
0
 62
    18
420
        0
370
    18
100
AcDbLine
 10
49.56750430255488
 20
70.52368764723389
 30
0.0
 11
49.49850430255504
 21
70.95639764723379
 31
0.0
  0
LINE
  5
9F
330
70
100
AcDbEntity
  8
0
 62
    18
420
        0
370
    18
100
AcDbLine
 10
49.49850430255504
 20
70.95639764723379
 30
0.0
 11
49.29950430255511
 21
71.34639764723376
 31
0.0
  0
LINE
  5
A0
330
70
100
AcDbEntity
  8
0
 62
    18
420
        0
370
    18
100
AcDbLine
 10
49.29950430255511
 20
71.34639764723376
 30
0.0
 11
48.98950430255506
 21
71.65645764723333
 31
0.0
  0
LINE
  5
A1
330
70
100
AcDbEntity
  8
0
 62
    18
420
        0
370
    18
100
AcDbLine
 10
48.98950430255506
 20
71.65645764723333
 30
0.0
 11
48.60050430255514
 21
71.8548876472338
 31
0.0
  0
LINE
  5
A2
330
70
100
AcDbEntity
  8
0
 62
    18
420
        0
370
    18
100
AcDbLine
 10
48.60050430255514
 20
71.8548876472338
 30
0.0
 11
48.16750430255515
 21
71.92378764723347
 31
0.0
  0
LINE
  5
A3
330
70
100
AcDbEntity
  8
0
 62
    18
420
        0
370
    18
100
AcDbLine
 10
48.16750430255515
 20
71.92378764723347
 30
0.0
 11
47.73450430255516
 21
71.8548876472338
 31
0.0
  0
LINE
  5
A4
330
70
100
AcDbEntity
  8
0
 62
    18
420
        0
370
    18
100
AcDbLine
 10
152.9235043025555
 20
71.8548876472338
 30
0.0
 11
152.5315043025554
 21
71.65645764723333
 31
0.0
  0
LINE
  5
A5
330
70
100
AcDbEntity
  8
0
 62
    18
420
        0
370
    18
100
AcDbLine
 10
152.5315043025554
 20
71.65645764723333
 30
0.0
 11
152.2225043025555
 21
71.34639764723376
 31
0.0
  0
LINE
  5
A6
330
70
100
AcDbEntity
  8
0
 62
    18
420
        0
370
    18
100
AcDbLine
 10
152.2225043025555
 20
71.34639764723376
 30
0.0
 11
152.0245043025556
 21
70.95639764723379
 31
0.0
  0
LINE
  5
A7
330
70
100
AcDbEntity
  8
0
 62
    18
420
        0
370
    18
100
AcDbLine
 10
152.0245043025556
 20
70.95639764723379
 30
0.0
 11
151.9545043025553
 21
70.52368764723389
 31
0.0
  0
LINE
  5
A8
330
70
100
AcDbEntity
  8
0
 62
    18
420
        0
370
    18
100
AcDbLine
 10
151.9545043025553
 20
70.52368764723389
 30
0.0
 11
152.0245043025556
 21
70.09098764723376
 31
0.0
  0
LINE
  5
A9
330
70
100
AcDbEntity
  8
0
 62
    18
420
        0
370
    18
100
AcDbLine
 10
152.0245043025556
 20
70.09098764723376
 30
0.0
 11
152.2225043025555
 21
69.7010076472333
 31
0.0
  0
LINE
  5
AA
330
70
100
AcDbEntity
  8
0
 62
    18
420
        0
370
    18
100
AcDbLine
 10
152.2225043025555
 20
69.7010076472333
 30
0.0
 11
152.5315043025554
 21
69.39094764723373
 31
0.0
  0
LINE
  5
AB
330
70
100
AcDbEntity
  8
0
 62
    18
420
        0
370
    18
100
AcDbLine
 10
152.5315043025554
 20
69.39094764723373
 30
0.0
 11
152.9235043025555
 21
69.19250764723351
 31
0.0
  0
LINE
  5
AC
330
70
100
AcDbEntity
  8
0
 62
    18
420
        0
370
    18
100
AcDbLine
 10
152.9235043025555
 20
69.19250764723351
 30
0.0
 11
153.3545043025554
 21
69.12360764723384
 31
0.0
  0
LINE
  5
AD
330
70
100
AcDbEntity
  8
0
 62
    18
420
        0
370
    18
100
AcDbLine
 10
153.3545043025554
 20
69.12360764723384
 30
0.0
 11
153.7885043025558
 21
69.19250764723351
 31
0.0
  0
LINE
  5
AE
330
70
100
AcDbEntity
  8
0
 62
    18
420
        0
370
    18
100
AcDbLine
 10
153.7885043025558
 20
69.19250764723351
 30
0.0
 11
154.1785043025558
 21
69.39094764723373
 31
0.0
  0
LINE
  5
AF
330
70
100
AcDbEntity
  8
0
 62
    18
420
        0
370
    18
100
AcDbLine
 10
154.1785043025558
 20
69.39094764723373
 30
0.0
 11
154.4885043025555
 21
69.7010076472333
 31
0.0
  0
LINE
  5
B0
330
70
100
AcDbEntity
  8
0
 62
    18
420
        0
370
    18
100
AcDbLine
 10
154.4885043025555
 20
69.7010076472333
 30
0.0
 11
154.6875043025558
 21
70.09098764723376
 31
0.0
  0
LINE
  5
B1
330
70
100
AcDbEntity
  8
0
 62
    18
420
        0
370
    18
100
AcDbLine
 10
154.6875043025558
 20
70.09098764723376
 30
0.0
 11
154.7545043025554
 21
70.52368764723389
 31
0.0
  0
LINE
  5
B2
330
70
100
AcDbEntity
  8
0
 62
    18
420
        0
370
    18
100
AcDbLine
 10
154.7545043025554
 20
70.52368764723389
 30
0.0
 11
154.6875043025558
 21
70.95639764723379
 31
0.0
  0
LINE
  5
B3
330
70
100
AcDbEntity
  8
0
 62
    18
420
        0
370
    18
100
AcDbLine
 10
154.6875043025558
 20
70.95639764723379
 30
0.0
 11
154.4885043025555
 21
71.34639764723376
 31
0.0
  0
LINE
  5
B4
330
70
100
AcDbEntity
  8
0
 62
    18
420
        0
370
    18
100
AcDbLine
 10
154.4885043025555
 20
71.34639764723376
 30
0.0
 11
154.1785043025558
 21
71.65645764723333
 31
0.0
  0
LINE
  5
B5
330
70
100
AcDbEntity
  8
0
 62
    18
420
        0
370
    18
100
AcDbLine
 10
154.1785043025558
 20
71.65645764723333
 30
0.0
 11
153.7885043025558
 21
71.8548876472338
 31
0.0
  0
LINE
  5
B6
330
70
100
AcDbEntity
  8
0
 62
    18
420
        0
370
    18
100
AcDbLine
 10
153.7885043025558
 20
71.8548876472338
 30
0.0
 11
153.3545043025554
 21
71.92378764723347
 31
0.0
  0
LINE
  5
B7
330
70
100
AcDbEntity
  8
0
 62
    18
420
        0
370
    18
100
AcDbLine
 10
153.3545043025554
 20
71.92378764723347
 30
0.0
 11
152.9235043025555
 21
71.8548876472338
 31
0.0
  0
LINE
  5
B8
330
70
100
AcDbEntity
  8
0
 62
    18
420
        0
370
    18
100
AcDbLine
 10
273.206104221161
 20
71.8548876472338
 30
0.0
 11
272.8161042211611
 21
71.65645764723333
 31
0.0
  0
LINE
  5
B9
330
70
100
AcDbEntity
  8
0
 62
    18
420
        0
370
    18
100
AcDbLine
 10
272.8161042211611
 20
71.65645764723333
 30
0.0
 11
272.5051042211609
 21
71.34639764723376
 31
0.0
  0
LINE
  5
BA
330
70
100
AcDbEntity
  8
0
 62
    18
420
        0
370
    18
100
AcDbLine
 10
272.5051042211609
 20
71.34639764723376
 30
0.0
 11
272.3071042211611
 21
70.95639764723379
 31
0.0
  0
LINE
  5
BB
330
70
100
AcDbEntity
  8
0
 62
    18
420
        0
370
    18
100
AcDbLine
 10
272.3071042211611
 20
70.95639764723379
 30
0.0
 11
272.2381042211612
 21
70.52368764723389
 31
0.0
  0
LINE
  5
BC
330
70
100
AcDbEntity
  8
0
 62
    18
420
        0
370
    18
100
AcDbLine
 10
272.2381042211612
 20
70.52368764723389
 30
0.0
 11
272.3071042211611
 21
70.09098764723376
 31
0.0
  0
LINE
  5
BD
330
70
100
AcDbEntity
  8
0
 62
    18
420
        0
370
    18
100
AcDbLine
 10
272.3071042211611
 20
70.09098764723376
 30
0.0
 11
272.5051042211609
 21
69.7010076472333
 31
0.0
  0
LINE
  5
BE
330
70
100
AcDbEntity
  8
0
 62
    18
420
        0
370
    18
100
AcDbLine
 10
272.5051042211609
 20
69.7010076472333
 30
0.0
 11
272.8161042211611
 21
69.39094764723373
 31
0.0
  0
LINE
  5
BF
330
70
100
AcDbEntity
  8
0
 62
    18
420
        0
370
    18
100
AcDbLine
 10
272.8161042211611
 20
69.39094764723373
 30
0.0
 11
273.206104221161
 21
69.19250764723351
 31
0.0
  0
LINE
  5
C0
330
70
100
AcDbEntity
  8
0
 62
    18
420
        0
370
    18
100
AcDbLine
 10
273.206104221161
 20
69.19250764723351
 30
0.0
 11
273.6381042211613
 21
69.12360764723384
 31
0.0
  0
LINE
  5
C1
330
70
100
AcDbEntity
  8
0
 62
    18
420
        0
370
    18
100
AcDbLine
 10
273.6381042211613
 20
69.12360764723384
 30
0.0
 11
274.0711042211613
 21
69.19250764723351
 31
0.0
  0
LINE
  5
C2
330
70
100
AcDbEntity
  8
0
 62
    18
420
        0
370
    18
100
AcDbLine
 10
274.0711042211613
 20
69.19250764723351
 30
0.0
 11
274.4611042211612
 21
69.39094764723373
 31
0.0
  0
LINE
  5
C3
330
70
100
AcDbEntity
  8
0
 62
    18
420
        0
370
    18
100
AcDbLine
 10
274.4611042211612
 20
69.39094764723373
 30
0.0
 11
274.771104221161
 21
69.7010076472333
 31
0.0
  0
LINE
  5
C4
330
70
100
AcDbEntity
  8
0
 62
    18
420
        0
370
    18
100
AcDbLine
 10
274.771104221161
 20
69.7010076472333
 30
0.0
 11
274.9701042211612
 21
70.09098764723376
 31
0.0
  0
LINE
  5
C5
330
70
100
AcDbEntity
  8
0
 62
    18
420
        0
370
    18
100
AcDbLine
 10
274.9701042211612
 20
70.09098764723376
 30
0.0
 11
275.0381042211614
 21
70.52368764723389
 31
0.0
  0
LINE
  5
C6
330
70
100
AcDbEntity
  8
0
 62
    18
420
        0
370
    18
100
AcDbLine
 10
275.0381042211614
 20
70.52368764723389
 30
0.0
 11
274.9701042211612
 21
70.95639764723379
 31
0.0
  0
LINE
  5
C7
330
70
100
AcDbEntity
  8
0
 62
    18
420
        0
370
    18
100
AcDbLine
 10
274.9701042211612
 20
70.95639764723379
 30
0.0
 11
274.771104221161
 21
71.34639764723376
 31
0.0
  0
LINE
  5
C8
330
70
100
AcDbEntity
  8
0
 62
    18
420
        0
370
    18
100
AcDbLine
 10
274.771104221161
 20
71.34639764723376
 30
0.0
 11
274.4611042211612
 21
71.65645764723333
 31
0.0
  0
LINE
  5
C9
330
70
100
AcDbEntity
  8
0
 62
    18
420
        0
370
    18
100
AcDbLine
 10
274.4611042211612
 20
71.65645764723333
 30
0.0
 11
274.0711042211613
 21
71.8548876472338
 31
0.0
  0
LINE
  5
CA
330
70
100
AcDbEntity
  8
0
 62
    18
420
        0
370
    18
100
AcDbLine
 10
274.0711042211613
 20
71.8548876472338
 30
0.0
 11
273.6381042211613
 21
71.92378764723347
 31
0.0
  0
LINE
  5
CB
330
70
100
AcDbEntity
  8
0
 62
    18
420
        0
370
    18
100
AcDbLine
 10
273.6381042211613
 20
71.92378764723347
 30
0.0
 11
273.206104221161
 21
71.8548876472338
 31
0.0
  0
LINE
  5
CC
330
70
100
AcDbEntity
  8
0
 62
    18
420
        0
370
    18
100
AcDbLine
 10
110.6513465618573
 20
96.87044285392005
 30
0.0
 11
110.6513465618573
 21
92.17134285391978
 31
0.0
  0
LINE
  5
CD
330
70
100
AcDbEntity
  8
0
 62
    18
420
        0
370
    18
100
AcDbLine
 10
110.6513465618573
 20
92.17134285391978
 30
0.0
 11
109.1253465618571
 21
92.17134285391978
 31
0.0
  0
LINE
  5
CE
330
70
100
AcDbEntity
  8
0
 62
    18
420
        0
370
    18
100
AcDbLine
 10
109.1253465618571
 20
92.17134285391978
 30
0.0
 11
109.1253465618571
 21
95.40144285391951
 31
0.0
  0
LINE
  5
CF
330
70
100
AcDbEntity
  8
0
 62
    18
420
        0
370
    18
100
AcDbLine
 10
109.1253465618571
 20
95.40144285391951
 30
0.0
 11
102.3763465618577
 21
95.40144285391951
 31
0.0
  0
LINE
  5
D0
330
70
100
AcDbEntity
  8
0
 62
    18
420
        0
370
    18
100
AcDbLine
 10
102.3763465618577
 20
95.40144285391951
 30
0.0
 11
102.3763465618577
 21
92.17134285391978
 31
0.0
  0
LINE
  5
D1
330
70
100
AcDbEntity
  8
0
 62
    18
420
        0
370
    18
100
AcDbLine
 10
102.3763465618577
 20
92.17134285391978
 30
0.0
 11
101.5503465618572
 21
92.17134285391978
 31
0.0
  0
LINE
  5
D2
330
70
100
AcDbEntity
  8
0
 62
    18
420
        0
370
    18
100
AcDbLine
 10
101.5503465618572
 20
92.17134285391978
 30
0.0
 11
101.5503465618572
 21
89.37114285391999
 31
0.0
  0
LINE
  5
D3
330
70
100
AcDbEntity
  8
0
 62
    18
420
        0
370
    18
100
AcDbLine
 10
101.5503465618572
 20
89.37114285391999
 30
0.0
 11
102.3763465618577
 21
89.37114285391999
 31
0.0
  0
LINE
  5
D4
330
70
100
AcDbEntity
  8
0
 62
    18
420
        0
370
    18
100
AcDbLine
 10
102.3763465618577
 20
89.37114285391999
 30
0.0
 11
102.3763465618577
 21
83.10105285391978
 31
0.0
  0
LINE
  5
D5
330
70
100
AcDbEntity
  8
0
 62
    18
420
        0
370
    18
100
AcDbLine
 10
102.3763465618577
 20
83.10105285391978
 30
0.0
 11
104.1013465618572
 21
83.10105285391978
 31
0.0
  0
LINE
  5
D6
330
70
100
AcDbEntity
  8
0
 62
    18
420
        0
370
    18
100
AcDbLine
 10
104.1013465618572
 20
83.10105285391978
 30
0.0
 11
104.1013465618572
 21
81.90079285391956
 31
0.0
  0
LINE
  5
D7
330
70
100
AcDbEntity
  8
0
 62
    18
420
        0
370
    18
100
AcDbLine
 10
104.1013465618572
 20
81.90079285391956
 30
0.0
 11
107.4003465618573
 21
81.90079285391956
 31
0.0
  0
LINE
  5
D8
330
70
100
AcDbEntity
  8
0
 62
    18
420
        0
370
    18
100
AcDbLine
 10
107.4003465618573
 20
81.90079285391956
 30
0.0
 11
107.4003465618573
 21
83.10105285391978
 31
0.0
  0
LINE
  5
D9
330
70
100
AcDbEntity
  8
0
 62
    18
420
        0
370
    18
100
AcDbLine
 10
107.4003465618573
 20
83.10105285391978
 30
0.0
 11
109.1253465618571
 21
83.10105285391978
 31
0.0
  0
LINE
  5
DA
330
70
100
AcDbEntity
  8
0
 62
    18
420
        0
370
    18
100
AcDbLine
 10
109.1253465618571
 20
83.10105285391978
 30
0.0
 11
109.1253465618571
 21
87.57144285391978
 31
0.0
  0
LINE
  5
DB
330
70
100
AcDbEntity
  8
0
 62
    18
420
        0
370
    18
100
AcDbLine
 10
109.1253465618571
 20
87.57144285391978
 30
0.0
 11
110.6513465618573
 21
87.57144285391978
 31
0.0
  0
LINE
  5
DC
330
70
100
AcDbEntity
  8
0
 62
    18
420
        0
370
    18
100
AcDbLine
 10
110.6513465618573
 20
87.57144285391978
 30
0.0
 11
110.6513465618573
 21
82.87093285391998
 31
0.0
  0
LINE
  5
DD
330
70
100
AcDbEntity
  8
0
 62
    18
420
        0
370
    18
100
AcDbLine
 10
110.6513465618573
 20
82.87093285391998
 30
0.0
 11
124.6503465618574
 21
82.87093285391998
 31
0.0
  0
LINE
  5
DE
330
70
100
AcDbEntity
  8
0
 62
    18
420
        0
370
    18
100
AcDbLine
 10
124.6503465618574
 20
82.87093285391998
 30
0.0
 11
124.6503465618574
 21
87.57144285391978
 31
0.0
  0
LINE
  5
DF
330
70
100
AcDbEntity
  8
0
 62
    18
420
        0
370
    18
100
AcDbLine
 10
124.6503465618574
 20
87.57144285391978
 30
0.0
 11
126.1753465618572
 21
87.57144285391978
 31
0.0
  0
LINE
  5
E0
330
70
100
AcDbEntity
  8
0
 62
    18
420
        0
370
    18
100
AcDbLine
 10
126.1753465618572
 20
87.57144285391978
 30
0.0
 11
126.1753465618572
 21
83.10105285391978
 31
0.0
  0
LINE
  5
E1
330
70
100
AcDbEntity
  8
0
 62
    18
420
        0
370
    18
100
AcDbLine
 10
126.1753465618572
 20
83.10105285391978
 30
0.0
 11
127.9013465618574
 21
83.10105285391978
 31
0.0
  0
LINE
  5
E2
330
70
100
AcDbEntity
  8
0
 62
    18
420
        0
370
    18
100
AcDbLine
 10
127.9013465618574
 20
83.10105285391978
 30
0.0
 11
127.9013465618574
 21
81.90079285391956
 31
0.0
  0
LINE
  5
E3
330
70
100
AcDbEntity
  8
0
 62
    18
420
        0
370
    18
100
AcDbLine
 10
127.9013465618574
 20
81.90079285391956
 30
0.0
 11
131.2003465618575
 21
81.90079285391956
 31
0.0
  0
LINE
  5
E4
330
70
100
AcDbEntity
  8
0
 62
    18
420
        0
370
    18
100
AcDbLine
 10
131.2003465618575
 20
81.90079285391956
 30
0.0
 11
131.2003465618575
 21
83.10105285391978
 31
0.0
  0
LINE
  5
E5
330
70
100
AcDbEntity
  8
0
 62
    18
420
        0
370
    18
100
AcDbLine
 10
131.2003465618575
 20
83.10105285391978
 30
0.0
 11
132.9253465618573
 21
83.10105285391978
 31
0.0
  0
LINE
  5
E6
330
70
100
AcDbEntity
  8
0
 62
    18
420
        0
370
    18
100
AcDbLine
 10
132.9253465618573
 20
83.10105285391978
 30
0.0
 11
132.9253465618573
 21
89.37114285391999
 31
0.0
  0
LINE
  5
E7
330
70
100
AcDbEntity
  8
0
 62
    18
420
        0
370
    18
100
AcDbLine
 10
132.9253465618573
 20
89.37114285391999
 30
0.0
 11
133.7513465618571
 21
89.37114285391999
 31
0.0
  0
LINE
  5
E8
330
70
100
AcDbEntity
  8
0
 62
    18
420
        0
370
    18
100
AcDbLine
 10
133.7513465618571
 20
89.37114285391999
 30
0.0
 11
133.7513465618571
 21
92.17134285391978
 31
0.0
  0
LINE
  5
E9
330
70
100
AcDbEntity
  8
0
 62
    18
420
        0
370
    18
100
AcDbLine
 10
133.7513465618571
 20
92.17134285391978
 30
0.0
 11
132.9253465618573
 21
92.17134285391978
 31
0.0
  0
LINE
  5
EA
330
70
100
AcDbEntity
  8
0
 62
    18
420
        0
370
    18
100
AcDbLine
 10
132.9253465618573
 20
92.17134285391978
 30
0.0
 11
132.9253465618573
 21
95.40144285391951
 31
0.0
  0
LINE
  5
EB
330
70
100
AcDbEntity
  8
0
 62
    18
420
        0
370
    18
100
AcDbLine
 10
132.9253465618573
 20
95.40144285391951
 30
0.0
 11
126.1753465618572
 21
95.40144285391951
 31
0.0
  0
LINE
  5
EC
330
70
100
AcDbEntity
  8
0
 62
    18
420
        0
370
    18
100
AcDbLine
 10
126.1753465618572
 20
95.40144285391951
 30
0.0
 11
126.1753465618572
 21
92.17134285391978
 31
0.0
  0
LINE
  5
ED
330
70
100
AcDbEntity
  8
0
 62
    18
420
        0
370
    18
100
AcDbLine
 10
126.1753465618572
 20
92.17134285391978
 30
0.0
 11
124.6503465618574
 21
92.17134285391978
 31
0.0
  0
LINE
  5
EE
330
70
100
AcDbEntity
  8
0
 62
    18
420
        0
370
    18
100
AcDbLine
 10
124.6503465618574
 20
92.17134285391978
 30
0.0
 11
124.6503465618574
 21
96.87044285392005
 31
0.0
  0
LINE
  5
EF
330
70
100
AcDbEntity
  8
0
 62
    18
420
        0
370
    18
100
AcDbLine
 10
124.6503465618574
 20
96.87044285392005
 30
0.0
 11
110.6513465618573
 21
96.87044285392005
 31
0.0
  0
LINE
  5
F0
330
70
100
AcDbEntity
  8
0
 62
    18
420
        0
370
    18
100
AcDbLine
 10
43.97614656185726
 20
96.87044285392005
 30
0.0
 11
43.97614656185726
 21
92.17134285391978
 31
0.0
  0
LINE
  5
F1
330
70
100
AcDbEntity
  8
0
 62
    18
420
        0
370
    18
100
AcDbLine
 10
43.97614656185726
 20
92.17134285391978
 30
0.0
 11
42.45034656185707
 21
92.17134285391978
 31
0.0
  0
LINE
  5
F2
330
70
100
AcDbEntity
  8
0
 62
    18
420
        0
370
    18
100
AcDbLine
 10
42.45034656185707
 20
92.17134285391978
 30
0.0
 11
42.45034656185707
 21
95.40144285391951
 31
0.0
  0
LINE
  5
F3
330
70
100
AcDbEntity
  8
0
 62
    18
420
        0
370
    18
100
AcDbLine
 10
42.45034656185707
 20
95.40144285391951
 30
0.0
 11
35.70104656185721
 21
95.40144285391951
 31
0.0
  0
LINE
  5
F4
330
70
100
AcDbEntity
  8
0
 62
    18
420
        0
370
    18
100
AcDbLine
 10
35.70104656185721
 20
95.40144285391951
 30
0.0
 11
35.70104656185721
 21
92.17134285391978
 31
0.0
  0
LINE
  5
F5
330
70
100
AcDbEntity
  8
0
 62
    18
420
        0
370
    18
100
AcDbLine
 10
35.70104656185721
 20
92.17134285391978
 30
0.0
 11
34.87554656185723
 21
92.17134285391978
 31
0.0
  0
LINE
  5
F6
330
70
100
AcDbEntity
  8
0
 62
    18
420
        0
370
    18
100
AcDbLine
 10
34.87554656185723
 20
92.17134285391978
 30
0.0
 11
34.87554656185723
 21
89.37114285391999
 31
0.0
  0
LINE
  5
F7
330
70
100
AcDbEntity
  8
0
 62
    18
420
        0
370
    18
100
AcDbLine
 10
34.87554656185723
 20
89.37114285391999
 30
0.0
 11
35.70104656185721
 21
89.37114285391999
 31
0.0
  0
LINE
  5
F8
330
70
100
AcDbEntity
  8
0
 62
    18
420
        0
370
    18
100
AcDbLine
 10
35.70104656185721
 20
89.37114285391999
 30
0.0
 11
35.70104656185721
 21
83.10105285391978
 31
0.0
  0
LINE
  5
F9
330
70
100
AcDbEntity
  8
0
 62
    18
420
        0
370
    18
100
AcDbLine
 10
35.70104656185721
 20
83.10105285391978
 30
0.0
 11
37.4261465618572
 21
83.10105285391978
 31
0.0
  0
LINE
  5
FA
330
70
100
AcDbEntity
  8
0
 62
    18
420
        0
370
    18
100
AcDbLine
 10
37.4261465618572
 20
83.10105285391978
 30
0.0
 11
37.4261465618572
 21
81.90079285391956
 31
0.0
  0
LINE
  5
FB
330
70
100
AcDbEntity
  8
0
 62
    18
420
        0
370
    18
100
AcDbLine
 10
37.4261465618572
 20
81.90079285391956
 30
0.0
 11
40.72524656185772
 21
81.90079285391956
 31
0.0
  0
LINE
  5
FC
330
70
100
AcDbEntity
  8
0
 62
    18
420
        0
370
    18
100
AcDbLine
 10
40.72524656185772
 20
81.90079285391956
 30
0.0
 11
40.72524656185772
 21
83.10105285391978
 31
0.0
  0
LINE
  5
FD
330
70
100
AcDbEntity
  8
0
 62
    18
420
        0
370
    18
100
AcDbLine
 10
40.72524656185772
 20
83.10105285391978
 30
0.0
 11
42.45034656185707
 21
83.10105285391978
 31
0.0
  0
LINE
  5
FE
330
70
100
AcDbEntity
  8
0
 62
    18
420
        0
370
    18
100
AcDbLine
 10
42.45034656185707
 20
83.10105285391978
 30
0.0
 11
42.45034656185707
 21
87.57144285391978
 31
0.0
  0
LINE
  5
FF
330
70
100
AcDbEntity
  8
0
 62
    18
420
        0
370
    18
100
AcDbLine
 10
42.45034656185707
 20
87.57144285391978
 30
0.0
 11
43.97614656185726
 21
87.57144285391978
 31
0.0
  0
LINE
  5
100
330
70
100
AcDbEntity
  8
0
 62
    18
420
        0
370
    18
100
AcDbLine
 10
43.97614656185726
 20
87.57144285391978
 30
0.0
 11
43.97614656185726
 21
82.87093285391998
 31
0.0
  0
LINE
  5
101
330
70
100
AcDbEntity
  8
0
 62
    18
420
        0
370
    18
100
AcDbLine
 10
43.97614656185726
 20
82.87093285391998
 30
0.0
 11
57.97534656185739
 21
82.87093285391998
 31
0.0
  0
LINE
  5
102
330
70
100
AcDbEntity
  8
0
 62
    18
420
        0
370
    18
100
AcDbLine
 10
57.97534656185739
 20
82.87093285391998
 30
0.0
 11
57.97534656185739
 21
87.57144285391978
 31
0.0
  0
LINE
  5
103
330
70
100
AcDbEntity
  8
0
 62
    18
420
        0
370
    18
100
AcDbLine
 10
57.97534656185739
 20
87.57144285391978
 30
0.0
 11
59.5003465618572
 21
87.57144285391978
 31
0.0
  0
LINE
  5
104
330
70
100
AcDbEntity
  8
0
 62
    18
420
        0
370
    18
100
AcDbLine
 10
59.5003465618572
 20
87.57144285391978
 30
0.0
 11
59.5003465618572
 21
83.10105285391978
 31
0.0
  0
LINE
  5
105
330
70
100
AcDbEntity
  8
0
 62
    18
420
        0
370
    18
100
AcDbLine
 10
59.5003465618572
 20
83.10105285391978
 30
0.0
 11
61.22634656185709
 21
83.10105285391978
 31
0.0
  0
LINE
  5
106
330
70
100
AcDbEntity
  8
0
 62
    18
420
        0
370
    18
100
AcDbLine
 10
61.22634656185709
 20
83.10105285391978
 30
0.0
 11
61.22634656185709
 21
81.90079285391956
 31
0.0
  0
LINE
  5
107
330
70
100
AcDbEntity
  8
0
 62
    18
420
        0
370
    18
100
AcDbLine
 10
61.22634656185709
 20
81.90079285391956
 30
0.0
 11
64.52534656185746
 21
81.90079285391956
 31
0.0
  0
LINE
  5
108
330
70
100
AcDbEntity
  8
0
 62
    18
420
        0
370
    18
100
AcDbLine
 10
64.52534656185746
 20
81.90079285391956
 30
0.0
 11
64.52534656185746
 21
83.10105285391978
 31
0.0
  0
LINE
  5
109
330
70
100
AcDbEntity
  8
0
 62
    18
420
        0
370
    18
100
AcDbLine
 10
64.52534656185746
 20
83.10105285391978
 30
0.0
 11
66.25034656185727
 21
83.10105285391978
 31
0.0
  0
LINE
  5
10A
330
70
100
AcDbEntity
  8
0
 62
    18
420
        0
370
    18
100
AcDbLine
 10
66.25034656185727
 20
83.10105285391978
 30
0.0
 11
66.25034656185727
 21
89.37114285391999
 31
0.0
  0
LINE
  5
10B
330
70
100
AcDbEntity
  8
0
 62
    18
420
        0
370
    18
100
AcDbLine
 10
66.25034656185727
 20
89.37114285391999
 30
0.0
 11
67.07634656185714
 21
89.37114285391999
 31
0.0
  0
LINE
  5
10C
330
70
100
AcDbEntity
  8
0
 62
    18
420
        0
370
    18
100
AcDbLine
 10
67.07634656185714
 20
89.37114285391999
 30
0.0
 11
67.07634656185714
 21
92.17134285391978
 31
0.0
  0
LINE
  5
10D
330
70
100
AcDbEntity
  8
0
 62
    18
420
        0
370
    18
100
AcDbLine
 10
67.07634656185714
 20
92.17134285391978
 30
0.0
 11
66.25034656185727
 21
92.17134285391978
 31
0.0
  0
LINE
  5
10E
330
70
100
AcDbEntity
  8
0
 62
    18
420
        0
370
    18
100
AcDbLine
 10
66.25034656185727
 20
92.17134285391978
 30
0.0
 11
66.25034656185727
 21
95.40144285391951
 31
0.0
  0
LINE
  5
10F
330
70
100
AcDbEntity
  8
0
 62
    18
420
        0
370
    18
100
AcDbLine
 10
66.25034656185727
 20
95.40144285391951
 30
0.0
 11
59.5003465618572
 21
95.40144285391951
 31
0.0
  0
LINE
  5
110
330
70
100
AcDbEntity
  8
0
 62
    18
420
        0
370
    18
100
AcDbLine
 10
59.5003465618572
 20
95.40144285391951
 30
0.0
 11
59.5003465618572
 21
92.17134285391978
 31
0.0
  0
LINE
  5
111
330
70
100
AcDbEntity
  8
0
 62
    18
420
        0
370
    18
100
AcDbLine
 10
59.5003465618572
 20
92.17134285391978
 30
0.0
 11
57.97534656185739
 21
92.17134285391978
 31
0.0
  0
LINE
  5
112
330
70
100
AcDbEntity
  8
0
 62
    18
420
        0
370
    18
100
AcDbLine
 10
57.97534656185739
 20
92.17134285391978
 30
0.0
 11
57.97534656185739
 21
96.87044285392005
 31
0.0
  0
LINE
  5
113
330
70
100
AcDbEntity
  8
0
 62
    18
420
        0
370
    18
100
AcDbLine
 10
57.97534656185739
 20
96.87044285392005
 30
0.0
 11
43.97614656185726
 21
96.87044285392005
 31
0.0
  0
LINE
  5
114
330
70
100
AcDbEntity
  8
0
 62
    18
420
        0
370
    18
100
AcDbLine
 10
241.6203465618576
 20
96.87044285392005
 30
0.0
 11
255.6193465618571
 21
96.87044285392005
 31
0.0
  0
LINE
  5
115
330
70
100
AcDbEntity
  8
0
 62
    18
420
        0
370
    18
100
AcDbLine
 10
255.6193465618571
 20
96.87044285392005
 30
0.0
 11
255.6193465618571
 21
82.87093285391998
 31
0.0
  0
LINE
  5
116
330
70
100
AcDbEntity
  8
0
 62
    18
420
        0
370
    18
100
AcDbLine
 10
255.6193465618571
 20
82.87093285391998
 30
0.0
 11
241.6203465618576
 21
82.87093285391998
 31
0.0
  0
LINE
  5
117
330
70
100
AcDbEntity
  8
0
 62
    18
420
        0
370
    18
100
AcDbLine
 10
241.6203465618576
 20
82.87093285391998
 30
0.0
 11
241.6203465618576
 21
96.87044285392005
 31
0.0
  0
LINE
  5
118
330
70
100
AcDbEntity
  8
0
 62
    18
420
        0
370
    18
100
AcDbLine
 10
222.5703465618574
 20
96.87044285392005
 30
0.0
 11
236.5693465618575
 21
96.87044285392005
 31
0.0
  0
LINE
  5
119
330
70
100
AcDbEntity
  8
0
 62
    18
420
        0
370
    18
100
AcDbLine
 10
236.5693465618575
 20
96.87044285392005
 30
0.0
 11
236.5693465618575
 21
82.87093285391998
 31
0.0
  0
LINE
  5
11A
330
70
100
AcDbEntity
  8
0
 62
    18
420
        0
370
    18
100
AcDbLine
 10
236.5693465618575
 20
82.87093285391998
 30
0.0
 11
222.5703465618574
 21
82.87093285391998
 31
0.0
  0
LINE
  5
11B
330
70
100
AcDbEntity
  8
0
 62
    18
420
        0
370
    18
100
AcDbLine
 10
222.5703465618574
 20
82.87093285391998
 30
0.0
 11
222.5703465618574
 21
96.87044285392005
 31
0.0
  0
LINE
  5
11C
330
70
100
AcDbEntity
  8
0
 62
    18
420
        0
370
    18
100
AcDbLine
 10
203.5203465618572
 20
96.87044285392005
 30
0.0
 11
217.5193465618573
 21
96.87044285392005
 31
0.0
  0
LINE
  5
11D
330
70
100
AcDbEntity
  8
0
 62
    18
420
        0
370
    18
100
AcDbLine
 10
217.5193465618573
 20
96.87044285392005
 30
0.0
 11
217.5193465618573
 21
82.87093285391998
 31
0.0
  0
LINE
  5
11E
330
70
100
AcDbEntity
  8
0
 62
    18
420
        0
370
    18
100
AcDbLine
 10
217.5193465618573
 20
82.87093285391998
 30
0.0
 11
203.5203465618572
 21
82.87093285391998
 31
0.0
  0
LINE
  5
11F
330
70
100
AcDbEntity
  8
0
 62
    18
420
        0
370
    18
100
AcDbLine
 10
203.5203465618572
 20
82.87093285391998
 30
0.0
 11
203.5203465618572
 21
96.87044285392005
 31
0.0
  0
LINE
  5
120
330
70
100
AcDbEntity
  8
0
 62
    18
420
        0
370
    18
100
AcDbLine
 10
184.470346561857
 20
96.87044285392005
 30
0.0
 11
198.4693465618571
 21
96.87044285392005
 31
0.0
  0
LINE
  5
121
330
70
100
AcDbEntity
  8
0
 62
    18
420
        0
370
    18
100
AcDbLine
 10
198.4693465618571
 20
96.87044285392005
 30
0.0
 11
198.4693465618571
 21
82.87093285391998
 31
0.0
  0
LINE
  5
122
330
70
100
AcDbEntity
  8
0
 62
    18
420
        0
370
    18
100
AcDbLine
 10
198.4693465618571
 20
82.87093285391998
 30
0.0
 11
184.470346561857
 21
82.87093285391998
 31
0.0
  0
LINE
  5
123
330
70
100
AcDbEntity
  8
0
 62
    18
420
        0
370
    18
100
AcDbLine
 10
184.470346561857
 20
82.87093285391998
 30
0.0
 11
184.470346561857
 21
96.87044285392005
 31
0.0
  0
LINE
  5
124
330
70
100
AcDbEntity
  8
0
 62
    18
420
        0
370
    18
100
AcDbLine
 10
165.4203465618575
 20
96.87044285392005
 30
0.0
 11
179.4193465618575
 21
96.87044285392005
 31
0.0
  0
LINE
  5
125
330
70
100
AcDbEntity
  8
0
 62
    18
420
        0
370
    18
100
AcDbLine
 10
179.4193465618575
 20
96.87044285392005
 30
0.0
 11
179.4193465618575
 21
82.87093285391998
 31
0.0
  0
LINE
  5
126
330
70
100
AcDbEntity
  8
0
 62
    18
420
        0
370
    18
100
AcDbLine
 10
179.4193465618575
 20
82.87093285391998
 30
0.0
 11
165.4203465618575
 21
82.87093285391998
 31
0.0
  0
LINE
  5
127
330
70
100
AcDbEntity
  8
0
 62
    18
420
        0
370
    18
100
AcDbLine
 10
165.4203465618575
 20
82.87093285391998
 30
0.0
 11
165.4203465618575
 21
96.87044285392005
 31
0.0
  0
LINE
  5
128
330
70
100
AcDbEntity
  8
0
 62
    18
420
        0
370
    18
100
AcDbLine
 10
146.3703465618572
 20
96.87044285392005
 30
0.0
 11
160.3693465618574
 21
96.87044285392005
 31
0.0
  0
LINE
  5
129
330
70
100
AcDbEntity
  8
0
 62
    18
420
        0
370
    18
100
AcDbLine
 10
160.3693465618574
 20
96.87044285392005
 30
0.0
 11
160.3693465618574
 21
82.87093285391998
 31
0.0
  0
LINE
  5
12A
330
70
100
AcDbEntity
  8
0
 62
    18
420
        0
370
    18
100
AcDbLine
 10
160.3693465618574
 20
82.87093285391998
 30
0.0
 11
146.3703465618572
 21
82.87093285391998
 31
0.0
  0
LINE
  5
12B
330
70
100
AcDbEntity
  8
0
 62
    18
420
        0
370
    18
100
AcDbLine
 10
146.3703465618572
 20
82.87093285391998
 30
0.0
 11
146.3703465618572
 21
96.87044285392005
 31
0.0
  0
LINE
  5
12C
330
70
100
AcDbEntity
  8
0
 62
    18
420
        0
370
    18
100
AcDbLine
 10
5.876146561857204
 20
96.87044285392005
 30
0.0
 11
19.87544656185717
 21
96.87044285392005
 31
0.0
  0
LINE
  5
12D
330
70
100
AcDbEntity
  8
0
 62
    18
420
        0
370
    18
100
AcDbLine
 10
19.87544656185717
 20
96.87044285392005
 30
0.0
 11
19.87544656185717
 21
82.87093285391998
 31
0.0
  0
LINE
  5
12E
330
70
100
AcDbEntity
  8
0
 62
    18
420
        0
370
    18
100
AcDbLine
 10
19.87544656185717
 20
82.87093285391998
 30
0.0
 11
5.876146561857204
 21
82.87093285391998
 31
0.0
  0
LINE
  5
12F
330
70
100
AcDbEntity
  8
0
 62
    18
420
        0
370
    18
100
AcDbLine
 10
5.876146561857204
 20
82.87093285391998
 30
0.0
 11
5.876146561857204
 21
96.87044285392005
 31
0.0
  0
LINE
  5
130
330
70
100
AcDbEntity
  8
0
 62
    18
420
        0
370
    18
100
AcDbLine
 10
-17.93655343814273
 20
96.87044285392005
 30
0.0
 11
-3.937053438142747
 21
96.87044285392005
 31
0.0
  0
LINE
  5
131
330
70
100
AcDbEntity
  8
0
 62
    18
420
        0
370
    18
100
AcDbLine
 10
-3.937053438142747
 20
96.87044285392005
 30
0.0
 11
-3.937053438142747
 21
82.87093285391998
 31
0.0
  0
LINE
  5
132
330
70
100
AcDbEntity
  8
0
 62
    18
420
        0
370
    18
100
AcDbLine
 10
-3.937053438142747
 20
82.87093285391998
 30
0.0
 11
-17.93655343814273
 21
82.87093285391998
 31
0.0
  0
LINE
  5
133
330
70
100
AcDbEntity
  8
0
 62
    18
420
        0
370
    18
100
AcDbLine
 10
-17.93655343814273
 20
82.87093285391998
 30
0.0
 11
-17.93655343814273
 21
96.87044285392005
 31
0.0
  0
LINE
  5
134
330
70
100
AcDbEntity
  8
0
 62
    18
420
        0
370
    18
100
AcDbLine
 10
-41.74905343814264
 20
96.87044285392005
 30
0.0
 11
-27.74955343814267
 21
96.87044285392005
 31
0.0
  0
LINE
  5
135
330
70
100
AcDbEntity
  8
0
 62
    18
420
        0
370
    18
100
AcDbLine
 10
-27.74955343814267
 20
96.87044285392005
 30
0.0
 11
-27.74955343814267
 21
82.87093285391998
 31
0.0
  0
LINE
  5
136
330
70
100
AcDbEntity
  8
0
 62
    18
420
        0
370
    18
100
AcDbLine
 10
-27.74955343814267
 20
82.87093285391998
 30
0.0
 11
-41.74905343814264
 21
82.87093285391998
 31
0.0
  0
LINE
  5
137
330
70
100
AcDbEntity
  8
0
 62
    18
420
        0
370
    18
100
AcDbLine
 10
-41.74905343814264
 20
82.87093285391998
 30
0.0
 11
-41.74905343814264
 21
96.87044285392005
 31
0.0
  0
LINE
  5
138
330
70
100
AcDbEntity
  8
0
 62
    18
420
        0
370
    18
100
AcDbLine
 10
-32.22405343814287
 20
115.9202428539199
 30
0.0
 11
-32.22405343814287
 21
111.2212428539198
 31
0.0
  0
LINE
  5
139
330
70
100
AcDbEntity
  8
0
 62
    18
420
        0
370
    18
100
AcDbLine
 10
-32.22405343814287
 20
111.2212428539198
 30
0.0
 11
-33.74945343814271
 21
111.2212428539198
 31
0.0
  0
LINE
  5
13A
330
70
100
AcDbEntity
  8
0
 62
    18
420
        0
370
    18
100
AcDbLine
 10
-33.74945343814271
 20
111.2212428539198
 30
0.0
 11
-33.74945343814271
 21
114.4513428539195
 31
0.0
  0
LINE
  5
13B
330
70
100
AcDbEntity
  8
0
 62
    18
420
        0
370
    18
100
AcDbLine
 10
-33.74945343814271
 20
114.4513428539195
 30
0.0
 11
-40.49915343814292
 21
114.4513428539195
 31
0.0
  0
LINE
  5
13C
330
70
100
AcDbEntity
  8
0
 62
    18
420
        0
370
    18
100
AcDbLine
 10
-40.49915343814292
 20
114.4513428539195
 30
0.0
 11
-40.49915343814292
 21
111.2212428539198
 31
0.0
  0
LINE
  5
13D
330
70
100
AcDbEntity
  8
0
 62
    18
420
        0
370
    18
100
AcDbLine
 10
-40.49915343814292
 20
111.2212428539198
 30
0.0
 11
-41.32455343814274
 21
111.2212428539198
 31
0.0
  0
LINE
  5
13E
330
70
100
AcDbEntity
  8
0
 62
    18
420
        0
370
    18
100
AcDbLine
 10
-41.32455343814274
 20
111.2212428539198
 30
0.0
 11
-41.32455343814274
 21
108.4211428539195
 31
0.0
  0
LINE
  5
13F
330
70
100
AcDbEntity
  8
0
 62
    18
420
        0
370
    18
100
AcDbLine
 10
-41.32455343814274
 20
108.4211428539195
 30
0.0
 11
-40.49915343814292
 21
108.4211428539195
 31
0.0
  0
LINE
  5
140
330
70
100
AcDbEntity
  8
0
 62
    18
420
        0
370
    18
100
AcDbLine
 10
-40.49915343814292
 20
108.4211428539195
 30
0.0
 11
-40.49915343814292
 21
102.1510428539195
 31
0.0
  0
LINE
  5
141
330
70
100
AcDbEntity
  8
0
 62
    18
420
        0
370
    18
100
AcDbLine
 10
-40.49915343814292
 20
102.1510428539195
 30
0.0
 11
-38.77385343814261
 21
102.1510428539195
 31
0.0
  0
LINE
  5
142
330
70
100
AcDbEntity
  8
0
 62
    18
420
        0
370
    18
100
AcDbLine
 10
-38.77385343814261
 20
102.1510428539195
 30
0.0
 11
-38.77385343814261
 21
100.9508428539198
 31
0.0
  0
LINE
  5
143
330
70
100
AcDbEntity
  8
0
 62
    18
420
        0
370
    18
100
AcDbLine
 10
-38.77385343814261
 20
100.9508428539198
 30
0.0
 11
-35.47475343814272
 21
100.9508428539198
 31
0.0
  0
LINE
  5
144
330
70
100
AcDbEntity
  8
0
 62
    18
420
        0
370
    18
100
AcDbLine
 10
-35.47475343814272
 20
100.9508428539198
 30
0.0
 11
-35.47475343814272
 21
102.1510428539195
 31
0.0
  0
LINE
  5
145
330
70
100
AcDbEntity
  8
0
 62
    18
420
        0
370
    18
100
AcDbLine
 10
-35.47475343814272
 20
102.1510428539195
 30
0.0
 11
-33.74945343814271
 21
102.1510428539195
 31
0.0
  0
LINE
  5
146
330
70
100
AcDbEntity
  8
0
 62
    18
420
        0
370
    18
100
AcDbLine
 10
-33.74945343814271
 20
102.1510428539195
 30
0.0
 11
-33.74945343814271
 21
106.6214428539199
 31
0.0
  0
LINE
  5
147
330
70
100
AcDbEntity
  8
0
 62
    18
420
        0
370
    18
100
AcDbLine
 10
-33.74945343814271
 20
106.6214428539199
 30
0.0
 11
-32.22405343814287
 21
106.6214428539199
 31
0.0
  0
LINE
  5
148
330
70
100
AcDbEntity
  8
0
 62
    18
420
        0
370
    18
100
AcDbLine
 10
-32.22405343814287
 20
106.6214428539199
 30
0.0
 11
-32.22405343814287
 21
101.9209428539199
 31
0.0
  0
LINE
  5
149
330
70
100
AcDbEntity
  8
0
 62
    18
420
        0
370
    18
100
AcDbLine
 10
-32.22405343814287
 20
101.9209428539199
 30
0.0
 11
-18.22455343814257
 21
101.9209428539199
 31
0.0
  0
LINE
  5
14A
330
70
100
AcDbEntity
  8
0
 62
    18
420
        0
370
    18
100
AcDbLine
 10
-18.22455343814257
 20
101.9209428539199
 30
0.0
 11
-18.22455343814257
 21
106.6214428539199
 31
0.0
  0
LINE
  5
14B
330
70
100
AcDbEntity
  8
0
 62
    18
420
        0
370
    18
100
AcDbLine
 10
-18.22455343814257
 20
106.6214428539199
 30
0.0
 11
-16.69915343814273
 21
106.6214428539199
 31
0.0
  0
LINE
  5
14C
330
70
100
AcDbEntity
  8
0
 62
    18
420
        0
370
    18
100
AcDbLine
 10
-16.69915343814273
 20
106.6214428539199
 30
0.0
 11
-16.69915343814273
 21
102.1510428539195
 31
0.0
  0
LINE
  5
14D
330
70
100
AcDbEntity
  8
0
 62
    18
420
        0
370
    18
100
AcDbLine
 10
-16.69915343814273
 20
102.1510428539195
 30
0.0
 11
-14.97375343814288
 21
102.1510428539195
 31
0.0
  0
LINE
  5
14E
330
70
100
AcDbEntity
  8
0
 62
    18
420
        0
370
    18
100
AcDbLine
 10
-14.97375343814288
 20
102.1510428539195
 30
0.0
 11
-14.97375343814288
 21
100.9508428539198
 31
0.0
  0
LINE
  5
14F
330
70
100
AcDbEntity
  8
0
 62
    18
420
        0
370
    18
100
AcDbLine
 10
-14.97375343814288
 20
100.9508428539198
 30
0.0
 11
-11.67455343814282
 21
100.9508428539198
 31
0.0
  0
LINE
  5
150
330
70
100
AcDbEntity
  8
0
 62
    18
420
        0
370
    18
100
AcDbLine
 10
-11.67455343814282
 20
100.9508428539198
 30
0.0
 11
-11.67455343814282
 21
102.1510428539195
 31
0.0
  0
LINE
  5
151
330
70
100
AcDbEntity
  8
0
 62
    18
420
        0
370
    18
100
AcDbLine
 10
-11.67455343814282
 20
102.1510428539195
 30
0.0
 11
-9.949453438142832
 21
102.1510428539195
 31
0.0
  0
LINE
  5
152
330
70
100
AcDbEntity
  8
0
 62
    18
420
        0
370
    18
100
AcDbLine
 10
-9.949453438142832
 20
102.1510428539195
 30
0.0
 11
-9.949453438142832
 21
108.4211428539195
 31
0.0
  0
LINE
  5
153
330
70
100
AcDbEntity
  8
0
 62
    18
420
        0
370
    18
100
AcDbLine
 10
-9.949453438142832
 20
108.4211428539195
 30
0.0
 11
-9.12395343814285
 21
108.4211428539195
 31
0.0
  0
LINE
  5
154
330
70
100
AcDbEntity
  8
0
 62
    18
420
        0
370
    18
100
AcDbLine
 10
-9.12395343814285
 20
108.4211428539195
 30
0.0
 11
-9.12395343814285
 21
111.2212428539198
 31
0.0
  0
LINE
  5
155
330
70
100
AcDbEntity
  8
0
 62
    18
420
        0
370
    18
100
AcDbLine
 10
-9.12395343814285
 20
111.2212428539198
 30
0.0
 11
-9.949453438142832
 21
111.2212428539198
 31
0.0
  0
LINE
  5
156
330
70
100
AcDbEntity
  8
0
 62
    18
420
        0
370
    18
100
AcDbLine
 10
-9.949453438142832
 20
111.2212428539198
 30
0.0
 11
-9.949453438142832
 21
114.4513428539195
 31
0.0
  0
LINE
  5
157
330
70
100
AcDbEntity
  8
0
 62
    18
420
        0
370
    18
100
AcDbLine
 10
-9.949453438142832
 20
114.4513428539195
 30
0.0
 11
-16.69915343814273
 21
114.4513428539195
 31
0.0
  0
LINE
  5
158
330
70
100
AcDbEntity
  8
0
 62
    18
420
        0
370
    18
100
AcDbLine
 10
-16.69915343814273
 20
114.4513428539195
 30
0.0
 11
-16.69915343814273
 21
111.2212428539198
 31
0.0
  0
LINE
  5
159
330
70
100
AcDbEntity
  8
0
 62
    18
420
        0
370
    18
100
AcDbLine
 10
-16.69915343814273
 20
111.2212428539198
 30
0.0
 11
-18.22455343814257
 21
111.2212428539198
 31
0.0
  0
LINE
  5
15A
330
70
100
AcDbEntity
  8
0
 62
    18
420
        0
370
    18
100
AcDbLine
 10
-18.22455343814257
 20
111.2212428539198
 30
0.0
 11
-18.22455343814257
 21
115.9202428539199
 31
0.0
  0
LINE
  5
15B
330
70
100
AcDbEntity
  8
0
 62
    18
420
        0
370
    18
100
AcDbLine
 10
-18.22455343814257
 20
115.9202428539199
 30
0.0
 11
-32.22405343814287
 21
115.9202428539199
 31
0.0
  0
LINE
  5
15C
330
70
100
AcDbEntity
  8
0
 62
    18
420
        0
370
    18
100
AcDbLine
 10
222.5703465618574
 20
115.9202428539199
 30
0.0
 11
236.5693465618575
 21
115.9202428539199
 31
0.0
  0
LINE
  5
15D
330
70
100
AcDbEntity
  8
0
 62
    18
420
        0
370
    18
100
AcDbLine
 10
236.5693465618575
 20
115.9202428539199
 30
0.0
 11
236.5693465618575
 21
101.9209428539199
 31
0.0
  0
LINE
  5
15E
330
70
100
AcDbEntity
  8
0
 62
    18
420
        0
370
    18
100
AcDbLine
 10
236.5693465618575
 20
101.9209428539199
 30
0.0
 11
222.5703465618574
 21
101.9209428539199
 31
0.0
  0
LINE
  5
15F
330
70
100
AcDbEntity
  8
0
 62
    18
420
        0
370
    18
100
AcDbLine
 10
222.5703465618574
 20
101.9209428539199
 30
0.0
 11
222.5703465618574
 21
115.9202428539199
 31
0.0
  0
LINE
  5
160
330
70
100
AcDbEntity
  8
0
 62
    18
420
        0
370
    18
100
AcDbLine
 10
196.3763465618575
 20
115.9202428539199
 30
0.0
 11
210.3753465618576
 21
115.9202428539199
 31
0.0
  0
LINE
  5
161
330
70
100
AcDbEntity
  8
0
 62
    18
420
        0
370
    18
100
AcDbLine
 10
210.3753465618576
 20
115.9202428539199
 30
0.0
 11
210.3753465618576
 21
101.9209428539199
 31
0.0
  0
LINE
  5
162
330
70
100
AcDbEntity
  8
0
 62
    18
420
        0
370
    18
100
AcDbLine
 10
210.3753465618576
 20
101.9209428539199
 30
0.0
 11
196.3763465618575
 21
101.9209428539199
 31
0.0
  0
LINE
  5
163
330
70
100
AcDbEntity
  8
0
 62
    18
420
        0
370
    18
100
AcDbLine
 10
196.3763465618575
 20
101.9209428539199
 30
0.0
 11
196.3763465618575
 21
115.9202428539199
 31
0.0
  0
LINE
  5
164
330
70
100
AcDbEntity
  8
0
 62
    18
420
        0
370
    18
100
AcDbLine
 10
170.182346561857
 20
115.9202428539199
 30
0.0
 11
184.1813465618571
 21
115.9202428539199
 31
0.0
  0
LINE
  5
165
330
70
100
AcDbEntity
  8
0
 62
    18
420
        0
370
    18
100
AcDbLine
 10
184.1813465618571
 20
115.9202428539199
 30
0.0
 11
184.1813465618571
 21
101.9209428539199
 31
0.0
  0
LINE
  5
166
330
70
100
AcDbEntity
  8
0
 62
    18
420
        0
370
    18
100
AcDbLine
 10
184.1813465618571
 20
101.9209428539199
 30
0.0
 11
170.182346561857
 21
101.9209428539199
 31
0.0
  0
LINE
  5
167
330
70
100
AcDbEntity
  8
0
 62
    18
420
        0
370
    18
100
AcDbLine
 10
170.182346561857
 20
101.9209428539199
 30
0.0
 11
170.182346561857
 21
115.9202428539199
 31
0.0
  0
LINE
  5
168
330
70
100
AcDbEntity
  8
0
 62
    18
420
        0
370
    18
100
AcDbLine
 10
151.1323465618574
 20
115.9202428539199
 30
0.0
 11
165.1313465618575
 21
115.9202428539199
 31
0.0
  0
LINE
  5
169
330
70
100
AcDbEntity
  8
0
 62
    18
420
        0
370
    18
100
AcDbLine
 10
165.1313465618575
 20
115.9202428539199
 30
0.0
 11
165.1313465618575
 21
101.9209428539199
 31
0.0
  0
LINE
  5
16A
330
70
100
AcDbEntity
  8
0
 62
    18
420
        0
370
    18
100
AcDbLine
 10
165.1313465618575
 20
101.9209428539199
 30
0.0
 11
151.1323465618574
 21
101.9209428539199
 31
0.0
  0
LINE
  5
16B
330
70
100
AcDbEntity
  8
0
 62
    18
420
        0
370
    18
100
AcDbLine
 10
151.1323465618574
 20
101.9209428539199
 30
0.0
 11
151.1323465618574
 21
115.9202428539199
 31
0.0
  0
LINE
  5
16C
330
70
100
AcDbEntity
  8
0
 62
    18
420
        0
370
    18
100
AcDbLine
 10
132.0823465618572
 20
115.9202428539199
 30
0.0
 11
146.0813465618574
 21
115.9202428539199
 31
0.0
  0
LINE
  5
16D
330
70
100
AcDbEntity
  8
0
 62
    18
420
        0
370
    18
100
AcDbLine
 10
146.0813465618574
 20
115.9202428539199
 30
0.0
 11
146.0813465618574
 21
101.9209428539199
 31
0.0
  0
LINE
  5
16E
330
70
100
AcDbEntity
  8
0
 62
    18
420
        0
370
    18
100
AcDbLine
 10
146.0813465618574
 20
101.9209428539199
 30
0.0
 11
132.0823465618572
 21
101.9209428539199
 31
0.0
  0
LINE
  5
16F
330
70
100
AcDbEntity
  8
0
 62
    18
420
        0
370
    18
100
AcDbLine
 10
132.0823465618572
 20
101.9209428539199
 30
0.0
 11
132.0823465618572
 21
115.9202428539199
 31
0.0
  0
LINE
  5
170
330
70
100
AcDbEntity
  8
0
 62
    18
420
        0
370
    18
100
AcDbLine
 10
113.032346561857
 20
115.9202428539199
 30
0.0
 11
127.0313465618571
 21
115.9202428539199
 31
0.0
  0
LINE
  5
171
330
70
100
AcDbEntity
  8
0
 62
    18
420
        0
370
    18
100
AcDbLine
 10
127.0313465618571
 20
115.9202428539199
 30
0.0
 11
127.0313465618571
 21
101.9209428539199
 31
0.0
  0
LINE
  5
172
330
70
100
AcDbEntity
  8
0
 62
    18
420
        0
370
    18
100
AcDbLine
 10
127.0313465618571
 20
101.9209428539199
 30
0.0
 11
113.032346561857
 21
101.9209428539199
 31
0.0
  0
LINE
  5
173
330
70
100
AcDbEntity
  8
0
 62
    18
420
        0
370
    18
100
AcDbLine
 10
113.032346561857
 20
101.9209428539199
 30
0.0
 11
113.032346561857
 21
115.9202428539199
 31
0.0
  0
LINE
  5
174
330
70
100
AcDbEntity
  8
0
 62
    18
420
        0
370
    18
100
AcDbLine
 10
93.98234656185719
 20
115.9202428539199
 30
0.0
 11
107.981346561857
 21
115.9202428539199
 31
0.0
  0
LINE
  5
175
330
70
100
AcDbEntity
  8
0
 62
    18
420
        0
370
    18
100
AcDbLine
 10
107.981346561857
 20
115.9202428539199
 30
0.0
 11
107.981346561857
 21
101.9209428539199
 31
0.0
  0
LINE
  5
176
330
70
100
AcDbEntity
  8
0
 62
    18
420
        0
370
    18
100
AcDbLine
 10
107.981346561857
 20
101.9209428539199
 30
0.0
 11
93.98234656185719
 21
101.9209428539199
 31
0.0
  0
LINE
  5
177
330
70
100
AcDbEntity
  8
0
 62
    18
420
        0
370
    18
100
AcDbLine
 10
93.98234656185719
 20
101.9209428539199
 30
0.0
 11
93.98234656185719
 21
115.9202428539199
 31
0.0
  0
LINE
  5
178
330
70
100
AcDbEntity
  8
0
 62
    18
420
        0
370
    18
100
AcDbLine
 10
74.93234656185733
 20
115.9202428539199
 30
0.0
 11
88.93134656185743
 21
115.9202428539199
 31
0.0
  0
LINE
  5
179
330
70
100
AcDbEntity
  8
0
 62
    18
420
        0
370
    18
100
AcDbLine
 10
88.93134656185743
 20
115.9202428539199
 30
0.0
 11
88.93134656185743
 21
101.9209428539199
 31
0.0
  0
LINE
  5
17A
330
70
100
AcDbEntity
  8
0
 62
    18
420
        0
370
    18
100
AcDbLine
 10
88.93134656185743
 20
101.9209428539199
 30
0.0
 11
74.93234656185733
 21
101.9209428539199
 31
0.0
  0
LINE
  5
17B
330
70
100
AcDbEntity
  8
0
 62
    18
420
        0
370
    18
100
AcDbLine
 10
74.93234656185733
 20
101.9209428539199
 30
0.0
 11
74.93234656185733
 21
115.9202428539199
 31
0.0
  0
LINE
  5
17C
330
70
100
AcDbEntity
  8
0
 62
    18
420
        0
370
    18
100
AcDbLine
 10
55.88234656185714
 20
115.9202428539199
 30
0.0
 11
69.88134656185724
 21
115.9202428539199
 31
0.0
  0
LINE
  5
17D
330
70
100
AcDbEntity
  8
0
 62
    18
420
        0
370
    18
100
AcDbLine
 10
69.88134656185724
 20
115.9202428539199
 30
0.0
 11
69.88134656185724
 21
101.9209428539199
 31
0.0
  0
LINE
  5
17E
330
70
100
AcDbEntity
  8
0
 62
    18
420
        0
370
    18
100
AcDbLine
 10
69.88134656185724
 20
101.9209428539199
 30
0.0
 11
55.88234656185714
 21
101.9209428539199
 31
0.0
  0
LINE
  5
17F
330
70
100
AcDbEntity
  8
0
 62
    18
420
        0
370
    18
100
AcDbLine
 10
55.88234656185714
 20
101.9209428539199
 30
0.0
 11
55.88234656185714
 21
115.9202428539199
 31
0.0
  0
LINE
  5
180
330
70
100
AcDbEntity
  8
0
 62
    18
420
        0
370
    18
100
AcDbLine
 10
36.83234656185727
 20
115.9202428539199
 30
0.0
 11
50.83134656185738
 21
115.9202428539199
 31
0.0
  0
LINE
  5
181
330
70
100
AcDbEntity
  8
0
 62
    18
420
        0
370
    18
100
AcDbLine
 10
50.83134656185738
 20
115.9202428539199
 30
0.0
 11
50.83134656185738
 21
101.9209428539199
 31
0.0
  0
LINE
  5
182
330
70
100
AcDbEntity
  8
0
 62
    18
420
        0
370
    18
100
AcDbLine
 10
50.83134656185738
 20
101.9209428539199
 30
0.0
 11
36.83234656185727
 21
101.9209428539199
 31
0.0
  0
LINE
  5
183
330
70
100
AcDbEntity
  8
0
 62
    18
420
        0
370
    18
100
AcDbLine
 10
36.83234656185727
 20
101.9209428539199
 30
0.0
 11
36.83234656185727
 21
115.9202428539199
 31
0.0
  0
LINE
  5
184
330
70
100
AcDbEntity
  8
0
 62
    18
420
        0
370
    18
100
AcDbLine
 10
17.7823465618574
 20
115.9202428539199
 30
0.0
 11
31.78164656185737
 21
115.9202428539199
 31
0.0
  0
LINE
  5
185
330
70
100
AcDbEntity
  8
0
 62
    18
420
        0
370
    18
100
AcDbLine
 10
31.78164656185737
 20
115.9202428539199
 30
0.0
 11
31.78164656185737
 21
101.9209428539199
 31
0.0
  0
LINE
  5
186
330
70
100
AcDbEntity
  8
0
 62
    18
420
        0
370
    18
100
AcDbLine
 10
31.78164656185737
 20
101.9209428539199
 30
0.0
 11
17.7823465618574
 21
101.9209428539199
 31
0.0
  0
LINE
  5
187
330
70
100
AcDbEntity
  8
0
 62
    18
420
        0
370
    18
100
AcDbLine
 10
17.7823465618574
 20
101.9209428539199
 30
0.0
 11
17.7823465618574
 21
115.9202428539199
 31
0.0
  0
LINE
  5
188
330
70
100
AcDbEntity
  8
0
 62
    18
420
        0
370
    18
100
AcDbLine
 10
-1.26765343814279
 20
115.9202428539199
 30
0.0
 11
12.73164656185717
 21
115.9202428539199
 31
0.0
  0
LINE
  5
189
330
70
100
AcDbEntity
  8
0
 62
    18
420
        0
370
    18
100
AcDbLine
 10
12.73164656185717
 20
115.9202428539199
 30
0.0
 11
12.73164656185717
 21
101.9209428539199
 31
0.0
  0
LINE
  5
18A
330
70
100
AcDbEntity
  8
0
 62
    18
420
        0
370
    18
100
AcDbLine
 10
12.73164656185717
 20
101.9209428539199
 30
0.0
 11
-1.26765343814279
 21
101.9209428539199
 31
0.0
  0
LINE
  5
18B
330
70
100
AcDbEntity
  8
0
 62
    18
420
        0
370
    18
100
AcDbLine
 10
-1.26765343814279
 20
101.9209428539199
 30
0.0
 11
-1.26765343814279
 21
115.9202428539199
 31
0.0
  0
LINE
  5
18C
330
70
100
AcDbEntity
  8
0
 62
    18
420
        0
370
    18
100
AcDbLine
 10
246.3823465618571
 20
120.6827428539196
 30
0.0
 11
260.3813465618572
 21
120.6827428539196
 31
0.0
  0
LINE
  5
18D
330
70
100
AcDbEntity
  8
0
 62
    18
420
        0
370
    18
100
AcDbLine
 10
260.3813465618572
 20
120.6827428539196
 30
0.0
 11
260.3813465618572
 21
106.6834428539196
 31
0.0
  0
LINE
  5
18E
330
70
100
AcDbEntity
  8
0
 62
    18
420
        0
370
    18
100
AcDbLine
 10
260.3813465618572
 20
106.6834428539196
 30
0.0
 11
246.3823465618571
 21
106.6834428539196
 31
0.0
  0
LINE
  5
18F
330
70
100
AcDbEntity
  8
0
 62
    18
420
        0
370
    18
100
AcDbLine
 10
246.3823465618571
 20
106.6834428539196
 30
0.0
 11
246.3823465618571
 21
120.6827428539196
 31
0.0
  0
LINE
  5
190
330
70
100
AcDbEntity
  8
0
 62
    18
420
        0
370
    18
100
AcDbLine
 10
210.6633465618572
 20
134.9702428539201
 30
0.0
 11
210.6633465618572
 21
130.27124285392
 31
0.0
  0
LINE
  5
191
330
70
100
AcDbEntity
  8
0
 62
    18
420
        0
370
    18
100
AcDbLine
 10
210.6633465618572
 20
130.27124285392
 30
0.0
 11
209.1383465618573
 21
130.27124285392
 31
0.0
  0
LINE
  5
192
330
70
100
AcDbEntity
  8
0
 62
    18
420
        0
370
    18
100
AcDbLine
 10
209.1383465618573
 20
130.27124285392
 30
0.0
 11
209.1383465618573
 21
133.5013428539197
 31
0.0
  0
LINE
  5
193
330
70
100
AcDbEntity
  8
0
 62
    18
420
        0
370
    18
100
AcDbLine
 10
209.1383465618573
 20
133.5013428539197
 30
0.0
 11
202.3883465618573
 21
133.5013428539197
 31
0.0
  0
LINE
  5
194
330
70
100
AcDbEntity
  8
0
 62
    18
420
        0
370
    18
100
AcDbLine
 10
202.3883465618573
 20
133.5013428539197
 30
0.0
 11
202.3883465618573
 21
130.27124285392
 31
0.0
  0
LINE
  5
195
330
70
100
AcDbEntity
  8
0
 62
    18
420
        0
370
    18
100
AcDbLine
 10
202.3883465618573
 20
130.27124285392
 30
0.0
 11
201.5633465618571
 21
130.27124285392
 31
0.0
  0
LINE
  5
196
330
70
100
AcDbEntity
  8
0
 62
    18
420
        0
370
    18
100
AcDbLine
 10
201.5633465618571
 20
130.27124285392
 30
0.0
 11
201.5633465618571
 21
127.4712428539199
 31
0.0
  0
LINE
  5
197
330
70
100
AcDbEntity
  8
0
 62
    18
420
        0
370
    18
100
AcDbLine
 10
201.5633465618571
 20
127.4712428539199
 30
0.0
 11
202.3883465618573
 21
127.4712428539199
 31
0.0
  0
LINE
  5
198
330
70
100
AcDbEntity
  8
0
 62
    18
420
        0
370
    18
100
AcDbLine
 10
202.3883465618573
 20
127.4712428539199
 30
0.0
 11
202.3883465618573
 21
121.2010428539197
 31
0.0
  0
LINE
  5
199
330
70
100
AcDbEntity
  8
0
 62
    18
420
        0
370
    18
100
AcDbLine
 10
202.3883465618573
 20
121.2010428539197
 30
0.0
 11
204.1123465618573
 21
121.2010428539197
 31
0.0
  0
LINE
  5
19A
330
70
100
AcDbEntity
  8
0
 62
    18
420
        0
370
    18
100
AcDbLine
 10
204.1123465618573
 20
121.2010428539197
 30
0.0
 11
204.1123465618573
 21
120.00084285392
 31
0.0
  0
LINE
  5
19B
330
70
100
AcDbEntity
  8
0
 62
    18
420
        0
370
    18
100
AcDbLine
 10
204.1123465618573
 20
120.00084285392
 30
0.0
 11
207.4123465618571
 21
120.00084285392
 31
0.0
  0
LINE
  5
19C
330
70
100
AcDbEntity
  8
0
 62
    18
420
        0
370
    18
100
AcDbLine
 10
207.4123465618571
 20
120.00084285392
 30
0.0
 11
207.4123465618571
 21
121.2010428539197
 31
0.0
  0
LINE
  5
19D
330
70
100
AcDbEntity
  8
0
 62
    18
420
        0
370
    18
100
AcDbLine
 10
207.4123465618571
 20
121.2010428539197
 30
0.0
 11
209.1383465618573
 21
121.2010428539197
 31
0.0
  0
LINE
  5
19E
330
70
100
AcDbEntity
  8
0
 62
    18
420
        0
370
    18
100
AcDbLine
 10
209.1383465618573
 20
121.2010428539197
 30
0.0
 11
209.1383465618573
 21
125.6714428539195
 31
0.0
  0
LINE
  5
19F
330
70
100
AcDbEntity
  8
0
 62
    18
420
        0
370
    18
100
AcDbLine
 10
209.1383465618573
 20
125.6714428539195
 30
0.0
 11
210.6633465618572
 21
125.6714428539195
 31
0.0
  0
LINE
  5
1A0
330
70
100
AcDbEntity
  8
0
 62
    18
420
        0
370
    18
100
AcDbLine
 10
210.6633465618572
 20
125.6714428539195
 30
0.0
 11
210.6633465618572
 21
120.9710428539196
 31
0.0
  0
LINE
  5
1A1
330
70
100
AcDbEntity
  8
0
 62
    18
420
        0
370
    18
100
AcDbLine
 10
210.6633465618572
 20
120.9710428539196
 30
0.0
 11
224.663346561857
 21
120.9710428539196
 31
0.0
  0
LINE
  5
1A2
330
70
100
AcDbEntity
  8
0
 62
    18
420
        0
370
    18
100
AcDbLine
 10
224.663346561857
 20
120.9710428539196
 30
0.0
 11
224.663346561857
 21
125.6714428539195
 31
0.0
  0
LINE
  5
1A3
330
70
100
AcDbEntity
  8
0
 62
    18
420
        0
370
    18
100
AcDbLine
 10
224.663346561857
 20
125.6714428539195
 30
0.0
 11
226.1883465618574
 21
125.6714428539195
 31
0.0
  0
LINE
  5
1A4
330
70
100
AcDbEntity
  8
0
 62
    18
420
        0
370
    18
100
AcDbLine
 10
226.1883465618574
 20
125.6714428539195
 30
0.0
 11
226.1883465618574
 21
121.2010428539197
 31
0.0
  0
LINE
  5
1A5
330
70
100
AcDbEntity
  8
0
 62
    18
420
        0
370
    18
100
AcDbLine
 10
226.1883465618574
 20
121.2010428539197
 30
0.0
 11
227.9123465618575
 21
121.2010428539197
 31
0.0
  0
LINE
  5
1A6
330
70
100
AcDbEntity
  8
0
 62
    18
420
        0
370
    18
100
AcDbLine
 10
227.9123465618575
 20
121.2010428539197
 30
0.0
 11
227.9123465618575
 21
120.00084285392
 31
0.0
  0
LINE
  5
1A7
330
70
100
AcDbEntity
  8
0
 62
    18
420
        0
370
    18
100
AcDbLine
 10
227.9123465618575
 20
120.00084285392
 30
0.0
 11
231.2133465618571
 21
120.00084285392
 31
0.0
  0
LINE
  5
1A8
330
70
100
AcDbEntity
  8
0
 62
    18
420
        0
370
    18
100
AcDbLine
 10
231.2133465618571
 20
120.00084285392
 30
0.0
 11
231.2133465618571
 21
121.2010428539197
 31
0.0
  0
LINE
  5
1A9
330
70
100
AcDbEntity
  8
0
 62
    18
420
        0
370
    18
100
AcDbLine
 10
231.2133465618571
 20
121.2010428539197
 30
0.0
 11
232.9383465618576
 21
121.2010428539197
 31
0.0
  0
LINE
  5
1AA
330
70
100
AcDbEntity
  8
0
 62
    18
420
        0
370
    18
100
AcDbLine
 10
232.9383465618576
 20
121.2010428539197
 30
0.0
 11
232.9383465618576
 21
127.4712428539199
 31
0.0
  0
LINE
  5
1AB
330
70
100
AcDbEntity
  8
0
 62
    18
420
        0
370
    18
100
AcDbLine
 10
232.9383465618576
 20
127.4712428539199
 30
0.0
 11
233.7623465618573
 21
127.4712428539199
 31
0.0
  0
LINE
  5
1AC
330
70
100
AcDbEntity
  8
0
 62
    18
420
        0
370
    18
100
AcDbLine
 10
233.7623465618573
 20
127.4712428539199
 30
0.0
 11
233.7623465618573
 21
130.27124285392
 31
0.0
  0
LINE
  5
1AD
330
70
100
AcDbEntity
  8
0
 62
    18
420
        0
370
    18
100
AcDbLine
 10
233.7623465618573
 20
130.27124285392
 30
0.0
 11
232.9383465618576
 21
130.27124285392
 31
0.0
  0
LINE
  5
1AE
330
70
100
AcDbEntity
  8
0
 62
    18
420
        0
370
    18
100
AcDbLine
 10
232.9383465618576
 20
130.27124285392
 30
0.0
 11
232.9383465618576
 21
133.5013428539197
 31
0.0
  0
LINE
  5
1AF
330
70
100
AcDbEntity
  8
0
 62
    18
420
        0
370
    18
100
AcDbLine
 10
232.9383465618576
 20
133.5013428539197
 30
0.0
 11
226.1883465618574
 21
133.5013428539197
 31
0.0
  0
LINE
  5
1B0
330
70
100
AcDbEntity
  8
0
 62
    18
420
        0
370
    18
100
AcDbLine
 10
226.1883465618574
 20
133.5013428539197
 30
0.0
 11
226.1883465618574
 21
130.27124285392
 31
0.0
  0
LINE
  5
1B1
330
70
100
AcDbEntity
  8
0
 62
    18
420
        0
370
    18
100
AcDbLine
 10
226.1883465618574
 20
130.27124285392
 30
0.0
 11
224.663346561857
 21
130.27124285392
 31
0.0
  0
LINE
  5
1B2
330
70
100
AcDbEntity
  8
0
 62
    18
420
        0
370
    18
100
AcDbLine
 10
224.663346561857
 20
130.27124285392
 30
0.0
 11
224.663346561857
 21
134.9702428539201
 31
0.0
  0
LINE
  5
1B3
330
70
100
AcDbEntity
  8
0
 62
    18
420
        0
370
    18
100
AcDbLine
 10
224.663346561857
 20
134.9702428539201
 30
0.0
 11
210.6633465618572
 21
134.9702428539201
 31
0.0
  0
LINE
  5
1B4
330
70
100
AcDbEntity
  8
0
 62
    18
420
        0
370
    18
100
AcDbLine
 10
179.7073465618571
 20
134.9702428539201
 30
0.0
 11
193.7063465618572
 21
134.9702428539201
 31
0.0
  0
LINE
  5
1B5
330
70
100
AcDbEntity
  8
0
 62
    18
420
        0
370
    18
100
AcDbLine
 10
193.7063465618572
 20
134.9702428539201
 30
0.0
 11
193.7063465618572
 21
120.9710428539196
 31
0.0
  0
LINE
  5
1B6
330
70
100
AcDbEntity
  8
0
 62
    18
420
        0
370
    18
100
AcDbLine
 10
193.7063465618572
 20
120.9710428539196
 30
0.0
 11
179.7073465618571
 21
120.9710428539196
 31
0.0
  0
LINE
  5
1B7
330
70
100
AcDbEntity
  8
0
 62
    18
420
        0
370
    18
100
AcDbLine
 10
179.7073465618571
 20
120.9710428539196
 30
0.0
 11
179.7073465618571
 21
134.9702428539201
 31
0.0
  0
LINE
  5
1B8
330
70
100
AcDbEntity
  8
0
 62
    18
420
        0
370
    18
100
AcDbLine
 10
160.6573465618575
 20
134.9702428539201
 30
0.0
 11
174.656346561857
 21
134.9702428539201
 31
0.0
  0
LINE
  5
1B9
330
70
100
AcDbEntity
  8
0
 62
    18
420
        0
370
    18
100
AcDbLine
 10
174.656346561857
 20
134.9702428539201
 30
0.0
 11
174.656346561857
 21
120.9710428539196
 31
0.0
  0
LINE
  5
1BA
330
70
100
AcDbEntity
  8
0
 62
    18
420
        0
370
    18
100
AcDbLine
 10
174.656346561857
 20
120.9710428539196
 30
0.0
 11
160.6573465618575
 21
120.9710428539196
 31
0.0
  0
LINE
  5
1BB
330
70
100
AcDbEntity
  8
0
 62
    18
420
        0
370
    18
100
AcDbLine
 10
160.6573465618575
 20
120.9710428539196
 30
0.0
 11
160.6573465618575
 21
134.9702428539201
 31
0.0
  0
LINE
  5
1BC
330
70
100
AcDbEntity
  8
0
 62
    18
420
        0
370
    18
100
AcDbLine
 10
141.6073465618573
 20
134.9702428539201
 30
0.0
 11
155.6063465618574
 21
134.9702428539201
 31
0.0
  0
LINE
  5
1BD
330
70
100
AcDbEntity
  8
0
 62
    18
420
        0
370
    18
100
AcDbLine
 10
155.6063465618574
 20
134.9702428539201
 30
0.0
 11
155.6063465618574
 21
120.9710428539196
 31
0.0
  0
LINE
  5
1BE
330
70
100
AcDbEntity
  8
0
 62
    18
420
        0
370
    18
100
AcDbLine
 10
155.6063465618574
 20
120.9710428539196
 30
0.0
 11
141.6073465618573
 21
120.9710428539196
 31
0.0
  0
LINE
  5
1BF
330
70
100
AcDbEntity
  8
0
 62
    18
420
        0
370
    18
100
AcDbLine
 10
141.6073465618573
 20
120.9710428539196
 30
0.0
 11
141.6073465618573
 21
134.9702428539201
 31
0.0
  0
LINE
  5
1C0
330
70
100
AcDbEntity
  8
0
 62
    18
420
        0
370
    18
100
AcDbLine
 10
122.5573465618571
 20
134.9702428539201
 30
0.0
 11
136.5563465618573
 21
134.9702428539201
 31
0.0
  0
LINE
  5
1C1
330
70
100
AcDbEntity
  8
0
 62
    18
420
        0
370
    18
100
AcDbLine
 10
136.5563465618573
 20
134.9702428539201
 30
0.0
 11
136.5563465618573
 21
120.9710428539196
 31
0.0
  0
LINE
  5
1C2
330
70
100
AcDbEntity
  8
0
 62
    18
420
        0
370
    18
100
AcDbLine
 10
136.5563465618573
 20
120.9710428539196
 30
0.0
 11
122.5573465618571
 21
120.9710428539196
 31
0.0
  0
LINE
  5
1C3
330
70
100
AcDbEntity
  8
0
 62
    18
420
        0
370
    18
100
AcDbLine
 10
122.5573465618571
 20
120.9710428539196
 30
0.0
 11
122.5573465618571
 21
134.9702428539201
 31
0.0
  0
LINE
  5
1C4
330
70
100
AcDbEntity
  8
0
 62
    18
420
        0
370
    18
100
AcDbLine
 10
103.5073465618573
 20
134.9702428539201
 30
0.0
 11
117.5063465618571
 21
134.9702428539201
 31
0.0
  0
LINE
  5
1C5
330
70
100
AcDbEntity
  8
0
 62
    18
420
        0
370
    18
100
AcDbLine
 10
117.5063465618571
 20
134.9702428539201
 30
0.0
 11
117.5063465618571
 21
120.9710428539196
 31
0.0
  0
LINE
  5
1C6
330
70
100
AcDbEntity
  8
0
 62
    18
420
        0
370
    18
100
AcDbLine
 10
117.5063465618571
 20
120.9710428539196
 30
0.0
 11
103.5073465618573
 21
120.9710428539196
 31
0.0
  0
LINE
  5
1C7
330
70
100
AcDbEntity
  8
0
 62
    18
420
        0
370
    18
100
AcDbLine
 10
103.5073465618573
 20
120.9710428539196
 30
0.0
 11
103.5073465618573
 21
134.9702428539201
 31
0.0
  0
LINE
  5
1C8
330
70
100
AcDbEntity
  8
0
 62
    18
420
        0
370
    18
100
AcDbLine
 10
84.45734656185743
 20
134.9702428539201
 30
0.0
 11
98.45634656185723
 21
134.9702428539201
 31
0.0
  0
LINE
  5
1C9
330
70
100
AcDbEntity
  8
0
 62
    18
420
        0
370
    18
100
AcDbLine
 10
98.45634656185723
 20
134.9702428539201
 30
0.0
 11
98.45634656185723
 21
120.9710428539196
 31
0.0
  0
LINE
  5
1CA
330
70
100
AcDbEntity
  8
0
 62
    18
420
        0
370
    18
100
AcDbLine
 10
98.45634656185723
 20
120.9710428539196
 30
0.0
 11
84.45734656185743
 21
120.9710428539196
 31
0.0
  0
LINE
  5
1CB
330
70
100
AcDbEntity
  8
0
 62
    18
420
        0
370
    18
100
AcDbLine
 10
84.45734656185743
 20
120.9710428539196
 30
0.0
 11
84.45734656185743
 21
134.9702428539201
 31
0.0
  0
LINE
  5
1CC
330
70
100
AcDbEntity
  8
0
 62
    18
420
        0
370
    18
100
AcDbLine
 10
65.40734656185724
 20
134.9702428539201
 30
0.0
 11
79.40634656185735
 21
134.9702428539201
 31
0.0
  0
LINE
  5
1CD
330
70
100
AcDbEntity
  8
0
 62
    18
420
        0
370
    18
100
AcDbLine
 10
79.40634656185735
 20
134.9702428539201
 30
0.0
 11
79.40634656185735
 21
120.9710428539196
 31
0.0
  0
LINE
  5
1CE
330
70
100
AcDbEntity
  8
0
 62
    18
420
        0
370
    18
100
AcDbLine
 10
79.40634656185735
 20
120.9710428539196
 30
0.0
 11
65.40734656185724
 21
120.9710428539196
 31
0.0
  0
LINE
  5
1CF
330
70
100
AcDbEntity
  8
0
 62
    18
420
        0
370
    18
100
AcDbLine
 10
65.40734656185724
 20
120.9710428539196
 30
0.0
 11
65.40734656185724
 21
134.9702428539201
 31
0.0
  0
LINE
  5
1D0
330
70
100
AcDbEntity
  8
0
 62
    18
420
        0
370
    18
100
AcDbLine
 10
46.35734656185737
 20
134.9702428539201
 30
0.0
 11
60.35634656185715
 21
134.9702428539201
 31
0.0
  0
LINE
  5
1D1
330
70
100
AcDbEntity
  8
0
 62
    18
420
        0
370
    18
100
AcDbLine
 10
60.35634656185715
 20
134.9702428539201
 30
0.0
 11
60.35634656185715
 21
120.9710428539196
 31
0.0
  0
LINE
  5
1D2
330
70
100
AcDbEntity
  8
0
 62
    18
420
        0
370
    18
100
AcDbLine
 10
60.35634656185715
 20
120.9710428539196
 30
0.0
 11
46.35734656185737
 21
120.9710428539196
 31
0.0
  0
LINE
  5
1D3
330
70
100
AcDbEntity
  8
0
 62
    18
420
        0
370
    18
100
AcDbLine
 10
46.35734656185737
 20
120.9710428539196
 30
0.0
 11
46.35734656185737
 21
134.9702428539201
 31
0.0
  0
LINE
  5
1D4
330
70
100
AcDbEntity
  8
0
 62
    18
420
        0
370
    18
100
AcDbLine
 10
27.30734656185718
 20
134.9702428539201
 30
0.0
 11
41.30664656185714
 21
134.9702428539201
 31
0.0
  0
LINE
  5
1D5
330
70
100
AcDbEntity
  8
0
 62
    18
420
        0
370
    18
100
AcDbLine
 10
41.30664656185714
 20
134.9702428539201
 30
0.0
 11
41.30664656185714
 21
120.9710428539196
 31
0.0
  0
LINE
  5
1D6
330
70
100
AcDbEntity
  8
0
 62
    18
420
        0
370
    18
100
AcDbLine
 10
41.30664656185714
 20
120.9710428539196
 30
0.0
 11
27.30734656185718
 21
120.9710428539196
 31
0.0
  0
LINE
  5
1D7
330
70
100
AcDbEntity
  8
0
 62
    18
420
        0
370
    18
100
AcDbLine
 10
27.30734656185718
 20
120.9710428539196
 30
0.0
 11
27.30734656185718
 21
134.9702428539201
 31
0.0
  0
LINE
  5
1D8
330
70
100
AcDbEntity
  8
0
 62
    18
420
        0
370
    18
100
AcDbLine
 10
8.257346561857305
 20
134.9702428539201
 30
0.0
 11
22.25664656185727
 21
134.9702428539201
 31
0.0
  0
LINE
  5
1D9
330
70
100
AcDbEntity
  8
0
 62
    18
420
        0
370
    18
100
AcDbLine
 10
22.25664656185727
 20
134.9702428539201
 30
0.0
 11
22.25664656185727
 21
120.9710428539196
 31
0.0
  0
LINE
  5
1DA
330
70
100
AcDbEntity
  8
0
 62
    18
420
        0
370
    18
100
AcDbLine
 10
22.25664656185727
 20
120.9710428539196
 30
0.0
 11
8.257346561857305
 21
120.9710428539196
 31
0.0
  0
LINE
  5
1DB
330
70
100
AcDbEntity
  8
0
 62
    18
420
        0
370
    18
100
AcDbLine
 10
8.257346561857305
 20
120.9710428539196
 30
0.0
 11
8.257346561857305
 21
134.9702428539201
 31
0.0
  0
LINE
  5
1DC
330
70
100
AcDbEntity
  8
0
 62
    18
420
        0
370
    18
100
AcDbLine
 10
-10.79265343814288
 20
134.9702428539201
 30
0.0
 11
3.2066465618574
 21
134.9702428539201
 31
0.0
  0
LINE
  5
1DD
330
70
100
AcDbEntity
  8
0
 62
    18
420
        0
370
    18
100
AcDbLine
 10
3.2066465618574
 20
134.9702428539201
 30
0.0
 11
3.2066465618574
 21
120.9710428539196
 31
0.0
  0
LINE
  5
1DE
330
70
100
AcDbEntity
  8
0
 62
    18
420
        0
370
    18
100
AcDbLine
 10
3.2066465618574
 20
120.9710428539196
 30
0.0
 11
-10.79265343814288
 21
120.9710428539196
 31
0.0
  0
LINE
  5
1DF
330
70
100
AcDbEntity
  8
0
 62
    18
420
        0
370
    18
100
AcDbLine
 10
-10.79265343814288
 20
120.9710428539196
 30
0.0
 11
-10.79265343814288
 21
134.9702428539201
 31
0.0
  0
LINE
  5
1E0
330
70
100
AcDbEntity
  8
0
 62
    18
420
        0
370
    18
100
AcDbLine
 10
-36.98655343814292
 20
134.9702428539201
 30
0.0
 11
-22.98705343814262
 21
134.9702428539201
 31
0.0
  0
LINE
  5
1E1
330
70
100
AcDbEntity
  8
0
 62
    18
420
        0
370
    18
100
AcDbLine
 10
-22.98705343814262
 20
134.9702428539201
 30
0.0
 11
-22.98705343814262
 21
120.9710428539196
 31
0.0
  0
LINE
  5
1E2
330
70
100
AcDbEntity
  8
0
 62
    18
420
        0
370
    18
100
AcDbLine
 10
-22.98705343814262
 20
120.9710428539196
 30
0.0
 11
-36.98655343814292
 21
120.9710428539196
 31
0.0
  0
LINE
  5
1E3
330
70
100
AcDbEntity
  8
0
 62
    18
420
        0
370
    18
100
AcDbLine
 10
-36.98655343814292
 20
120.9710428539196
 30
0.0
 11
-36.98655343814292
 21
134.9702428539201
 31
0.0
  0
LINE
  5
1E4
330
70
100
AcDbEntity
  8
0
 62
    18
420
        0
370
    18
100
AcDbLine
 10
246.3823465618571
 20
139.7327428539198
 30
0.0
 11
260.3813465618572
 21
139.7327428539198
 31
0.0
  0
LINE
  5
1E5
330
70
100
AcDbEntity
  8
0
 62
    18
420
        0
370
    18
100
AcDbLine
 10
260.3813465618572
 20
139.7327428539198
 30
0.0
 11
260.3813465618572
 21
125.73354285392
 31
0.0
  0
LINE
  5
1E6
330
70
100
AcDbEntity
  8
0
 62
    18
420
        0
370
    18
100
AcDbLine
 10
260.3813465618572
 20
125.73354285392
 30
0.0
 11
246.3823465618571
 21
125.73354285392
 31
0.0
  0
LINE
  5
1E7
330
70
100
AcDbEntity
  8
0
 62
    18
420
        0
370
    18
100
AcDbLine
 10
246.3823465618571
 20
125.73354285392
 30
0.0
 11
246.3823465618571
 21
139.7327428539198
 31
0.0
  0
LINE
  5
1E8
330
70
100
AcDbEntity
  8
0
 62
    18
420
        0
370
    18
100
AcDbLine
 10
217.8073465618575
 20
154.0202428539196
 30
0.0
 11
231.8063465618576
 21
154.0202428539196
 31
0.0
  0
LINE
  5
1E9
330
70
100
AcDbEntity
  8
0
 62
    18
420
        0
370
    18
100
AcDbLine
 10
231.8063465618576
 20
154.0202428539196
 30
0.0
 11
231.8063465618576
 21
140.0210428539198
 31
0.0
  0
LINE
  5
1EA
330
70
100
AcDbEntity
  8
0
 62
    18
420
        0
370
    18
100
AcDbLine
 10
231.8063465618576
 20
140.0210428539198
 30
0.0
 11
217.8073465618575
 21
140.0210428539198
 31
0.0
  0
LINE
  5
1EB
330
70
100
AcDbEntity
  8
0
 62
    18
420
        0
370
    18
100
AcDbLine
 10
217.8073465618575
 20
140.0210428539198
 30
0.0
 11
217.8073465618575
 21
154.0202428539196
 31
0.0
  0
LINE
  5
1EC
330
70
100
AcDbEntity
  8
0
 62
    18
420
        0
370
    18
100
AcDbLine
 10
193.9953465618571
 20
154.0202428539196
 30
0.0
 11
207.9943465618572
 21
154.0202428539196
 31
0.0
  0
LINE
  5
1ED
330
70
100
AcDbEntity
  8
0
 62
    18
420
        0
370
    18
100
AcDbLine
 10
207.9943465618572
 20
154.0202428539196
 30
0.0
 11
207.9943465618572
 21
140.0210428539198
 31
0.0
  0
LINE
  5
1EE
330
70
100
AcDbEntity
  8
0
 62
    18
420
        0
370
    18
100
AcDbLine
 10
207.9943465618572
 20
140.0210428539198
 30
0.0
 11
193.9953465618571
 21
140.0210428539198
 31
0.0
  0
LINE
  5
1EF
330
70
100
AcDbEntity
  8
0
 62
    18
420
        0
370
    18
100
AcDbLine
 10
193.9953465618571
 20
140.0210428539198
 30
0.0
 11
193.9953465618571
 21
154.0202428539196
 31
0.0
  0
LINE
  5
1F0
330
70
100
AcDbEntity
  8
0
 62
    18
420
        0
370
    18
100
AcDbLine
 10
174.9453465618576
 20
154.0202428539196
 30
0.0
 11
188.944346561857
 21
154.0202428539196
 31
0.0
  0
LINE
  5
1F1
330
70
100
AcDbEntity
  8
0
 62
    18
420
        0
370
    18
100
AcDbLine
 10
188.944346561857
 20
154.0202428539196
 30
0.0
 11
188.944346561857
 21
140.0210428539198
 31
0.0
  0
LINE
  5
1F2
330
70
100
AcDbEntity
  8
0
 62
    18
420
        0
370
    18
100
AcDbLine
 10
188.944346561857
 20
140.0210428539198
 30
0.0
 11
174.9453465618576
 21
140.0210428539198
 31
0.0
  0
LINE
  5
1F3
330
70
100
AcDbEntity
  8
0
 62
    18
420
        0
370
    18
100
AcDbLine
 10
174.9453465618576
 20
140.0210428539198
 30
0.0
 11
174.9453465618576
 21
154.0202428539196
 31
0.0
  0
LINE
  5
1F4
330
70
100
AcDbEntity
  8
0
 62
    18
420
        0
370
    18
100
AcDbLine
 10
155.8953465618573
 20
154.0202428539196
 30
0.0
 11
169.8943465618574
 21
154.0202428539196
 31
0.0
  0
LINE
  5
1F5
330
70
100
AcDbEntity
  8
0
 62
    18
420
        0
370
    18
100
AcDbLine
 10
169.8943465618574
 20
154.0202428539196
 30
0.0
 11
169.8943465618574
 21
140.0210428539198
 31
0.0
  0
LINE
  5
1F6
330
70
100
AcDbEntity
  8
0
 62
    18
420
        0
370
    18
100
AcDbLine
 10
169.8943465618574
 20
140.0210428539198
 30
0.0
 11
155.8953465618573
 21
140.0210428539198
 31
0.0
  0
LINE
  5
1F7
330
70
100
AcDbEntity
  8
0
 62
    18
420
        0
370
    18
100
AcDbLine
 10
155.8953465618573
 20
140.0210428539198
 30
0.0
 11
155.8953465618573
 21
154.0202428539196
 31
0.0
  0
LINE
  5
1F8
330
70
100
AcDbEntity
  8
0
 62
    18
420
        0
370
    18
100
AcDbLine
 10
136.8453465618572
 20
154.0202428539196
 30
0.0
 11
150.8443465618573
 21
154.0202428539196
 31
0.0
  0
LINE
  5
1F9
330
70
100
AcDbEntity
  8
0
 62
    18
420
        0
370
    18
100
AcDbLine
 10
150.8443465618573
 20
154.0202428539196
 30
0.0
 11
150.8443465618573
 21
140.0210428539198
 31
0.0
  0
LINE
  5
1FA
330
70
100
AcDbEntity
  8
0
 62
    18
420
        0
370
    18
100
AcDbLine
 10
150.8443465618573
 20
140.0210428539198
 30
0.0
 11
136.8453465618572
 21
140.0210428539198
 31
0.0
  0
LINE
  5
1FB
330
70
100
AcDbEntity
  8
0
 62
    18
420
        0
370
    18
100
AcDbLine
 10
136.8453465618572
 20
140.0210428539198
 30
0.0
 11
136.8453465618572
 21
154.0202428539196
 31
0.0
  0
LINE
  5
1FC
330
70
100
AcDbEntity
  8
0
 62
    18
420
        0
370
    18
100
AcDbLine
 10
117.795346561857
 20
154.0202428539196
 30
0.0
 11
131.7943465618571
 21
154.0202428539196
 31
0.0
  0
LINE
  5
1FD
330
70
100
AcDbEntity
  8
0
 62
    18
420
        0
370
    18
100
AcDbLine
 10
131.7943465618571
 20
154.0202428539196
 30
0.0
 11
131.7943465618571
 21
140.0210428539198
 31
0.0
  0
LINE
  5
1FE
330
70
100
AcDbEntity
  8
0
 62
    18
420
        0
370
    18
100
AcDbLine
 10
131.7943465618571
 20
140.0210428539198
 30
0.0
 11
117.795346561857
 21
140.0210428539198
 31
0.0
  0
LINE
  5
1FF
330
70
100
AcDbEntity
  8
0
 62
    18
420
        0
370
    18
100
AcDbLine
 10
117.795346561857
 20
140.0210428539198
 30
0.0
 11
117.795346561857
 21
154.0202428539196
 31
0.0
  0
LINE
  5
200
330
70
100
AcDbEntity
  8
0
 62
    18
420
        0
370
    18
100
AcDbLine
 10
98.74534656185744
 20
154.0202428539196
 30
0.0
 11
112.7443465618575
 21
154.0202428539196
 31
0.0
  0
LINE
  5
201
330
70
100
AcDbEntity
  8
0
 62
    18
420
        0
370
    18
100
AcDbLine
 10
112.7443465618575
 20
154.0202428539196
 30
0.0
 11
112.7443465618575
 21
140.0210428539198
 31
0.0
  0
LINE
  5
202
330
70
100
AcDbEntity
  8
0
 62
    18
420
        0
370
    18
100
AcDbLine
 10
112.7443465618575
 20
140.0210428539198
 30
0.0
 11
98.74534656185744
 21
140.0210428539198
 31
0.0
  0
LINE
  5
203
330
70
100
AcDbEntity
  8
0
 62
    18
420
        0
370
    18
100
AcDbLine
 10
98.74534656185744
 20
140.0210428539198
 30
0.0
 11
98.74534656185744
 21
154.0202428539196
 31
0.0
  0
LINE
  5
204
330
70
100
AcDbEntity
  8
0
 62
    18
420
        0
370
    18
100
AcDbLine
 10
79.69534656185725
 20
154.0202428539196
 30
0.0
 11
93.69434656185736
 21
154.0202428539196
 31
0.0
  0
LINE
  5
205
330
70
100
AcDbEntity
  8
0
 62
    18
420
        0
370
    18
100
AcDbLine
 10
93.69434656185736
 20
154.0202428539196
 30
0.0
 11
93.69434656185736
 21
140.0210428539198
 31
0.0
  0
LINE
  5
206
330
70
100
AcDbEntity
  8
0
 62
    18
420
        0
370
    18
100
AcDbLine
 10
93.69434656185736
 20
140.0210428539198
 30
0.0
 11
79.69534656185725
 21
140.0210428539198
 31
0.0
  0
LINE
  5
207
330
70
100
AcDbEntity
  8
0
 62
    18
420
        0
370
    18
100
AcDbLine
 10
79.69534656185725
 20
140.0210428539198
 30
0.0
 11
79.69534656185725
 21
154.0202428539196
 31
0.0
  0
LINE
  5
208
330
70
100
AcDbEntity
  8
0
 62
    18
420
        0
370
    18
100
AcDbLine
 10
60.64534656185738
 20
154.0202428539196
 30
0.0
 11
74.64434656185716
 21
154.0202428539196
 31
0.0
  0
LINE
  5
209
330
70
100
AcDbEntity
  8
0
 62
    18
420
        0
370
    18
100
AcDbLine
 10
74.64434656185716
 20
154.0202428539196
 30
0.0
 11
74.64434656185716
 21
140.0210428539198
 31
0.0
  0
LINE
  5
20A
330
70
100
AcDbEntity
  8
0
 62
    18
420
        0
370
    18
100
AcDbLine
 10
74.64434656185716
 20
140.0210428539198
 30
0.0
 11
60.64534656185738
 21
140.0210428539198
 31
0.0
  0
LINE
  5
20B
330
70
100
AcDbEntity
  8
0
 62
    18
420
        0
370
    18
100
AcDbLine
 10
60.64534656185738
 20
140.0210428539198
 30
0.0
 11
60.64534656185738
 21
154.0202428539196
 31
0.0
  0
LINE
  5
20C
330
70
100
AcDbEntity
  8
0
 62
    18
420
        0
370
    18
100
AcDbLine
 10
41.59484656185731
 20
154.0202428539196
 30
0.0
 11
55.5943465618573
 21
154.0202428539196
 31
0.0
  0
LINE
  5
20D
330
70
100
AcDbEntity
  8
0
 62
    18
420
        0
370
    18
100
AcDbLine
 10
55.5943465618573
 20
154.0202428539196
 30
0.0
 11
55.5943465618573
 21
140.0210428539198
 31
0.0
  0
LINE
  5
20E
330
70
100
AcDbEntity
  8
0
 62
    18
420
        0
370
    18
100
AcDbLine
 10
55.5943465618573
 20
140.0210428539198
 30
0.0
 11
41.59484656185731
 21
140.0210428539198
 31
0.0
  0
LINE
  5
20F
330
70
100
AcDbEntity
  8
0
 62
    18
420
        0
370
    18
100
AcDbLine
 10
41.59484656185731
 20
140.0210428539198
 30
0.0
 11
41.59484656185731
 21
154.0202428539196
 31
0.0
  0
LINE
  5
210
330
70
100
AcDbEntity
  8
0
 62
    18
420
        0
370
    18
100
AcDbLine
 10
22.54484656185713
 20
154.0202428539196
 30
0.0
 11
36.54414656185774
 21
154.0202428539196
 31
0.0
  0
LINE
  5
211
330
70
100
AcDbEntity
  8
0
 62
    18
420
        0
370
    18
100
AcDbLine
 10
36.54414656185774
 20
154.0202428539196
 30
0.0
 11
36.54414656185774
 21
140.0210428539198
 31
0.0
  0
LINE
  5
212
330
70
100
AcDbEntity
  8
0
 62
    18
420
        0
370
    18
100
AcDbLine
 10
36.54414656185774
 20
140.0210428539198
 30
0.0
 11
22.54484656185713
 21
140.0210428539198
 31
0.0
  0
LINE
  5
213
330
70
100
AcDbEntity
  8
0
 62
    18
420
        0
370
    18
100
AcDbLine
 10
22.54484656185713
 20
140.0210428539198
 30
0.0
 11
22.54484656185713
 21
154.0202428539196
 31
0.0
  0
LINE
  5
214
330
70
100
AcDbEntity
  8
0
 62
    18
420
        0
370
    18
100
AcDbLine
 10
3.494846561857257
 20
154.0202428539196
 30
0.0
 11
17.49414656185722
 21
154.0202428539196
 31
0.0
  0
LINE
  5
215
330
70
100
AcDbEntity
  8
0
 62
    18
420
        0
370
    18
100
AcDbLine
 10
17.49414656185722
 20
154.0202428539196
 30
0.0
 11
17.49414656185722
 21
140.0210428539198
 31
0.0
  0
LINE
  5
216
330
70
100
AcDbEntity
  8
0
 62
    18
420
        0
370
    18
100
AcDbLine
 10
17.49414656185722
 20
140.0210428539198
 30
0.0
 11
3.494846561857257
 21
140.0210428539198
 31
0.0
  0
LINE
  5
217
330
70
100
AcDbEntity
  8
0
 62
    18
420
        0
370
    18
100
AcDbLine
 10
3.494846561857257
 20
140.0210428539198
 30
0.0
 11
3.494846561857257
 21
154.0202428539196
 31
0.0
  0
LINE
  5
218
330
70
100
AcDbEntity
  8
0
 62
    18
420
        0
370
    18
100
AcDbLine
 10
-15.55515343814261
 20
154.0202428539196
 30
0.0
 11
-1.555853438142647
 21
154.0202428539196
 31
0.0
  0
LINE
  5
219
330
70
100
AcDbEntity
  8
0
 62
    18
420
        0
370
    18
100
AcDbLine
 10
-1.555853438142647
 20
154.0202428539196
 30
0.0
 11
-1.555853438142647
 21
140.0210428539198
 31
0.0
  0
LINE
  5
21A
330
70
100
AcDbEntity
  8
0
 62
    18
420
        0
370
    18
100
AcDbLine
 10
-1.555853438142647
 20
140.0210428539198
 30
0.0
 11
-15.55515343814261
 21
140.0210428539198
 31
0.0
  0
LINE
  5
21B
330
70
100
AcDbEntity
  8
0
 62
    18
420
        0
370
    18
100
AcDbLine
 10
-15.55515343814261
 20
140.0210428539198
 30
0.0
 11
-15.55515343814261
 21
154.0202428539196
 31
0.0
  0
LINE
  5
21C
330
70
100
AcDbEntity
  8
0
 62
    18
420
        0
370
    18
100
AcDbLine
 10
-39.3677534381427
 20
154.0202428539196
 30
0.0
 11
-25.36825343814272
 21
154.0202428539196
 31
0.0
  0
LINE
  5
21D
330
70
100
AcDbEntity
  8
0
 62
    18
420
        0
370
    18
100
AcDbLine
 10
-25.36825343814272
 20
154.0202428539196
 30
0.0
 11
-25.36825343814272
 21
140.0210428539198
 31
0.0
  0
LINE
  5
21E
330
70
100
AcDbEntity
  8
0
 62
    18
420
        0
370
    18
100
AcDbLine
 10
-25.36825343814272
 20
140.0210428539198
 30
0.0
 11
-39.3677534381427
 21
140.0210428539198
 31
0.0
  0
LINE
  5
21F
330
70
100
AcDbEntity
  8
0
 62
    18
420
        0
370
    18
100
AcDbLine
 10
-39.3677534381427
 20
140.0210428539198
 30
0.0
 11
-39.3677534381427
 21
154.0202428539196
 31
0.0
  0
LINE
  5
220
330
70
100
AcDbEntity
  8
0
 62
    18
420
        0
370
    18
100
AcDbLine
 10
213.0453465618573
 20
173.0702428539198
 30
0.0
 11
213.0453465618573
 21
168.3712428539197
 31
0.0
  0
LINE
  5
221
330
70
100
AcDbEntity
  8
0
 62
    18
420
        0
370
    18
100
AcDbLine
 10
213.0453465618573
 20
168.3712428539197
 30
0.0
 11
211.5193465618571
 21
168.3712428539197
 31
0.0
  0
LINE
  5
222
330
70
100
AcDbEntity
  8
0
 62
    18
420
        0
370
    18
100
AcDbLine
 10
211.5193465618571
 20
168.3712428539197
 30
0.0
 11
211.5193465618571
 21
171.6013428539198
 31
0.0
  0
LINE
  5
223
330
70
100
AcDbEntity
  8
0
 62
    18
420
        0
370
    18
100
AcDbLine
 10
211.5193465618571
 20
171.6013428539198
 30
0.0
 11
204.769346561857
 21
171.6013428539198
 31
0.0
  0
LINE
  5
224
330
70
100
AcDbEntity
  8
0
 62
    18
420
        0
370
    18
100
AcDbLine
 10
204.769346561857
 20
171.6013428539198
 30
0.0
 11
204.769346561857
 21
168.3712428539197
 31
0.0
  0
LINE
  5
225
330
70
100
AcDbEntity
  8
0
 62
    18
420
        0
370
    18
100
AcDbLine
 10
204.769346561857
 20
168.3712428539197
 30
0.0
 11
203.9443465618576
 21
168.3712428539197
 31
0.0
  0
LINE
  5
226
330
70
100
AcDbEntity
  8
0
 62
    18
420
        0
370
    18
100
AcDbLine
 10
203.9443465618576
 20
168.3712428539197
 30
0.0
 11
203.9443465618576
 21
165.5712428539196
 31
0.0
  0
LINE
  5
227
330
70
100
AcDbEntity
  8
0
 62
    18
420
        0
370
    18
100
AcDbLine
 10
203.9443465618576
 20
165.5712428539196
 30
0.0
 11
204.769346561857
 21
165.5712428539196
 31
0.0
  0
LINE
  5
228
330
70
100
AcDbEntity
  8
0
 62
    18
420
        0
370
    18
100
AcDbLine
 10
204.769346561857
 20
165.5712428539196
 30
0.0
 11
204.769346561857
 21
159.3010428539198
 31
0.0
  0
LINE
  5
229
330
70
100
AcDbEntity
  8
0
 62
    18
420
        0
370
    18
100
AcDbLine
 10
204.769346561857
 20
159.3010428539198
 30
0.0
 11
206.4953465618573
 21
159.3010428539198
 31
0.0
  0
LINE
  5
22A
330
70
100
AcDbEntity
  8
0
 62
    18
420
        0
370
    18
100
AcDbLine
 10
206.4953465618573
 20
159.3010428539198
 30
0.0
 11
206.4953465618573
 21
158.1008428539197
 31
0.0
  0
LINE
  5
22B
330
70
100
AcDbEntity
  8
0
 62
    18
420
        0
370
    18
100
AcDbLine
 10
206.4953465618573
 20
158.1008428539197
 30
0.0
 11
209.795346561857
 21
158.1008428539197
 31
0.0
  0
LINE
  5
22C
330
70
100
AcDbEntity
  8
0
 62
    18
420
        0
370
    18
100
AcDbLine
 10
209.795346561857
 20
158.1008428539197
 30
0.0
 11
209.795346561857
 21
159.3010428539198
 31
0.0
  0
LINE
  5
22D
330
70
100
AcDbEntity
  8
0
 62
    18
420
        0
370
    18
100
AcDbLine
 10
209.795346561857
 20
159.3010428539198
 30
0.0
 11
211.5193465618571
 21
159.3010428539198
 31
0.0
  0
LINE
  5
22E
330
70
100
AcDbEntity
  8
0
 62
    18
420
        0
370
    18
100
AcDbLine
 10
211.5193465618571
 20
159.3010428539198
 30
0.0
 11
211.5193465618571
 21
163.7714428539202
 31
0.0
  0
LINE
  5
22F
330
70
100
AcDbEntity
  8
0
 62
    18
420
        0
370
    18
100
AcDbLine
 10
211.5193465618571
 20
163.7714428539202
 30
0.0
 11
213.0453465618573
 21
163.7714428539202
 31
0.0
  0
LINE
  5
230
330
70
100
AcDbEntity
  8
0
 62
    18
420
        0
370
    18
100
AcDbLine
 10
213.0453465618573
 20
163.7714428539202
 30
0.0
 11
213.0453465618573
 21
159.0710428539197
 31
0.0
  0
LINE
  5
231
330
70
100
AcDbEntity
  8
0
 62
    18
420
        0
370
    18
100
AcDbLine
 10
213.0453465618573
 20
159.0710428539197
 30
0.0
 11
227.0443465618574
 21
159.0710428539197
 31
0.0
  0
LINE
  5
232
330
70
100
AcDbEntity
  8
0
 62
    18
420
        0
370
    18
100
AcDbLine
 10
227.0443465618574
 20
159.0710428539197
 30
0.0
 11
227.0443465618574
 21
163.7714428539202
 31
0.0
  0
LINE
  5
233
330
70
100
AcDbEntity
  8
0
 62
    18
420
        0
370
    18
100
AcDbLine
 10
227.0443465618574
 20
163.7714428539202
 30
0.0
 11
228.5693465618572
 21
163.7714428539202
 31
0.0
  0
LINE
  5
234
330
70
100
AcDbEntity
  8
0
 62
    18
420
        0
370
    18
100
AcDbLine
 10
228.5693465618572
 20
163.7714428539202
 30
0.0
 11
228.5693465618572
 21
159.3010428539198
 31
0.0
  0
LINE
  5
235
330
70
100
AcDbEntity
  8
0
 62
    18
420
        0
370
    18
100
AcDbLine
 10
228.5693465618572
 20
159.3010428539198
 30
0.0
 11
230.2953465618574
 21
159.3010428539198
 31
0.0
  0
LINE
  5
236
330
70
100
AcDbEntity
  8
0
 62
    18
420
        0
370
    18
100
AcDbLine
 10
230.2953465618574
 20
159.3010428539198
 30
0.0
 11
230.2953465618574
 21
158.1008428539197
 31
0.0
  0
LINE
  5
237
330
70
100
AcDbEntity
  8
0
 62
    18
420
        0
370
    18
100
AcDbLine
 10
230.2953465618574
 20
158.1008428539197
 30
0.0
 11
233.5953465618572
 21
158.1008428539197
 31
0.0
  0
LINE
  5
238
330
70
100
AcDbEntity
  8
0
 62
    18
420
        0
370
    18
100
AcDbLine
 10
233.5953465618572
 20
158.1008428539197
 30
0.0
 11
233.5953465618572
 21
159.3010428539198
 31
0.0
  0
LINE
  5
239
330
70
100
AcDbEntity
  8
0
 62
    18
420
        0
370
    18
100
AcDbLine
 10
233.5953465618572
 20
159.3010428539198
 30
0.0
 11
235.3193465618573
 21
159.3010428539198
 31
0.0
  0
LINE
  5
23A
330
70
100
AcDbEntity
  8
0
 62
    18
420
        0
370
    18
100
AcDbLine
 10
235.3193465618573
 20
159.3010428539198
 30
0.0
 11
235.3193465618573
 21
165.5712428539196
 31
0.0
  0
LINE
  5
23B
330
70
100
AcDbEntity
  8
0
 62
    18
420
        0
370
    18
100
AcDbLine
 10
235.3193465618573
 20
165.5712428539196
 30
0.0
 11
236.1443465618574
 21
165.5712428539196
 31
0.0
  0
LINE
  5
23C
330
70
100
AcDbEntity
  8
0
 62
    18
420
        0
370
    18
100
AcDbLine
 10
236.1443465618574
 20
165.5712428539196
 30
0.0
 11
236.1443465618574
 21
168.3712428539197
 31
0.0
  0
LINE
  5
23D
330
70
100
AcDbEntity
  8
0
 62
    18
420
        0
370
    18
100
AcDbLine
 10
236.1443465618574
 20
168.3712428539197
 30
0.0
 11
235.3193465618573
 21
168.3712428539197
 31
0.0
  0
LINE
  5
23E
330
70
100
AcDbEntity
  8
0
 62
    18
420
        0
370
    18
100
AcDbLine
 10
235.3193465618573
 20
168.3712428539197
 30
0.0
 11
235.3193465618573
 21
171.6013428539198
 31
0.0
  0
LINE
  5
23F
330
70
100
AcDbEntity
  8
0
 62
    18
420
        0
370
    18
100
AcDbLine
 10
235.3193465618573
 20
171.6013428539198
 30
0.0
 11
228.5693465618572
 21
171.6013428539198
 31
0.0
  0
LINE
  5
240
330
70
100
AcDbEntity
  8
0
 62
    18
420
        0
370
    18
100
AcDbLine
 10
228.5693465618572
 20
171.6013428539198
 30
0.0
 11
228.5693465618572
 21
168.3712428539197
 31
0.0
  0
LINE
  5
241
330
70
100
AcDbEntity
  8
0
 62
    18
420
        0
370
    18
100
AcDbLine
 10
228.5693465618572
 20
168.3712428539197
 30
0.0
 11
227.0443465618574
 21
168.3712428539197
 31
0.0
  0
LINE
  5
242
330
70
100
AcDbEntity
  8
0
 62
    18
420
        0
370
    18
100
AcDbLine
 10
227.0443465618574
 20
168.3712428539197
 30
0.0
 11
227.0443465618574
 21
173.0702428539198
 31
0.0
  0
LINE
  5
243
330
70
100
AcDbEntity
  8
0
 62
    18
420
        0
370
    18
100
AcDbLine
 10
227.0443465618574
 20
173.0702428539198
 30
0.0
 11
213.0453465618573
 21
173.0702428539198
 31
0.0
  0
LINE
  5
244
330
70
100
AcDbEntity
  8
0
 62
    18
420
        0
370
    18
100
AcDbLine
 10
184.470346561857
 20
173.0702428539198
 30
0.0
 11
198.4693465618571
 21
173.0702428539198
 31
0.0
  0
LINE
  5
245
330
70
100
AcDbEntity
  8
0
 62
    18
420
        0
370
    18
100
AcDbLine
 10
198.4693465618571
 20
173.0702428539198
 30
0.0
 11
198.4693465618571
 21
159.0710428539197
 31
0.0
  0
LINE
  5
246
330
70
100
AcDbEntity
  8
0
 62
    18
420
        0
370
    18
100
AcDbLine
 10
198.4693465618571
 20
159.0710428539197
 30
0.0
 11
184.470346561857
 21
159.0710428539197
 31
0.0
  0
LINE
  5
247
330
70
100
AcDbEntity
  8
0
 62
    18
420
        0
370
    18
100
AcDbLine
 10
184.470346561857
 20
159.0710428539197
 30
0.0
 11
184.470346561857
 21
173.0702428539198
 31
0.0
  0
LINE
  5
248
330
70
100
AcDbEntity
  8
0
 62
    18
420
        0
370
    18
100
AcDbLine
 10
165.4203465618575
 20
173.0702428539198
 30
0.0
 11
179.4193465618575
 21
173.0702428539198
 31
0.0
  0
LINE
  5
249
330
70
100
AcDbEntity
  8
0
 62
    18
420
        0
370
    18
100
AcDbLine
 10
179.4193465618575
 20
173.0702428539198
 30
0.0
 11
179.4193465618575
 21
159.0710428539197
 31
0.0
  0
LINE
  5
24A
330
70
100
AcDbEntity
  8
0
 62
    18
420
        0
370
    18
100
AcDbLine
 10
179.4193465618575
 20
159.0710428539197
 30
0.0
 11
165.4203465618575
 21
159.0710428539197
 31
0.0
  0
LINE
  5
24B
330
70
100
AcDbEntity
  8
0
 62
    18
420
        0
370
    18
100
AcDbLine
 10
165.4203465618575
 20
159.0710428539197
 30
0.0
 11
165.4203465618575
 21
173.0702428539198
 31
0.0
  0
LINE
  5
24C
330
70
100
AcDbEntity
  8
0
 62
    18
420
        0
370
    18
100
AcDbLine
 10
146.3703465618572
 20
173.0702428539198
 30
0.0
 11
160.3693465618574
 21
173.0702428539198
 31
0.0
  0
LINE
  5
24D
330
70
100
AcDbEntity
  8
0
 62
    18
420
        0
370
    18
100
AcDbLine
 10
160.3693465618574
 20
173.0702428539198
 30
0.0
 11
160.3693465618574
 21
159.0710428539197
 31
0.0
  0
LINE
  5
24E
330
70
100
AcDbEntity
  8
0
 62
    18
420
        0
370
    18
100
AcDbLine
 10
160.3693465618574
 20
159.0710428539197
 30
0.0
 11
146.3703465618572
 21
159.0710428539197
 31
0.0
  0
LINE
  5
24F
330
70
100
AcDbEntity
  8
0
 62
    18
420
        0
370
    18
100
AcDbLine
 10
146.3703465618572
 20
159.0710428539197
 30
0.0
 11
146.3703465618572
 21
173.0702428539198
 31
0.0
  0
LINE
  5
250
330
70
100
AcDbEntity
  8
0
 62
    18
420
        0
370
    18
100
AcDbLine
 10
127.3203465618571
 20
173.0702428539198
 30
0.0
 11
141.3193465618572
 21
173.0702428539198
 31
0.0
  0
LINE
  5
251
330
70
100
AcDbEntity
  8
0
 62
    18
420
        0
370
    18
100
AcDbLine
 10
141.3193465618572
 20
173.0702428539198
 30
0.0
 11
141.3193465618572
 21
159.0710428539197
 31
0.0
  0
LINE
  5
252
330
70
100
AcDbEntity
  8
0
 62
    18
420
        0
370
    18
100
AcDbLine
 10
141.3193465618572
 20
159.0710428539197
 30
0.0
 11
127.3203465618571
 21
159.0710428539197
 31
0.0
  0
LINE
  5
253
330
70
100
AcDbEntity
  8
0
 62
    18
420
        0
370
    18
100
AcDbLine
 10
127.3203465618571
 20
159.0710428539197
 30
0.0
 11
127.3203465618571
 21
173.0702428539198
 31
0.0
  0
LINE
  5
254
330
70
100
AcDbEntity
  8
0
 62
    18
420
        0
370
    18
100
AcDbLine
 10
108.2703465618575
 20
173.0702428539198
 30
0.0
 11
122.269346561857
 21
173.0702428539198
 31
0.0
  0
LINE
  5
255
330
70
100
AcDbEntity
  8
0
 62
    18
420
        0
370
    18
100
AcDbLine
 10
122.269346561857
 20
173.0702428539198
 30
0.0
 11
122.269346561857
 21
159.0710428539197
 31
0.0
  0
LINE
  5
256
330
70
100
AcDbEntity
  8
0
 62
    18
420
        0
370
    18
100
AcDbLine
 10
122.269346561857
 20
159.0710428539197
 30
0.0
 11
108.2703465618575
 21
159.0710428539197
 31
0.0
  0
LINE
  5
257
330
70
100
AcDbEntity
  8
0
 62
    18
420
        0
370
    18
100
AcDbLine
 10
108.2703465618575
 20
159.0710428539197
 30
0.0
 11
108.2703465618575
 21
173.0702428539198
 31
0.0
  0
LINE
  5
258
330
70
100
AcDbEntity
  8
0
 62
    18
420
        0
370
    18
100
AcDbLine
 10
89.22034656185735
 20
173.0702428539198
 30
0.0
 11
103.2193465618574
 21
173.0702428539198
 31
0.0
  0
LINE
  5
259
330
70
100
AcDbEntity
  8
0
 62
    18
420
        0
370
    18
100
AcDbLine
 10
103.2193465618574
 20
173.0702428539198
 30
0.0
 11
103.2193465618574
 21
159.0710428539197
 31
0.0
  0
LINE
  5
25A
330
70
100
AcDbEntity
  8
0
 62
    18
420
        0
370
    18
100
AcDbLine
 10
103.2193465618574
 20
159.0710428539197
 30
0.0
 11
89.22034656185735
 21
159.0710428539197
 31
0.0
  0
LINE
  5
25B
330
70
100
AcDbEntity
  8
0
 62
    18
420
        0
370
    18
100
AcDbLine
 10
89.22034656185735
 20
159.0710428539197
 30
0.0
 11
89.22034656185735
 21
173.0702428539198
 31
0.0
  0
LINE
  5
25C
330
70
100
AcDbEntity
  8
0
 62
    18
420
        0
370
    18
100
AcDbLine
 10
70.16834656185735
 20
173.0702428539198
 30
0.0
 11
84.16934656185727
 21
173.0702428539198
 31
0.0
  0
LINE
  5
25D
330
70
100
AcDbEntity
  8
0
 62
    18
420
        0
370
    18
100
AcDbLine
 10
84.16934656185727
 20
173.0702428539198
 30
0.0
 11
84.16934656185727
 21
159.0710428539197
 31
0.0
  0
LINE
  5
25E
330
70
100
AcDbEntity
  8
0
 62
    18
420
        0
370
    18
100
AcDbLine
 10
84.16934656185727
 20
159.0710428539197
 30
0.0
 11
70.16834656185735
 21
159.0710428539197
 31
0.0
  0
LINE
  5
25F
330
70
100
AcDbEntity
  8
0
 62
    18
420
        0
370
    18
100
AcDbLine
 10
70.16834656185735
 20
159.0710428539197
 30
0.0
 11
70.16834656185735
 21
173.0702428539198
 31
0.0
  0
LINE
  5
260
330
70
100
AcDbEntity
  8
0
 62
    18
420
        0
370
    18
100
AcDbLine
 10
51.11834656185715
 20
173.0702428539198
 30
0.0
 11
65.1193465618574
 21
173.0702428539198
 31
0.0
  0
LINE
  5
261
330
70
100
AcDbEntity
  8
0
 62
    18
420
        0
370
    18
100
AcDbLine
 10
65.1193465618574
 20
173.0702428539198
 30
0.0
 11
65.1193465618574
 21
159.0710428539197
 31
0.0
  0
LINE
  5
262
330
70
100
AcDbEntity
  8
0
 62
    18
420
        0
370
    18
100
AcDbLine
 10
65.1193465618574
 20
159.0710428539197
 30
0.0
 11
51.11834656185715
 21
159.0710428539197
 31
0.0
  0
LINE
  5
263
330
70
100
AcDbEntity
  8
0
 62
    18
420
        0
370
    18
100
AcDbLine
 10
51.11834656185715
 20
159.0710428539197
 30
0.0
 11
51.11834656185715
 21
173.0702428539198
 31
0.0
  0
LINE
  5
264
330
70
100
AcDbEntity
  8
0
 62
    18
420
        0
370
    18
100
AcDbLine
 10
32.06984656185723
 20
173.0702428539198
 30
0.0
 11
46.06914656185718
 21
173.0702428539198
 31
0.0
  0
LINE
  5
265
330
70
100
AcDbEntity
  8
0
 62
    18
420
        0
370
    18
100
AcDbLine
 10
46.06914656185718
 20
173.0702428539198
 30
0.0
 11
46.06914656185718
 21
159.0710428539197
 31
0.0
  0
LINE
  5
266
330
70
100
AcDbEntity
  8
0
 62
    18
420
        0
370
    18
100
AcDbLine
 10
46.06914656185718
 20
159.0710428539197
 30
0.0
 11
32.06984656185723
 21
159.0710428539197
 31
0.0
  0
LINE
  5
267
330
70
100
AcDbEntity
  8
0
 62
    18
420
        0
370
    18
100
AcDbLine
 10
32.06984656185723
 20
159.0710428539197
 30
0.0
 11
32.06984656185723
 21
173.0702428539198
 31
0.0
  0
LINE
  5
268
330
70
100
AcDbEntity
  8
0
 62
    18
420
        0
370
    18
100
AcDbLine
 10
13.01984656185735
 20
173.0702428539198
 30
0.0
 11
27.01914656185732
 21
173.0702428539198
 31
0.0
  0
LINE
  5
269
330
70
100
AcDbEntity
  8
0
 62
    18
420
        0
370
    18
100
AcDbLine
 10
27.01914656185732
 20
173.0702428539198
 30
0.0
 11
27.01914656185732
 21
159.0710428539197
 31
0.0
  0
LINE
  5
26A
330
70
100
AcDbEntity
  8
0
 62
    18
420
        0
370
    18
100
AcDbLine
 10
27.01914656185732
 20
159.0710428539197
 30
0.0
 11
13.01984656185735
 21
159.0710428539197
 31
0.0
  0
LINE
  5
26B
330
70
100
AcDbEntity
  8
0
 62
    18
420
        0
370
    18
100
AcDbLine
 10
13.01984656185735
 20
159.0710428539197
 30
0.0
 11
13.01984656185735
 21
173.0702428539198
 31
0.0
  0
LINE
  5
26C
330
70
100
AcDbEntity
  8
0
 62
    18
420
        0
370
    18
100
AcDbLine
 10
-6.030153438142837
 20
173.0702428539198
 30
0.0
 11
7.969146561857127
 21
173.0702428539198
 31
0.0
  0
LINE
  5
26D
330
70
100
AcDbEntity
  8
0
 62
    18
420
        0
370
    18
100
AcDbLine
 10
7.969146561857127
 20
173.0702428539198
 30
0.0
 11
7.969146561857127
 21
159.0710428539197
 31
0.0
  0
LINE
  5
26E
330
70
100
AcDbEntity
  8
0
 62
    18
420
        0
370
    18
100
AcDbLine
 10
7.969146561857127
 20
159.0710428539197
 30
0.0
 11
-6.030153438142837
 21
159.0710428539197
 31
0.0
  0
LINE
  5
26F
330
70
100
AcDbEntity
  8
0
 62
    18
420
        0
370
    18
100
AcDbLine
 10
-6.030153438142837
 20
159.0710428539197
 30
0.0
 11
-6.030153438142837
 21
173.0702428539198
 31
0.0
  0
LINE
  5
270
330
70
100
AcDbEntity
  8
0
 62
    18
420
        0
370
    18
100
AcDbLine
 10
-25.08025343814288
 20
173.0702428539198
 30
0.0
 11
-11.08085343814274
 21
173.0702428539198
 31
0.0
  0
LINE
  5
271
330
70
100
AcDbEntity
  8
0
 62
    18
420
        0
370
    18
100
AcDbLine
 10
-11.08085343814274
 20
173.0702428539198
 30
0.0
 11
-11.08085343814274
 21
159.0710428539197
 31
0.0
  0
LINE
  5
272
330
70
100
AcDbEntity
  8
0
 62
    18
420
        0
370
    18
100
AcDbLine
 10
-11.08085343814274
 20
159.0710428539197
 30
0.0
 11
-25.08025343814288
 21
159.0710428539197
 31
0.0
  0
LINE
  5
273
330
70
100
AcDbEntity
  8
0
 62
    18
420
        0
370
    18
100
AcDbLine
 10
-25.08025343814288
 20
159.0710428539197
 30
0.0
 11
-25.08025343814288
 21
173.0702428539198
 31
0.0
  0
LINE
  5
274
330
70
100
AcDbEntity
  8
0
 62
    18
420
        0
370
    18
100
AcDbLine
 10
-44.13163343814267
 20
173.0702428539198
 30
0.0
 11
-30.13075343814277
 21
173.0702428539198
 31
0.0
  0
LINE
  5
275
330
70
100
AcDbEntity
  8
0
 62
    18
420
        0
370
    18
100
AcDbLine
 10
-30.13075343814277
 20
173.0702428539198
 30
0.0
 11
-30.13075343814277
 21
159.0710428539197
 31
0.0
  0
LINE
  5
276
330
70
100
AcDbEntity
  8
0
 62
    18
420
        0
370
    18
100
AcDbLine
 10
-30.13075343814277
 20
159.0710428539197
 30
0.0
 11
-44.13163343814267
 21
159.0710428539197
 31
0.0
  0
LINE
  5
277
330
70
100
AcDbEntity
  8
0
 62
    18
420
        0
370
    18
100
AcDbLine
 10
-44.13163343814267
 20
159.0710428539197
 30
0.0
 11
-44.13163343814267
 21
173.0702428539198
 31
0.0
  0
LINE
  5
278
330
70
100
AcDbEntity
  8
0
 62
    18
420
        0
370
    18
100
AcDbLine
 10
222.5703465618574
 20
196.8845428539198
 30
0.0
 11
236.5693465618575
 21
196.8845428539198
 31
0.0
  0
LINE
  5
279
330
70
100
AcDbEntity
  8
0
 62
    18
420
        0
370
    18
100
AcDbLine
 10
236.5693465618575
 20
196.8845428539198
 30
0.0
 11
236.5693465618575
 21
182.8835428539199
 31
0.0
  0
LINE
  5
27A
330
70
100
AcDbEntity
  8
0
 62
    18
420
        0
370
    18
100
AcDbLine
 10
236.5693465618575
 20
182.8835428539199
 30
0.0
 11
222.5703465618574
 21
182.8835428539199
 31
0.0
  0
LINE
  5
27B
330
70
100
AcDbEntity
  8
0
 62
    18
420
        0
370
    18
100
AcDbLine
 10
222.5703465618574
 20
182.8835428539199
 30
0.0
 11
222.5703465618574
 21
196.8845428539198
 31
0.0
  0
LINE
  5
27C
330
70
100
AcDbEntity
  8
0
 62
    18
420
        0
370
    18
100
AcDbLine
 10
203.5203465618572
 20
196.8845428539198
 30
0.0
 11
217.5193465618573
 21
196.8845428539198
 31
0.0
  0
LINE
  5
27D
330
70
100
AcDbEntity
  8
0
 62
    18
420
        0
370
    18
100
AcDbLine
 10
217.5193465618573
 20
196.8845428539198
 30
0.0
 11
217.5193465618573
 21
182.8835428539199
 31
0.0
  0
LINE
  5
27E
330
70
100
AcDbEntity
  8
0
 62
    18
420
        0
370
    18
100
AcDbLine
 10
217.5193465618573
 20
182.8835428539199
 30
0.0
 11
203.5203465618572
 21
182.8835428539199
 31
0.0
  0
LINE
  5
27F
330
70
100
AcDbEntity
  8
0
 62
    18
420
        0
370
    18
100
AcDbLine
 10
203.5203465618572
 20
182.8835428539199
 30
0.0
 11
203.5203465618572
 21
196.8845428539198
 31
0.0
  0
LINE
  5
280
330
70
100
AcDbEntity
  8
0
 62
    18
420
        0
370
    18
100
AcDbLine
 10
184.470346561857
 20
196.8845428539198
 30
0.0
 11
198.4693465618571
 21
196.8845428539198
 31
0.0
  0
LINE
  5
281
330
70
100
AcDbEntity
  8
0
 62
    18
420
        0
370
    18
100
AcDbLine
 10
198.4693465618571
 20
196.8845428539198
 30
0.0
 11
198.4693465618571
 21
182.8835428539199
 31
0.0
  0
LINE
  5
282
330
70
100
AcDbEntity
  8
0
 62
    18
420
        0
370
    18
100
AcDbLine
 10
198.4693465618571
 20
182.8835428539199
 30
0.0
 11
184.470346561857
 21
182.8835428539199
 31
0.0
  0
LINE
  5
283
330
70
100
AcDbEntity
  8
0
 62
    18
420
        0
370
    18
100
AcDbLine
 10
184.470346561857
 20
182.8835428539199
 30
0.0
 11
184.470346561857
 21
196.8845428539198
 31
0.0
  0
LINE
  5
284
330
70
100
AcDbEntity
  8
0
 62
    18
420
        0
370
    18
100
AcDbLine
 10
165.4203465618575
 20
196.8845428539198
 30
0.0
 11
179.4193465618575
 21
196.8845428539198
 31
0.0
  0
LINE
  5
285
330
70
100
AcDbEntity
  8
0
 62
    18
420
        0
370
    18
100
AcDbLine
 10
179.4193465618575
 20
196.8845428539198
 30
0.0
 11
179.4193465618575
 21
182.8835428539199
 31
0.0
  0
LINE
  5
286
330
70
100
AcDbEntity
  8
0
 62
    18
420
        0
370
    18
100
AcDbLine
 10
179.4193465618575
 20
182.8835428539199
 30
0.0
 11
165.4203465618575
 21
182.8835428539199
 31
0.0
  0
LINE
  5
287
330
70
100
AcDbEntity
  8
0
 62
    18
420
        0
370
    18
100
AcDbLine
 10
165.4203465618575
 20
182.8835428539199
 30
0.0
 11
165.4203465618575
 21
196.8845428539198
 31
0.0
  0
LINE
  5
288
330
70
100
AcDbEntity
  8
0
 62
    18
420
        0
370
    18
100
AcDbLine
 10
136.8453465618572
 20
196.8845428539198
 30
0.0
 11
150.8443465618573
 21
196.8845428539198
 31
0.0
  0
LINE
  5
289
330
70
100
AcDbEntity
  8
0
 62
    18
420
        0
370
    18
100
AcDbLine
 10
150.8443465618573
 20
196.8845428539198
 30
0.0
 11
150.8443465618573
 21
182.8835428539199
 31
0.0
  0
LINE
  5
28A
330
70
100
AcDbEntity
  8
0
 62
    18
420
        0
370
    18
100
AcDbLine
 10
150.8443465618573
 20
182.8835428539199
 30
0.0
 11
136.8453465618572
 21
182.8835428539199
 31
0.0
  0
LINE
  5
28B
330
70
100
AcDbEntity
  8
0
 62
    18
420
        0
370
    18
100
AcDbLine
 10
136.8453465618572
 20
182.8835428539199
 30
0.0
 11
136.8453465618572
 21
196.8845428539198
 31
0.0
  0
LINE
  5
28C
330
70
100
AcDbEntity
  8
0
 62
    18
420
        0
370
    18
100
AcDbLine
 10
117.795346561857
 20
196.8845428539198
 30
0.0
 11
131.7943465618571
 21
196.8845428539198
 31
0.0
  0
LINE
  5
28D
330
70
100
AcDbEntity
  8
0
 62
    18
420
        0
370
    18
100
AcDbLine
 10
131.7943465618571
 20
196.8845428539198
 30
0.0
 11
131.7943465618571
 21
182.8835428539199
 31
0.0
  0
LINE
  5
28E
330
70
100
AcDbEntity
  8
0
 62
    18
420
        0
370
    18
100
AcDbLine
 10
131.7943465618571
 20
182.8835428539199
 30
0.0
 11
117.795346561857
 21
182.8835428539199
 31
0.0
  0
LINE
  5
28F
330
70
100
AcDbEntity
  8
0
 62
    18
420
        0
370
    18
100
AcDbLine
 10
117.795346561857
 20
182.8835428539199
 30
0.0
 11
117.795346561857
 21
196.8845428539198
 31
0.0
  0
LINE
  5
290
330
70
100
AcDbEntity
  8
0
 62
    18
420
        0
370
    18
100
AcDbLine
 10
98.74534656185744
 20
196.8845428539198
 30
0.0
 11
112.7443465618575
 21
196.8845428539198
 31
0.0
  0
LINE
  5
291
330
70
100
AcDbEntity
  8
0
 62
    18
420
        0
370
    18
100
AcDbLine
 10
112.7443465618575
 20
196.8845428539198
 30
0.0
 11
112.7443465618575
 21
182.8835428539199
 31
0.0
  0
LINE
  5
292
330
70
100
AcDbEntity
  8
0
 62
    18
420
        0
370
    18
100
AcDbLine
 10
112.7443465618575
 20
182.8835428539199
 30
0.0
 11
98.74534656185744
 21
182.8835428539199
 31
0.0
  0
LINE
  5
293
330
70
100
AcDbEntity
  8
0
 62
    18
420
        0
370
    18
100
AcDbLine
 10
98.74534656185744
 20
182.8835428539199
 30
0.0
 11
98.74534656185744
 21
196.8845428539198
 31
0.0
  0
LINE
  5
294
330
70
100
AcDbEntity
  8
0
 62
    18
420
        0
370
    18
100
AcDbLine
 10
79.69534656185725
 20
196.8845428539198
 30
0.0
 11
93.69434656185736
 21
196.8845428539198
 31
0.0
  0
LINE
  5
295
330
70
100
AcDbEntity
  8
0
 62
    18
420
        0
370
    18
100
AcDbLine
 10
93.69434656185736
 20
196.8845428539198
 30
0.0
 11
93.69434656185736
 21
182.8835428539199
 31
0.0
  0
LINE
  5
296
330
70
100
AcDbEntity
  8
0
 62
    18
420
        0
370
    18
100
AcDbLine
 10
93.69434656185736
 20
182.8835428539199
 30
0.0
 11
79.69534656185725
 21
182.8835428539199
 31
0.0
  0
LINE
  5
297
330
70
100
AcDbEntity
  8
0
 62
    18
420
        0
370
    18
100
AcDbLine
 10
79.69534656185725
 20
182.8835428539199
 30
0.0
 11
79.69534656185725
 21
196.8845428539198
 31
0.0
  0
LINE
  5
298
330
70
100
AcDbEntity
  8
0
 62
    18
420
        0
370
    18
100
AcDbLine
 10
51.11834656185715
 20
196.8845428539198
 30
0.0
 11
65.1193465618574
 21
196.8845428539198
 31
0.0
  0
LINE
  5
299
330
70
100
AcDbEntity
  8
0
 62
    18
420
        0
370
    18
100
AcDbLine
 10
65.1193465618574
 20
196.8845428539198
 30
0.0
 11
65.1193465618574
 21
182.8835428539199
 31
0.0
  0
LINE
  5
29A
330
70
100
AcDbEntity
  8
0
 62
    18
420
        0
370
    18
100
AcDbLine
 10
65.1193465618574
 20
182.8835428539199
 30
0.0
 11
51.11834656185715
 21
182.8835428539199
 31
0.0
  0
LINE
  5
29B
330
70
100
AcDbEntity
  8
0
 62
    18
420
        0
370
    18
100
AcDbLine
 10
51.11834656185715
 20
182.8835428539199
 30
0.0
 11
51.11834656185715
 21
196.8845428539198
 31
0.0
  0
LINE
  5
29C
330
70
100
AcDbEntity
  8
0
 62
    18
420
        0
370
    18
100
AcDbLine
 10
32.06984656185723
 20
196.8845428539198
 30
0.0
 11
46.06914656185718
 21
196.8845428539198
 31
0.0
  0
LINE
  5
29D
330
70
100
AcDbEntity
  8
0
 62
    18
420
        0
370
    18
100
AcDbLine
 10
46.06914656185718
 20
196.8845428539198
 30
0.0
 11
46.06914656185718
 21
182.8835428539199
 31
0.0
  0
LINE
  5
29E
330
70
100
AcDbEntity
  8
0
 62
    18
420
        0
370
    18
100
AcDbLine
 10
46.06914656185718
 20
182.8835428539199
 30
0.0
 11
32.06984656185723
 21
182.8835428539199
 31
0.0
  0
LINE
  5
29F
330
70
100
AcDbEntity
  8
0
 62
    18
420
        0
370
    18
100
AcDbLine
 10
32.06984656185723
 20
182.8835428539199
 30
0.0
 11
32.06984656185723
 21
196.8845428539198
 31
0.0
  0
LINE
  5
2A0
330
70
100
AcDbEntity
  8
0
 62
    18
420
        0
370
    18
100
AcDbLine
 10
13.01984656185735
 20
196.8845428539198
 30
0.0
 11
27.01914656185732
 21
196.8845428539198
 31
0.0
  0
LINE
  5
2A1
330
70
100
AcDbEntity
  8
0
 62
    18
420
        0
370
    18
100
AcDbLine
 10
27.01914656185732
 20
196.8845428539198
 30
0.0
 11
27.01914656185732
 21
182.8835428539199
 31
0.0
  0
LINE
  5
2A2
330
70
100
AcDbEntity
  8
0
 62
    18
420
        0
370
    18
100
AcDbLine
 10
27.01914656185732
 20
182.8835428539199
 30
0.0
 11
13.01984656185735
 21
182.8835428539199
 31
0.0
  0
LINE
  5
2A3
330
70
100
AcDbEntity
  8
0
 62
    18
420
        0
370
    18
100
AcDbLine
 10
13.01984656185735
 20
182.8835428539199
 30
0.0
 11
13.01984656185735
 21
196.8845428539198
 31
0.0
  0
LINE
  5
2A4
330
70
100
AcDbEntity
  8
0
 62
    18
420
        0
370
    18
100
AcDbLine
 10
-6.030153438142837
 20
196.8845428539198
 30
0.0
 11
7.969146561857127
 21
196.8845428539198
 31
0.0
  0
LINE
  5
2A5
330
70
100
AcDbEntity
  8
0
 62
    18
420
        0
370
    18
100
AcDbLine
 10
7.969146561857127
 20
196.8845428539198
 30
0.0
 11
7.969146561857127
 21
182.8835428539199
 31
0.0
  0
LINE
  5
2A6
330
70
100
AcDbEntity
  8
0
 62
    18
420
        0
370
    18
100
AcDbLine
 10
7.969146561857127
 20
182.8835428539199
 30
0.0
 11
-6.030153438142837
 21
182.8835428539199
 31
0.0
  0
LINE
  5
2A7
330
70
100
AcDbEntity
  8
0
 62
    18
420
        0
370
    18
100
AcDbLine
 10
-6.030153438142837
 20
182.8835428539199
 30
0.0
 11
-6.030153438142837
 21
196.8845428539198
 31
0.0
  0
LINE
  5
2A8
330
70
100
AcDbEntity
  8
0
 62
    18
420
        0
370
    18
100
AcDbLine
 10
-44.13163343814267
 20
196.8845428539198
 30
0.0
 11
-30.13075343814277
 21
196.8845428539198
 31
0.0
  0
LINE
  5
2A9
330
70
100
AcDbEntity
  8
0
 62
    18
420
        0
370
    18
100
AcDbLine
 10
-30.13075343814277
 20
196.8845428539198
 30
0.0
 11
-30.13075343814277
 21
182.8835428539199
 31
0.0
  0
LINE
  5
2AA
330
70
100
AcDbEntity
  8
0
 62
    18
420
        0
370
    18
100
AcDbLine
 10
-30.13075343814277
 20
182.8835428539199
 30
0.0
 11
-44.13163343814267
 21
182.8835428539199
 31
0.0
  0
LINE
  5
2AB
330
70
100
AcDbEntity
  8
0
 62
    18
420
        0
370
    18
100
AcDbLine
 10
-44.13163343814267
 20
182.8835428539199
 30
0.0
 11
-44.13163343814267
 21
196.8845428539198
 31
0.0
  0
LINE
  5
2AC
330
70
100
AcDbEntity
  8
0
 62
    18
420
        0
370
    18
100
AcDbLine
 10
-57.52952299744472
 20
210.833487736522
 30
0.0
 11
-57.91950299744454
 21
210.633487736522
 31
0.0
  0
LINE
  5
2AD
330
70
100
AcDbEntity
  8
0
 62
    18
420
        0
370
    18
100
AcDbLine
 10
-57.91950299744454
 20
210.633487736522
 30
0.0
 11
-58.22956299744475
 21
210.3234877365223
 31
0.0
  0
LINE
  5
2AE
330
70
100
AcDbEntity
  8
0
 62
    18
420
        0
370
    18
100
AcDbLine
 10
-58.22956299744475
 20
210.3234877365223
 30
0.0
 11
-58.42938299744458
 21
209.9334877365219
 31
0.0
  0
LINE
  5
2AF
330
70
100
AcDbEntity
  8
0
 62
    18
420
        0
370
    18
100
AcDbLine
 10
-58.42938299744458
 20
209.9334877365219
 30
0.0
 11
-58.49828299744458
 21
209.501487736522
 31
0.0
  0
LINE
  5
2B0
330
70
100
AcDbEntity
  8
0
 62
    18
420
        0
370
    18
100
AcDbLine
 10
-58.49828299744458
 20
209.501487736522
 30
0.0
 11
-58.42938299744458
 21
209.0694877365221
 31
0.0
  0
LINE
  5
2B1
330
70
100
AcDbEntity
  8
0
 62
    18
420
        0
370
    18
100
AcDbLine
 10
-58.42938299744458
 20
209.0694877365221
 30
0.0
 11
-58.22956299744475
 21
208.6784877365221
 31
0.0
  0
LINE
  5
2B2
330
70
100
AcDbEntity
  8
0
 62
    18
420
        0
370
    18
100
AcDbLine
 10
-58.22956299744475
 20
208.6784877365221
 30
0.0
 11
-57.91950299744454
 21
208.3694877365221
 31
0.0
  0
LINE
  5
2B3
330
70
100
AcDbEntity
  8
0
 62
    18
420
        0
370
    18
100
AcDbLine
 10
-57.91950299744454
 20
208.3694877365221
 30
0.0
 11
-57.52952299744472
 21
208.1694877365221
 31
0.0
  0
LINE
  5
2B4
330
70
100
AcDbEntity
  8
0
 62
    18
420
        0
370
    18
100
AcDbLine
 10
-57.52952299744472
 20
208.1694877365221
 30
0.0
 11
-57.09819299744476
 21
208.101487736522
 31
0.0
  0
LINE
  5
2B5
330
70
100
AcDbEntity
  8
0
 62
    18
420
        0
370
    18
100
AcDbLine
 10
-57.09819299744476
 20
208.101487736522
 30
0.0
 11
-56.66549299744463
 21
208.1694877365221
 31
0.0
  0
LINE
  5
2B6
330
70
100
AcDbEntity
  8
0
 62
    18
420
        0
370
    18
100
AcDbLine
 10
-56.66549299744463
 20
208.1694877365221
 30
0.0
 11
-56.27550299744473
 21
208.3694877365221
 31
0.0
  0
LINE
  5
2B7
330
70
100
AcDbEntity
  8
0
 62
    18
420
        0
370
    18
100
AcDbLine
 10
-56.27550299744473
 20
208.3694877365221
 30
0.0
 11
-55.96544299744452
 21
208.6784877365221
 31
0.0
  0
LINE
  5
2B8
330
70
100
AcDbEntity
  8
0
 62
    18
420
        0
370
    18
100
AcDbLine
 10
-55.96544299744452
 20
208.6784877365221
 30
0.0
 11
-55.76563299744477
 21
209.0694877365221
 31
0.0
  0
LINE
  5
2B9
330
70
100
AcDbEntity
  8
0
 62
    18
420
        0
370
    18
100
AcDbLine
 10
-55.76563299744477
 20
209.0694877365221
 30
0.0
 11
-55.69811299744471
 21
209.501487736522
 31
0.0
  0
LINE
  5
2BA
330
70
100
AcDbEntity
  8
0
 62
    18
420
        0
370
    18
100
AcDbLine
 10
-55.69811299744471
 20
209.501487736522
 30
0.0
 11
-55.76563299744477
 21
209.9334877365219
 31
0.0
  0
LINE
  5
2BB
330
70
100
AcDbEntity
  8
0
 62
    18
420
        0
370
    18
100
AcDbLine
 10
-55.76563299744477
 20
209.9334877365219
 30
0.0
 11
-55.96544299744452
 21
210.3234877365223
 31
0.0
  0
LINE
  5
2BC
330
70
100
AcDbEntity
  8
0
 62
    18
420
        0
370
    18
100
AcDbLine
 10
-55.96544299744452
 20
210.3234877365223
 30
0.0
 11
-56.27550299744473
 21
210.633487736522
 31
0.0
  0
LINE
  5
2BD
330
70
100
AcDbEntity
  8
0
 62
    18
420
        0
370
    18
100
AcDbLine
 10
-56.27550299744473
 20
210.633487736522
 30
0.0
 11
-56.66549299744463
 21
210.833487736522
 31
0.0
  0
LINE
  5
2BE
330
70
100
AcDbEntity
  8
0
 62
    18
420
        0
370
    18
100
AcDbLine
 10
-56.66549299744463
 20
210.833487736522
 30
0.0
 11
-57.09819299744476
 21
210.900487736522
 31
0.0
  0
LINE
  5
2BF
330
70
100
AcDbEntity
  8
0
 62
    18
420
        0
370
    18
100
AcDbLine
 10
-57.09819299744476
 20
210.900487736522
 30
0.0
 11
-57.52952299744472
 21
210.833487736522
 31
0.0
  0
LINE
  5
2C0
330
70
100
AcDbEntity
  8
0
 62
    18
420
        0
370
    18
100
AcDbLine
 10
152.9235043025555
 20
210.833487736522
 30
0.0
 11
152.5315043025554
 21
210.633487736522
 31
0.0
  0
LINE
  5
2C1
330
70
100
AcDbEntity
  8
0
 62
    18
420
        0
370
    18
100
AcDbLine
 10
152.5315043025554
 20
210.633487736522
 30
0.0
 11
152.2225043025555
 21
210.3234877365223
 31
0.0
  0
LINE
  5
2C2
330
70
100
AcDbEntity
  8
0
 62
    18
420
        0
370
    18
100
AcDbLine
 10
152.2225043025555
 20
210.3234877365223
 30
0.0
 11
152.0245043025556
 21
209.9334877365219
 31
0.0
  0
LINE
  5
2C3
330
70
100
AcDbEntity
  8
0
 62
    18
420
        0
370
    18
100
AcDbLine
 10
152.0245043025556
 20
209.9334877365219
 30
0.0
 11
151.9545043025553
 21
209.501487736522
 31
0.0
  0
LINE
  5
2C4
330
70
100
AcDbEntity
  8
0
 62
    18
420
        0
370
    18
100
AcDbLine
 10
151.9545043025553
 20
209.501487736522
 30
0.0
 11
152.0245043025556
 21
209.0694877365221
 31
0.0
  0
LINE
  5
2C5
330
70
100
AcDbEntity
  8
0
 62
    18
420
        0
370
    18
100
AcDbLine
 10
152.0245043025556
 20
209.0694877365221
 30
0.0
 11
152.2225043025555
 21
208.6784877365221
 31
0.0
  0
LINE
  5
2C6
330
70
100
AcDbEntity
  8
0
 62
    18
420
        0
370
    18
100
AcDbLine
 10
152.2225043025555
 20
208.6784877365221
 30
0.0
 11
152.5315043025554
 21
208.3694877365221
 31
0.0
  0
LINE
  5
2C7
330
70
100
AcDbEntity
  8
0
 62
    18
420
        0
370
    18
100
AcDbLine
 10
152.5315043025554
 20
208.3694877365221
 30
0.0
 11
152.9235043025555
 21
208.1694877365221
 31
0.0
  0
LINE
  5
2C8
330
70
100
AcDbEntity
  8
0
 62
    18
420
        0
370
    18
100
AcDbLine
 10
152.9235043025555
 20
208.1694877365221
 30
0.0
 11
153.3545043025554
 21
208.101487736522
 31
0.0
  0
LINE
  5
2C9
330
70
100
AcDbEntity
  8
0
 62
    18
420
        0
370
    18
100
AcDbLine
 10
153.3545043025554
 20
208.101487736522
 30
0.0
 11
153.7885043025558
 21
208.1694877365221
 31
0.0
  0
LINE
  5
2CA
330
70
100
AcDbEntity
  8
0
 62
    18
420
        0
370
    18
100
AcDbLine
 10
153.7885043025558
 20
208.1694877365221
 30
0.0
 11
154.1785043025558
 21
208.3694877365221
 31
0.0
  0
LINE
  5
2CB
330
70
100
AcDbEntity
  8
0
 62
    18
420
        0
370
    18
100
AcDbLine
 10
154.1785043025558
 20
208.3694877365221
 30
0.0
 11
154.4885043025555
 21
208.6784877365221
 31
0.0
  0
LINE
  5
2CC
330
70
100
AcDbEntity
  8
0
 62
    18
420
        0
370
    18
100
AcDbLine
 10
154.4885043025555
 20
208.6784877365221
 30
0.0
 11
154.6875043025558
 21
209.0694877365221
 31
0.0
  0
LINE
  5
2CD
330
70
100
AcDbEntity
  8
0
 62
    18
420
        0
370
    18
100
AcDbLine
 10
154.6875043025558
 20
209.0694877365221
 30
0.0
 11
154.7545043025554
 21
209.501487736522
 31
0.0
  0
LINE
  5
2CE
330
70
100
AcDbEntity
  8
0
 62
    18
420
        0
370
    18
100
AcDbLine
 10
154.7545043025554
 20
209.501487736522
 30
0.0
 11
154.6875043025558
 21
209.9334877365219
 31
0.0
  0
LINE
  5
2CF
330
70
100
AcDbEntity
  8
0
 62
    18
420
        0
370
    18
100
AcDbLine
 10
154.6875043025558
 20
209.9334877365219
 30
0.0
 11
154.4885043025555
 21
210.3234877365223
 31
0.0
  0
LINE
  5
2D0
330
70
100
AcDbEntity
  8
0
 62
    18
420
        0
370
    18
100
AcDbLine
 10
154.4885043025555
 20
210.3234877365223
 30
0.0
 11
154.1785043025558
 21
210.633487736522
 31
0.0
  0
LINE
  5
2D1
330
70
100
AcDbEntity
  8
0
 62
    18
420
        0
370
    18
100
AcDbLine
 10
154.1785043025558
 20
210.633487736522
 30
0.0
 11
153.7885043025558
 21
210.833487736522
 31
0.0
  0
LINE
  5
2D2
330
70
100
AcDbEntity
  8
0
 62
    18
420
        0
370
    18
100
AcDbLine
 10
153.7885043025558
 20
210.833487736522
 30
0.0
 11
153.3545043025554
 21
210.900487736522
 31
0.0
  0
LINE
  5
2D3
330
70
100
AcDbEntity
  8
0
 62
    18
420
        0
370
    18
100
AcDbLine
 10
153.3545043025554
 20
210.900487736522
 30
0.0
 11
152.9235043025555
 21
210.833487736522
 31
0.0
  0
LINE
  5
2D4
330
70
100
AcDbEntity
  8
0
 62
    18
420
        0
370
    18
100
AcDbLine
 10
47.73450430255516
 20
210.833487736522
 30
0.0
 11
47.34350430255511
 21
210.633487736522
 31
0.0
  0
LINE
  5
2D5
330
70
100
AcDbEntity
  8
0
 62
    18
420
        0
370
    18
100
AcDbLine
 10
47.34350430255511
 20
210.633487736522
 30
0.0
 11
47.03450430255514
 21
210.3234877365223
 31
0.0
  0
LINE
  5
2D6
330
70
100
AcDbEntity
  8
0
 62
    18
420
        0
370
    18
100
AcDbLine
 10
47.03450430255514
 20
210.3234877365223
 30
0.0
 11
46.83650430255494
 21
209.9334877365219
 31
0.0
  0
LINE
  5
2D7
330
70
100
AcDbEntity
  8
0
 62
    18
420
        0
370
    18
100
AcDbLine
 10
46.83650430255494
 20
209.9334877365219
 30
0.0
 11
46.7675043025551
 21
209.501487736522
 31
0.0
  0
LINE
  5
2D8
330
70
100
AcDbEntity
  8
0
 62
    18
420
        0
370
    18
100
AcDbLine
 10
46.7675043025551
 20
209.501487736522
 30
0.0
 11
46.83650430255494
 21
209.0694877365221
 31
0.0
  0
LINE
  5
2D9
330
70
100
AcDbEntity
  8
0
 62
    18
420
        0
370
    18
100
AcDbLine
 10
46.83650430255494
 20
209.0694877365221
 30
0.0
 11
47.03450430255514
 21
208.6784877365221
 31
0.0
  0
LINE
  5
2DA
330
70
100
AcDbEntity
  8
0
 62
    18
420
        0
370
    18
100
AcDbLine
 10
47.03450430255514
 20
208.6784877365221
 30
0.0
 11
47.34350430255511
 21
208.3694877365221
 31
0.0
  0
LINE
  5
2DB
330
70
100
AcDbEntity
  8
0
 62
    18
420
        0
370
    18
100
AcDbLine
 10
47.34350430255511
 20
208.3694877365221
 30
0.0
 11
47.73450430255516
 21
208.1694877365221
 31
0.0
  0
LINE
  5
2DC
330
70
100
AcDbEntity
  8
0
 62
    18
420
        0
370
    18
100
AcDbLine
 10
47.73450430255516
 20
208.1694877365221
 30
0.0
 11
48.16750430255515
 21
208.101487736522
 31
0.0
  0
LINE
  5
2DD
330
70
100
AcDbEntity
  8
0
 62
    18
420
        0
370
    18
100
AcDbLine
 10
48.16750430255515
 20
208.101487736522
 30
0.0
 11
48.60050430255514
 21
208.1694877365221
 31
0.0
  0
LINE
  5
2DE
330
70
100
AcDbEntity
  8
0
 62
    18
420
        0
370
    18
100
AcDbLine
 10
48.60050430255514
 20
208.1694877365221
 30
0.0
 11
48.98950430255506
 21
208.3694877365221
 31
0.0
  0
LINE
  5
2DF
330
70
100
AcDbEntity
  8
0
 62
    18
420
        0
370
    18
100
AcDbLine
 10
48.98950430255506
 20
208.3694877365221
 30
0.0
 11
49.29950430255511
 21
208.6784877365221
 31
0.0
  0
LINE
  5
2E0
330
70
100
AcDbEntity
  8
0
 62
    18
420
        0
370
    18
100
AcDbLine
 10
49.29950430255511
 20
208.6784877365221
 30
0.0
 11
49.49850430255504
 21
209.0694877365221
 31
0.0
  0
LINE
  5
2E1
330
70
100
AcDbEntity
  8
0
 62
    18
420
        0
370
    18
100
AcDbLine
 10
49.49850430255504
 20
209.0694877365221
 30
0.0
 11
49.56750430255488
 21
209.501487736522
 31
0.0
  0
LINE
  5
2E2
330
70
100
AcDbEntity
  8
0
 62
    18
420
        0
370
    18
100
AcDbLine
 10
49.56750430255488
 20
209.501487736522
 30
0.0
 11
49.49850430255504
 21
209.9334877365219
 31
0.0
  0
LINE
  5
2E3
330
70
100
AcDbEntity
  8
0
 62
    18
420
        0
370
    18
100
AcDbLine
 10
49.49850430255504
 20
209.9334877365219
 30
0.0
 11
49.29950430255511
 21
210.3234877365223
 31
0.0
  0
LINE
  5
2E4
330
70
100
AcDbEntity
  8
0
 62
    18
420
        0
370
    18
100
AcDbLine
 10
49.29950430255511
 20
210.3234877365223
 30
0.0
 11
48.98950430255506
 21
210.633487736522
 31
0.0
  0
LINE
  5
2E5
330
70
100
AcDbEntity
  8
0
 62
    18
420
        0
370
    18
100
AcDbLine
 10
48.98950430255506
 20
210.633487736522
 30
0.0
 11
48.60050430255514
 21
210.833487736522
 31
0.0
  0
LINE
  5
2E6
330
70
100
AcDbEntity
  8
0
 62
    18
420
        0
370
    18
100
AcDbLine
 10
48.60050430255514
 20
210.833487736522
 30
0.0
 11
48.16750430255515
 21
210.900487736522
 31
0.0
  0
LINE
  5
2E7
330
70
100
AcDbEntity
  8
0
 62
    18
420
        0
370
    18
100
AcDbLine
 10
48.16750430255515
 20
210.900487736522
 30
0.0
 11
47.73450430255516
 21
210.833487736522
 31
0.0
  0
SPLINE
  5
2E8
330
70
100
AcDbEntity
  8
0
 62
    18
420
        0
370
    18
100
AcDbSpline
210
0.0
220
0.0
230
1.0
 70
     8
 71
     3
 72
    20
 73
    16
 74
     0
 42
0.0000000001
 43
0.0000000001
 40
0.0
 40
0.0
 40
0.0
 40
0.0
 40
1.0
 40
1.0
 40
1.0
 40
2.0
 40
2.0
 40
2.0
 40
3.0
 40
3.0
 40
3.0
 40
4.0
 40
4.0
 40
4.0
 40
5.0
 40
5.0
 40
5.0
 40
5.0
 10
276.138104221161
 20
68.02392964723357
 30
0.0
 10
276.138104221161
 20
68.02392964723357
 30
0.0
 10
276.138104221161
 20
141.0741616120869
 30
0.0
 10
276.138104221161
 20
141.0741616120869
 30
0.0
 10
276.138104221161
 20
141.0741616120869
 30
0.0
 10
246.3419793252003
 20
141.0741616120869
 30
0.0
 10
246.3419793252003
 20
141.0741616120869
 30
0.0
 10
241.8990718221607
 20
141.0741616120869
 30
0.0
 10
238.2973836625438
 20
144.6758497717037
 30
0.0
 10
238.2973836625438
 20
149.1187572747437
 30
0.0
 10
238.2973836625438
 20
149.1187572747437
 30
0.0
 10
238.2973836625438
 20
212.0004877365221
 30
0.0
 10
238.2973836625438
 20
212.0004877365221
 30
0.0
 10
238.2973836625438
 20
212.0004877365221
 30
0.0
 10
-59.59657839744467
 20
212.0004877365221
 30
0.0
 10
-59.59657839744467
 20
212.0004877365221
 30
0.0
  0
ENDSEC
  0
SECTION
  2
OBJECTS
  0
DICTIONARY
  5
C
330
0
100
AcDbDictionary
281
     1
  3
ACAD_COLOR
350
63
  3
ACAD_DETAILVIEWSTYLE
350
6A
  3
ACAD_GROUP
350
D
  3
ACAD_LAYOUT
350
62
  3
ACAD_MATERIAL
350
10
  3
ACAD_MLEADERSTYLE
350
66
  3
ACAD_MLINESTYLE
350
5F
  3
ACAD_PLOTSETTINGS
350
61
  3
ACAD_PLOTSTYLENAME
350
E
  3
ACAD_SCALELIST
350
42
  3
ACAD_SECTIONVIEWSTYLE
350
68
  3
ACAD_TABLESTYLE
350
64
  3
ACAD_VISUALSTYLE
350
29
  3
ACDB_RECOMPOSE_DATA
350
2F1
  3
AcDbVariableDictionary
350
2E9
  0
DICTIONARY
  5
63
102
{ACAD_REACTORS
330
C
102
}
330
C
100
AcDbDictionary
281
     1
  0
DICTIONARY
  5
6A
102
{ACAD_REACTORS
330
C
102
}
330
C
100
AcDbDictionary
281
     1
  3
Imperial24
350
6B
  0
DICTIONARY
  5
D
102
{ACAD_REACTORS
330
C
102
}
330
C
100
AcDbDictionary
281
     1
  0
DICTIONARY
  5
62
102
{ACAD_REACTORS
330
C
102
}
330
C
100
AcDbDictionary
281
     1
  3
Layout1
350
6F
  3
Layout2
350
77
  3
Model
350
73
  0
DICTIONARY
  5
10
102
{ACAD_REACTORS
330
C
102
}
330
C
100
AcDbDictionary
281
     1
  3
ByBlock
350
19
  3
ByLayer
350
11
  3
Global
350
21
  0
DICTIONARY
  5
66
102
{ACAD_REACTORS
330
C
102
}
330
C
100
AcDbDictionary
281
     1
  3
Standard
350
67
  0
DICTIONARY
  5
5F
102
{ACAD_REACTORS
330
C
102
}
330
C
100
AcDbDictionary
281
     1
  3
Standard
350
60
  0
DICTIONARY
  5
61
102
{ACAD_REACTORS
330
C
102
}
330
C
100
AcDbDictionary
281
     1
  0
ACDBDICTIONARYWDFLT
  5
E
102
{ACAD_REACTORS
330
C
102
}
330
C
100
AcDbDictionary
281
     1
  3
Normal
350
F
100
AcDbDictionaryWithDefault
340
F
  0
DICTIONARY
  5
42
102
{ACAD_REACTORS
330
C
102
}
330
C
100
AcDbDictionary
281
     1
  3
A0
350
43
  3
A1
350
44
  3
A2
350
45
  3
A3
350
46
  3
A4
350
47
  3
A5
350
48
  3
A6
350
49
  3
A7
350
4A
  3
A8
350
4B
  3
A9
350
4C
  3
B0
350
4D
  3
B1
350
4E
  3
B2
350
4F
  3
B3
350
50
  3
B4
350
51
  3
B5
350
52
  3
B6
350
53
  0
DICTIONARY
  5
68
102
{ACAD_REACTORS
330
C
102
}
330
C
100
AcDbDictionary
281
     1
  3
Imperial24
350
69
  0
DICTIONARY
  5
64
102
{ACAD_REACTORS
330
C
102
}
330
C
100
AcDbDictionary
281
     1
  3
Standard
350
65
  0
DICTIONARY
  5
29
102
{ACAD_REACTORS
330
C
102
}
330
C
100
AcDbDictionary
281
     1
  3
2dWireframe
350
2F
  3
Basic
350
2E
  3
Brighten
350
35
  3
ColorChange
350
39
  3
Conceptual
350
32
  3
Dim
350
34
  3
EdgeColorOff
350
41
  3
Facepattern
350
38
  3
Flat
350
2A
  3
FlatWithEdges
350
2B
  3
Gouraud
350
2C
  3
GouraudWithEdges
350
2D
  3
Hidden
350
31
  3
JitterOff
350
3F
  3
Linepattern
350
37
  3
OverhangOff
350
40
  3
Realistic
350
33
  3
Shaded
350
3E
  3
Shaded with edges
350
3D
  3
Shades of Gray
350
3A
  3
Sketchy
350
3B
  3
Thicken
350
36
  3
Wireframe
350
30
  3
X-Ray
350
3C
  0
XRECORD
  5
2F1
102
{ACAD_REACTORS
330
C
102
}
330
C
100
AcDbXrecord
280
     1
 90
        1
330
65
  0
DICTIONARY
  5
2E9
102
{ACAD_REACTORS
330
C
102
}
330
C
100
AcDbDictionary
281
     1
  3
CANNOSCALE
350
2EE
  3
CMLEADERSTYLE
350
2EB
  3
CTABLESTYLE
350
2EA
  3
CVIEWDETAILSTYLE
350
2EC
  3
CVIEWSECTIONSTYLE
350
2ED
  0
ACDBDETAILVIEWSTYLE
  5
6B
102
{ACAD_REACTORS
330
6A
102
}
330
6A
100
AcDbModelDocViewStyle
 70
     0
  3
Imperial24
290
     1
300
Imperial24
 90
        0
100
AcDbDetailViewStyle
 70
     0
 71
     0
 90
        3
 71
     1
340
55
 62
   256
 40
0.24
340
0
 62
   256
 40
0.24
300

 40
0.36
280
     3
 71
     2
340
5D
 90
       25
 62
   256
 71
     3
340
55
 62
   256
 40
0.24
 90
        1
 40
0.75
 90
        1
300
%<\AcVar ViewType \f "%tc1">% %<\AcVar ViewDetailId>%\PSCALE %<\AcVar ViewScale \f "%sn">%
 71
     4
340
5D
 90
       25
 62
   256
340
5D
 90
       25
 62
   256
280
     0
  0
LAYOUT
  5
6F
102
{ACAD_REACTORS
330
62
102
}
330
62
100
AcDbPlotSettings
  1

  2

  4

  6

 40
0.0
 41
0.0
 42
0.0
 43
0.0
 44
0.0
 45
0.0
 46
0.0
 47
0.0
 48
0.0
 49
0.0
140
0.0
141
0.0
142
1.0
143
1.0
 70
   688
 72
     0
 73
     0
 74
     5
  7

 75
    16
147
1.0
 76
     0
 77
     2
 78
   300
148
0.0
149
0.0
100
AcDbLayout
  1
Layout1
 70
     1
 71
     1
 10
0.0
 20
0.0
 11
12.0
 21
9.0
 12
0.0
 22
0.0
 32
0.0
 14
0.0
 24
0.0
 34
0.0
 15
0.0
 25
0.0
 35
0.0
146
0.0
 13
0.0
 23
0.0
 33
0.0
 16
1.0
 26
0.0
 36
0.0
 17
0.0
 27
1.0
 37
0.0
 76
     0
330
6C
  0
LAYOUT
  5
77
102
{ACAD_REACTORS
330
62
102
}
330
62
100
AcDbPlotSettings
  1

  2

  4

  6

 40
0.0
 41
0.0
 42
0.0
 43
0.0
 44
0.0
 45
0.0
 46
0.0
 47
0.0
 48
0.0
 49
0.0
140
0.0
141
0.0
142
1.0
143
1.0
 70
   688
 72
     0
 73
     0
 74
     5
  7

 75
    16
147
1.0
 76
     0
 77
     2
 78
   300
148
0.0
149
0.0
100
AcDbLayout
  1
Layout2
 70
     1
 71
     2
 10
0.0
 20
0.0
 11
12.0
 21
9.0
 12
0.0
 22
0.0
 32
0.0
 14
0.0
 24
0.0
 34
0.0
 15
0.0
 25
0.0
 35
0.0
146
0.0
 13
0.0
 23
0.0
 33
0.0
 16
1.0
 26
0.0
 36
0.0
 17
0.0
 27
1.0
 37
0.0
 76
     0
330
74
  0
LAYOUT
  5
73
102
{ACAD_REACTORS
330
62
102
}
330
62
100
AcDbPlotSettings
  1

  2

  4

  6

 40
0.0
 41
0.0
 42
0.0
 43
0.0
 44
0.0
 45
0.0
 46
0.0
 47
0.0
 48
0.0
 49
0.0
140
0.0
141
0.0
142
1.0
143
1.0
 70
  1712
 72
     0
 73
     0
 74
     0
  7

 75
     0
147
1.0
 76
     0
 77
     2
 78
   300
148
0.0
149
0.0
100
AcDbLayout
  1
Model
 70
     1
 71
     0
 10
0.0
 20
0.0
 11
12.0
 21
9.0
 12
0.0
 22
0.0
 32
0.0
 14
0.0
 24
0.0
 34
0.0
 15
0.0
 25
0.0
 35
0.0
146
0.0
 13
0.0
 23
0.0
 33
0.0
 16
1.0
 26
0.0
 36
0.0
 17
0.0
 27
1.0
 37
0.0
 76
     0
330
70
  0
MATERIAL
  5
19
102
{ACAD_XDICTIONARY
360
1A
102
}
102
{ACAD_REACTORS
330
10
102
}
330
10
100
AcDbMaterial
  1
ByBlock
 72
     0
 43
0.0208333333333333
 43
0.0
 43
0.0
 43
0.0
 43
0.0
 43
0.0208333333333333
 43
0.0
 43
0.0
 43
0.0
 43
0.0
 43
1.0
 43
0.0
 43
0.0
 43
0.0
 43
0.0
 43
1.0
 77
     0
 47
0.0208333333333333
 47
0.0
 47
0.0
 47
0.0
 47
0.0
 47
0.0208333333333333
 47
0.0
 47
0.0
 47
0.0
 47
0.0
 47
1.0
 47
0.0
 47
0.0
 47
0.0
 47
0.0
 47
1.0
171
     0
 49
0.0208333333333333
 49
0.0
 49
0.0
 49
0.0
 49
0.0
 49
0.0208333333333333
 49
0.0
 49
0.0
 49
0.0
 49
0.0
 49
1.0
 49
0.0
 49
0.0
 49
0.0
 49
0.0
 49
1.0
175
     0
142
0.0208333333333333
142
0.0
142
0.0
142
0.0
142
0.0
142
0.0208333333333333
142
0.0
142
0.0
142
0.0
142
0.0
142
1.0
142
0.0
142
0.0
142
0.0
142
0.0
142
1.0
179
     0
144
0.0208333333333333
144
0.0
144
0.0
144
0.0
144
0.0
144
0.0208333333333333
144
0.0
144
0.0
144
0.0
144
0.0
144
1.0
144
0.0
144
0.0
144
0.0
144
0.0
144
1.0
147
0.0208333333333333
147
0.0
147
0.0
147
0.0
147
0.0
147
0.0208333333333333
147
0.0
147
0.0
147
0.0
147
0.0
147
1.0
147
0.0
147
0.0
147
0.0
147
0.0
147
1.0
  0
MATERIAL
  5
11
102
{ACAD_XDICTIONARY
360
12
102
}
102
{ACAD_REACTORS
330
10
102
}
330
10
100
AcDbMaterial
  1
ByLayer
 72
     0
 43
0.0208333333333333
 43
0.0
 43
0.0
 43
0.0
 43
0.0
 43
0.0208333333333333
 43
0.0
 43
0.0
 43
0.0
 43
0.0
 43
1.0
 43
0.0
 43
0.0
 43
0.0
 43
0.0
 43
1.0
 77
     0
 47
0.0208333333333333
 47
0.0
 47
0.0
 47
0.0
 47
0.0
 47
0.0208333333333333
 47
0.0
 47
0.0
 47
0.0
 47
0.0
 47
1.0
 47
0.0
 47
0.0
 47
0.0
 47
0.0
 47
1.0
171
     0
 49
0.0208333333333333
 49
0.0
 49
0.0
 49
0.0
 49
0.0
 49
0.0208333333333333
 49
0.0
 49
0.0
 49
0.0
 49
0.0
 49
1.0
 49
0.0
 49
0.0
 49
0.0
 49
0.0
 49
1.0
175
     0
142
0.0208333333333333
142
0.0
142
0.0
142
0.0
142
0.0
142
0.0208333333333333
142
0.0
142
0.0
142
0.0
142
0.0
142
1.0
142
0.0
142
0.0
142
0.0
142
0.0
142
1.0
179
     0
144
0.0208333333333333
144
0.0
144
0.0
144
0.0
144
0.0
144
0.0208333333333333
144
0.0
144
0.0
144
0.0
144
0.0
144
1.0
144
0.0
144
0.0
144
0.0
144
0.0
144
1.0
147
0.0208333333333333
147
0.0
147
0.0
147
0.0
147
0.0
147
0.0208333333333333
147
0.0
147
0.0
147
0.0
147
0.0
147
1.0
147
0.0
147
0.0
147
0.0
147
0.0
147
1.0
  0
MATERIAL
  5
21
102
{ACAD_XDICTIONARY
360
22
102
}
102
{ACAD_REACTORS
330
10
102
}
330
10
100
AcDbMaterial
  1
Global
 72
     0
 43
0.0208333333333333
 43
0.0
 43
0.0
 43
0.0
 43
0.0
 43
0.0208333333333333
 43
0.0
 43
0.0
 43
0.0
 43
0.0
 43
1.0
 43
0.0
 43
0.0
 43
0.0
 43
0.0
 43
1.0
 77
     0
 47
0.0208333333333333
 47
0.0
 47
0.0
 47
0.0
 47
0.0
 47
0.0208333333333333
 47
0.0
 47
0.0
 47
0.0
 47
0.0
 47
1.0
 47
0.0
 47
0.0
 47
0.0
 47
0.0
 47
1.0
171
     0
 49
0.0208333333333333
 49
0.0
 49
0.0
 49
0.0
 49
0.0
 49
0.0208333333333333
 49
0.0
 49
0.0
 49
0.0
 49
0.0
 49
1.0
 49
0.0
 49
0.0
 49
0.0
 49
0.0
 49
1.0
175
     0
142
0.0208333333333333
142
0.0
142
0.0
142
0.0
142
0.0
142
0.0208333333333333
142
0.0
142
0.0
142
0.0
142
0.0
142
1.0
142
0.0
142
0.0
142
0.0
142
0.0
142
1.0
179
     0
144
0.0208333333333333
144
0.0
144
0.0
144
0.0
144
0.0
144
0.0208333333333333
144
0.0
144
0.0
144
0.0
144
0.0
144
1.0
144
0.0
144
0.0
144
0.0
144
0.0
144
1.0
147
0.0208333333333333
147
0.0
147
0.0
147
0.0
147
0.0
147
0.0208333333333333
147
0.0
147
0.0
147
0.0
147
0.0
147
1.0
147
0.0
147
0.0
147
0.0
147
0.0
147
1.0
  0
MLEADERSTYLE
  5
67
102
{ACAD_REACTORS
330
66
102
}
330
66
100
AcDbMLeaderStyle
179
     2
170
     2
171
     1
172
     0
 90
        2
 40
0.0
 41
0.0
173
     1
 91
-1056964608
340
5B
 92
       -2
290
     1
 42
0.09
291
     1
 43
0.36
  3
Standard
 44
0.18
300

342
55
174
     1
178
     6
175
     1
176
     0
 93
-1056964608
 45
0.18
292
     0
297
     0
 46
0.18
 94
-1056964608
 47
1.0
 49
1.0
140
1.0
293
     1
141
0.0
294
     1
177
     0
142
1.0
295
     1
296
     0
143
0.125
271
     0
272
     9
273
     9
298
     1
  0
MLINESTYLE
  5
60
102
{ACAD_REACTORS
330
5F
102
}
330
5F
100
AcDbMlineStyle
  2
STANDARD
 70
     0
  3

 62
   256
 51
90.0
 52
90.0
 71
     2
 49
0.5
 62
   256
  6
BYLAYER
 49
-0.5
 62
   256
  6
BYLAYER
  0
ACDBPLACEHOLDER
  5
F
102
{ACAD_REACTORS
330
E
102
}
330
E
  0
SCALE
  5
43
102
{ACAD_REACTORS
330
42
102
}
330
42
100
AcDbScale
 70
     0
300
1:1
140
1.0
141
1.0
290
     1
  0
SCALE
  5
44
102
{ACAD_REACTORS
330
42
102
}
330
42
100
AcDbScale
 70
     0
300
1/128" = 1'-0"
140
0.0078125
141
12.0
290
     0
  0
SCALE
  5
45
102
{ACAD_REACTORS
330
42
102
}
330
42
100
AcDbScale
 70
     0
300
1/64" = 1'-0"
140
0.015625
141
12.0
290
     0
  0
SCALE
  5
46
102
{ACAD_REACTORS
330
42
102
}
330
42
100
AcDbScale
 70
     0
300
1/32" = 1'-0"
140
0.03125
141
12.0
290
     0
  0
SCALE
  5
47
102
{ACAD_REACTORS
330
42
102
}
330
42
100
AcDbScale
 70
     0
300
1/16" = 1'-0"
140
0.0625
141
12.0
290
     0
  0
SCALE
  5
48
102
{ACAD_REACTORS
330
42
102
}
330
42
100
AcDbScale
 70
     0
300
3/32" = 1'-0"
140
0.09375
141
12.0
290
     0
  0
SCALE
  5
49
102
{ACAD_REACTORS
330
42
102
}
330
42
100
AcDbScale
 70
     0
300
1/8" = 1'-0"
140
0.125
141
12.0
290
     0
  0
SCALE
  5
4A
102
{ACAD_REACTORS
330
42
102
}
330
42
100
AcDbScale
 70
     0
300
3/16" = 1'-0"
140
0.1875
141
12.0
290
     0
  0
SCALE
  5
4B
102
{ACAD_REACTORS
330
42
102
}
330
42
100
AcDbScale
 70
     0
300
1/4" = 1'-0"
140
0.25
141
12.0
290
     0
  0
SCALE
  5
4C
102
{ACAD_REACTORS
330
42
102
}
330
42
100
AcDbScale
 70
     0
300
3/8" = 1'-0"
140
0.375
141
12.0
290
     0
  0
SCALE
  5
4D
102
{ACAD_REACTORS
330
42
102
}
330
42
100
AcDbScale
 70
     0
300
1/2" = 1'-0"
140
0.5
141
12.0
290
     0
  0
SCALE
  5
4E
102
{ACAD_REACTORS
330
42
102
}
330
42
100
AcDbScale
 70
     0
300
3/4" = 1'-0"
140
0.75
141
12.0
290
     0
  0
SCALE
  5
4F
102
{ACAD_REACTORS
330
42
102
}
330
42
100
AcDbScale
 70
     0
300
1" = 1'-0"
140
1.0
141
12.0
290
     0
  0
SCALE
  5
50
102
{ACAD_REACTORS
330
42
102
}
330
42
100
AcDbScale
 70
     0
300
1-1/2" = 1'-0"
140
1.5
141
12.0
290
     0
  0
SCALE
  5
51
102
{ACAD_REACTORS
330
42
102
}
330
42
100
AcDbScale
 70
     0
300
3" = 1'-0"
140
3.0
141
12.0
290
     0
  0
SCALE
  5
52
102
{ACAD_REACTORS
330
42
102
}
330
42
100
AcDbScale
 70
     0
300
6" = 1'-0"
140
6.0
141
12.0
290
     0
  0
SCALE
  5
53
102
{ACAD_REACTORS
330
42
102
}
330
42
100
AcDbScale
 70
     0
300
1'-0" = 1'-0"
140
12.0
141
12.0
290
     0
  0
ACDBSECTIONVIEWSTYLE
  5
69
102
{ACAD_REACTORS
330
68
102
}
330
68
100
AcDbModelDocViewStyle
 70
     0
  3
Imperial24
290
     1
300
Imperial24
 90
        0
100
AcDbSectionViewStyle
 70
     0
 71
     0
 90
       78
 71
     1
340
55
 62
   256
 40
0.24
340
0
340
0
 62
   256
 40
0.24
300
I, O, Q, S, X, Z
 40
0.48
 90
        3
 40
0.18
 90
        1
 71
     2
340
5D
 90
       25
 62
   256
340
5D
 90
       50
 62
   256
 40
0.24
 40
0.0
 40
0.24
 71
     3
340
55
 62
   256
 40
0.24
 90
        1
 40
0.75
 90
        1
300
%<\AcVar ViewType \f "%tc1">% %<\AcVar ViewSectionStartId>%-%<\AcVar ViewSectionEndId>%\PSCALE %<\AcVar ViewScale \f "%sn">%
 71
     4
 62
   256
 62
   257
300
ANSI31
 40
1.0
 90
        0
290
     0
290
     0
 90
        6
 40
0.0
 40
1.570796326794896
 40
0.2617993877991494
 40
1.308996938995747
 40
-0.2617993877991494
 40
1.832595714594046
  0
TABLESTYLE
  5
65
102
{ACAD_XDICTIONARY
360
2EF
102
}
102
{ACAD_REACTORS
330
64
102
}
330
64
100
AcDbTableStyle
280
     0
  3
Standard
 70
     0
 71
     0
 40
0.06
 41
0.06
280
     0
281
     0
  7
Standard
140
0.18
170
     2
 62
     0
 63
     7
283
     0
 90
      512
 91
        0
  1

274
    -2
284
     1
 64
     0
275
    -2
285
     1
 65
     0
276
    -2
286
     1
 66
     0
277
    -2
287
     1
 67
     0
278
    -2
288
     1
 68
     0
279
    -2
289
     1
 69
     0
  7
Standard
140
0.25
170
     5
 62
     0
 63
     7
283
     0
 90
      512
 91
        0
  1

274
    -2
284
     1
 64
     0
275
    -2
285
     1
 65
     0
276
    -2
286
     1
 66
     0
277
    -2
287
     1
 67
     0
278
    -2
288
     1
 68
     0
279
    -2
289
     1
 69
     0
  7
Standard
140
0.18
170
     5
 62
     0
 63
     7
283
     0
 90
      512
 91
        0
  1

274
    -2
284
     1
 64
     0
275
    -2
285
     1
 65
     0
276
    -2
286
     1
 66
     0
277
    -2
287
     1
 67
     0
278
    -2
288
     1
 68
     0
279
    -2
289
     1
 69
     0
  0
VISUALSTYLE
  5
2F
102
{ACAD_REACTORS
330
29
102
}
330
29
100
AcDbVisualStyle
  2
2dWireframe
 70
     4
177
     3
291
     0
 70
    58
 90
        0
176
     1
 90
        2
176
     1
 90
        0
176
     1
 90
        0
176
     1
 40
0.6
176
     1
 40
30.0
176
     1
 62
     7
420
 16777215
176
     1
 90
        1
176
     1
 90
        4
176
     1
 62
     7
176
     1
 62
   257
176
     1
 90
        1
176
     1
 90
        1
176
     1
 40
1.0
176
     1
 90
        0
176
     1
 62
   257
176
     1
 40
1.0
176
     1
 90
        1
176
     1
 90
        6
176
     1
 90
        2
176
     1
 62
     7
176
     1
 90
        5
176
     1
 90
        0
176
     1
 90
        0
176
     1
290
     0
176
     1
 90
        1
176
     1
 40
0.0
176
     1
 90
        0
176
     1
290
     1
176
     1
290
     1
176
     1
290
     0
176
     1
290
     0
176
     1
290
     0
176
     1
290
     0
176
     1
290
     0
176
     1
290
     0
176
     1
290
     0
176
     1
 90
       50
176
     1
 40
0.0
176
     1
 40
1.0
176
     1
 90
        0
176
     1
 62
    18
420
        0
176
     1
 90
       50
176
     1
 90
        3
176
     1
 62
     5
420
      255
176
     1
290
     0
176
     1
 90
       50
176
     1
 90
       50
176
     1
 90
       50
176
     1
290
     0
176
     1
 90
       50
176
     1
 62
   256
176
     0
 40
1.0
176
     0
 90
        2
176
     1
  1
strokes_ogs.tif
176
     1
290
     0
176
     1
 40
1.0
176
     1
 40
1.0
176
     1
  0
VISUALSTYLE
  5
2E
102
{ACAD_REACTORS
330
29
102
}
330
29
100
AcDbVisualStyle
  2
Basic
 70
     7
177
     3
291
     1
 70
    58
 90
        1
176
     1
 90
        0
176
     1
 90
        1
176
     1
 90
        0
176
     1
 40
0.6
176
     1
 40
30.0
176
     1
 62
     7
420
 16777215
176
     1
 90
        0
176
     1
 90
        4
176
     1
 62
     7
176
     1
 62
   257
176
     1
 90
        1
176
     1
 90
        1
176
     1
 40
1.0
176
     1
 90
        8
176
     1
 62
     7
176
     1
 40
1.0
176
     1
 90
        1
176
     1
 90
        6
176
     1
 90
        2
176
     1
 62
     7
176
     1
 90
        5
176
     1
 90
        0
176
     1
 90
        0
176
     1
290
     0
176
     1
 90
        1
176
     1
 40
0.0
176
     1
 90
        0
176
     1
290
     0
176
     1
290
     1
176
     1
290
     1
176
     1
290
     0
176
     1
290
     0
176
     1
290
     0
176
     1
290
     0
176
     1
290
     0
176
     1
290
     0
176
     1
 90
       50
176
     1
 40
0.0
176
     1
 40
1.0
176
     1
 90
        0
176
     1
 62
    18
420
        0
176
     1
 90
       50
176
     1
 90
        3
176
     1
 62
     5
420
      255
176
     1
290
     0
176
     1
 90
       50
176
     1
 90
       50
176
     1
 90
       50
176
     1
290
     0
176
     1
 90
       50
176
     1
 62
   256
176
     0
 40
1.0
176
     0
 90
        2
176
     1
  1
strokes_ogs.tif
176
     1
290
     0
176
     1
 40
1.0
176
     1
 40
1.0
176
     1
  0
VISUALSTYLE
  5
35
102
{ACAD_REACTORS
330
29
102
}
330
29
100
AcDbVisualStyle
  2
Brighten
 70
    12
177
     3
291
     1
 70
    58
 90
        2
176
     1
 90
        2
176
     1
 90
        0
176
     1
 90
        0
176
     1
 40
0.6
176
     1
 40
30.0
176
     1
 62
     7
420
 16777215
176
     1
 90
        1
176
     1
 90
        4
176
     1
 62
     7
176
     1
 62
   257
176
     1
 90
        1
176
     1
 90
        1
176
     1
 40
1.0
176
     1
 90
        8
176
     1
 62
     7
176
     1
 40
1.0
176
     1
 90
        1
176
     1
 90
        6
176
     1
 90
        2
176
     1
 62
     7
176
     1
 90
        5
176
     1
 90
        0
176
     1
 90
        0
176
     1
290
     0
176
     1
 90
        1
176
     1
 40
50.0
176
     1
 90
        0
176
     1
290
     0
176
     1
290
     1
176
     1
290
     1
176
     1
290
     0
176
     1
290
     0
176
     1
290
     0
176
     1
290
     0
176
     1
290
     0
176
     1
290
     0
176
     1
 90
       50
176
     1
 40
0.0
176
     1
 40
1.0
176
     1
 90
        0
176
     1
 62
    18
420
        0
176
     1
 90
       50
176
     1
 90
        3
176
     1
 62
     5
420
      255
176
     1
290
     0
176
     1
 90
       50
176
     1
 90
       50
176
     1
 90
       50
176
     1
290
     0
176
     1
 90
       50
176
     1
 62
   256
176
     0
 40
1.0
176
     0
 90
        2
176
     1
  1
strokes_ogs.tif
176
     1
290
     0
176
     1
 40
1.0
176
     1
 40
1.0
176
     1
  0
VISUALSTYLE
  5
39
102
{ACAD_REACTORS
330
29
102
}
330
29
100
AcDbVisualStyle
  2
ColorChange
 70
    16
177
     3
291
     1
 70
    58
 90
        2
176
     1
 90
        2
176
     1
 90
        3
176
     1
 90
        0
176
     1
 40
0.6
176
     1
 40
30.0
176
     1
 62
     8
420
  8421504
176
     1
 90
        1
176
     1
 90
        4
176
     1
 62
     7
176
     1
 62
   257
176
     1
 90
        1
176
     1
 90
        1
176
     1
 40
1.0
176
     1
 90
        8
176
     1
 62
     8
420
  8421504
176
     1
 40
1.0
176
     1
 90
        1
176
     1
 90
        6
176
     1
 90
        2
176
     1
 62
     7
176
     1
 90
        5
176
     1
 90
        0
176
     1
 90
        0
176
     1
290
     0
176
     1
 90
        1
176
     1
 40
0.0
176
     1
 90
        0
176
     1
290
     0
176
     1
290
     1
176
     1
290
     1
176
     1
290
     0
176
     1
290
     0
176
     1
290
     0
176
     1
290
     0
176
     1
290
     0
176
     1
290
     0
176
     1
 90
       50
176
     1
 40
0.0
176
     1
 40
1.0
176
     1
 90
        0
176
     1
 62
    18
420
        0
176
     1
 90
       50
176
     1
 90
        3
176
     1
 62
     5
420
      255
176
     1
290
     0
176
     1
 90
       50
176
     1
 90
       50
176
     1
 90
       50
176
     1
290
     0
176
     1
 90
       50
176
     1
 62
   256
176
     0
 40
1.0
176
     0
 90
        2
176
     1
  1
strokes_ogs.tif
176
     1
290
     0
176
     1
 40
1.0
176
     1
 40
1.0
176
     1
  0
VISUALSTYLE
  5
32
102
{ACAD_REACTORS
330
29
102
}
330
29
100
AcDbVisualStyle
  2
Conceptual
 70
     9
177
     3
291
     0
 70
    58
 90
        3
176
     1
 90
        2
176
     1
 90
        0
176
     1
 90
        0
176
     1
 40
0.6
176
     1
 40
30.0
176
     1
 62
     7
420
 16777215
176
     1
 90
        2
176
     1
 90
        2
176
     1
 62
     7
176
     1
 62
   257
176
     1
 90
        1
176
     1
 90
        1
176
     1
 40
179.0
176
     1
 90
        8
176
     1
 62
     7
176
     1
 40
1.0
176
     1
 90
        1
176
     1
 90
        6
176
     1
 90
        2
176
     1
 62
     7
176
     1
 90
        3
176
     1
 90
        0
176
     1
 90
        0
176
     1
290
     0
176
     1
 90
        1
176
     1
 40
0.0
176
     1
 90
        0
176
     1
290
     0
176
     1
290
     1
176
     1
290
     1
176
     1
290
     0
176
     1
290
     0
176
     1
290
     0
176
     1
290
     0
176
     1
290
     0
176
     1
290
     0
176
     1
 90
       50
176
     1
 40
0.0
176
     1
 40
1.0
176
     1
 90
        0
176
     1
 62
    18
420
        0
176
     1
 90
       50
176
     1
 90
        3
176
     1
 62
     5
420
      255
176
     1
290
     0
176
     1
 90
       50
176
     1
 90
       50
176
     1
 90
       50
176
     1
290
     0
176
     1
 90
       50
176
     1
 62
   256
176
     0
 40
1.0
176
     0
 90
        2
176
     1
  1
strokes_ogs.tif
176
     1
290
     0
176
     1
 40
1.0
176
     1
 40
1.0
176
     1
  0
VISUALSTYLE
  5
34
102
{ACAD_REACTORS
330
29
102
}
330
29
100
AcDbVisualStyle
  2
Dim
 70
    11
177
     3
291
     1
 70
    58
 90
        2
176
     1
 90
        2
176
     1
 90
        0
176
     1
 90
        0
176
     1
 40
0.6
176
     1
 40
30.0
176
     1
 62
     7
420
 16777215
176
     1
 90
        1
176
     1
 90
        4
176
     1
 62
     7
176
     1
 62
   257
176
     1
 90
        1
176
     1
 90
        1
176
     1
 40
1.0
176
     1
 90
        8
176
     1
 62
     7
176
     1
 40
1.0
176
     1
 90
        1
176
     1
 90
        6
176
     1
 90
        2
176
     1
 62
     7
176
     1
 90
        5
176
     1
 90
        0
176
     1
 90
        0
176
     1
290
     0
176
     1
 90
        1
176
     1
 40
-50.0
176
     1
 90
        0
176
     1
290
     0
176
     1
290
     1
176
     1
290
     1
176
     1
290
     0
176
     1
290
     0
176
     1
290
     0
176
     1
290
     0
176
     1
290
     0
176
     1
290
     0
176
     1
 90
       50
176
     1
 40
0.0
176
     1
 40
1.0
176
     1
 90
        0
176
     1
 62
    18
420
        0
176
     1
 90
       50
176
     1
 90
        3
176
     1
 62
     5
420
      255
176
     1
290
     0
176
     1
 90
       50
176
     1
 90
       50
176
     1
 90
       50
176
     1
290
     0
176
     1
 90
       50
176
     1
 62
   256
176
     0
 40
1.0
176
     0
 90
        2
176
     1
  1
strokes_ogs.tif
176
     1
290
     0
176
     1
 40
1.0
176
     1
 40
1.0
176
     1
  0
VISUALSTYLE
  5
41
102
{ACAD_REACTORS
330
29
102
}
330
29
100
AcDbVisualStyle
  2
EdgeColorOff
 70
    22
177
     3
291
     1
 70
    58
 90
        2
176
     0
 90
        2
176
     0
 90
        0
176
     0
 90
        0
176
     0
 40
0.6
176
     0
 40
30.0
176
     0
 62
     7
420
 16777215
176
     0
 90
        1
176
     0
 90
        4
176
     0
 62
     7
176
     0
 62
   257
176
     0
 90
        1
176
     0
 90
        1
176
     0
 40
1.0
176
     0
 90
        8
176
     2
 62
     7
176
     0
 40
1.0
176
     0
 90
        1
176
     0
 90
        6
176
     0
 90
        2
176
     0
 62
     7
176
     0
 90
        5
176
     0
 90
        0
176
     0
 90
        0
176
     0
290
     0
176
     0
 90
        1
176
     0
 40
0.0
176
     0
 90
        0
176
     0
290
     0
176
     0
290
     1
176
     0
290
     1
176
     0
290
     0
176
     0
290
     0
176
     0
290
     0
176
     0
290
     0
176
     0
290
     0
176
     0
290
     0
176
     0
 90
       50
176
     0
 40
0.0
176
     0
 40
1.0
176
     0
 90
        0
176
     0
 62
    18
420
        0
176
     0
 90
       50
176
     0
 90
        3
176
     0
 62
     5
420
      255
176
     0
290
     0
176
     0
 90
       50
176
     0
 90
       50
176
     0
 90
       50
176
     0
290
     0
176
     0
 90
       50
176
     0
 62
   256
176
     0
 40
1.0
176
     0
 90
        2
176
     0
  1
strokes_ogs.tif
176
     0
290
     0
176
     0
 40
1.0
176
     0
 40
1.0
176
     0
  0
VISUALSTYLE
  5
38
102
{ACAD_REACTORS
330
29
102
}
330
29
100
AcDbVisualStyle
  2
Facepattern
 70
    15
177
     3
291
     1
 70
    58
 90
        2
176
     1
 90
        2
176
     1
 90
        0
176
     1
 90
        0
176
     1
 40
0.6
176
     1
 40
30.0
176
     1
 62
     7
420
 16777215
176
     1
 90
        1
176
     1
 90
        4
176
     1
 62
     7
176
     1
 62
   257
176
     1
 90
        1
176
     1
 90
        1
176
     1
 40
1.0
176
     1
 90
        8
176
     1
 62
     7
176
     1
 40
1.0
176
     1
 90
        1
176
     1
 90
        6
176
     1
 90
        2
176
     1
 62
     7
176
     1
 90
        5
176
     1
 90
        0
176
     1
 90
        0
176
     1
290
     0
176
     1
 90
        1
176
     1
 40
0.0
176
     1
 90
        0
176
     1
290
     0
176
     1
290
     1
176
     1
290
     1
176
     1
290
     0
176
     1
290
     0
176
     1
290
     0
176
     1
290
     0
176
     1
290
     0
176
     1
290
     0
176
     1
 90
       50
176
     1
 40
0.0
176
     1
 40
1.0
176
     1
 90
        0
176
     1
 62
    18
420
        0
176
     1
 90
       50
176
     1
 90
        3
176
     1
 62
     5
420
      255
176
     1
290
     0
176
     1
 90
       50
176
     1
 90
       50
176
     1
 90
       50
176
     1
290
     0
176
     1
 90
       50
176
     1
 62
   256
176
     0
 40
1.0
176
     0
 90
        2
176
     1
  1
strokes_ogs.tif
176
     1
290
     0
176
     1
 40
1.0
176
     1
 40
1.0
176
     1
  0
VISUALSTYLE
  5
2A
102
{ACAD_REACTORS
330
29
102
}
330
29
100
AcDbVisualStyle
  2
Flat
 70
     0
177
     3
291
     1
 70
    58
 90
        2
176
     1
 90
        1
176
     1
 90
        1
176
     1
 90
        2
176
     1
 40
0.6
176
     1
 40
30.0
176
     1
 62
     7
420
 16777215
176
     1
 90
        0
176
     1
 90
        0
176
     1
 62
     7
176
     1
 62
   257
176
     1
 90
        1
176
     1
 90
        1
176
     1
 40
1.0
176
     1
 90
        8
176
     1
 62
     7
176
     1
 40
1.0
176
     1
 90
        1
176
     1
 90
        6
176
     1
 90
        2
176
     1
 62
     7
176
     1
 90
        5
176
     1
 90
        0
176
     1
 90
        0
176
     1
290
     0
176
     1
 90
       13
176
     1
 40
0.0
176
     1
 90
        0
176
     1
290
     0
176
     1
290
     1
176
     1
290
     1
176
     1
290
     0
176
     1
290
     0
176
     1
290
     0
176
     1
290
     0
176
     1
290
     0
176
     1
290
     0
176
     1
 90
       50
176
     1
 40
0.0
176
     1
 40
1.0
176
     1
 90
        0
176
     1
 62
    18
420
        0
176
     1
 90
       50
176
     1
 90
        3
176
     1
 62
     5
420
      255
176
     1
290
     0
176
     1
 90
       50
176
     1
 90
       50
176
     1
 90
       50
176
     1
290
     0
176
     1
 90
       50
176
     1
 62
   256
176
     0
 40
1.0
176
     0
 90
        2
176
     1
  1
strokes_ogs.tif
176
     1
290
     0
176
     1
 40
1.0
176
     1
 40
1.0
176
     1
  0
VISUALSTYLE
  5
2B
102
{ACAD_REACTORS
330
29
102
}
330
29
100
AcDbVisualStyle
  2
FlatWithEdges
 70
     1
177
     3
291
     1
 70
    58
 90
        2
176
     1
 90
        1
176
     1
 90
        1
176
     1
 90
        2
176
     1
 40
0.6
176
     1
 40
30.0
176
     1
 62
     7
420
 16777215
176
     1
 90
        1
176
     1
 90
        0
176
     1
 62
     7
176
     1
 62
   257
176
     1
 90
        1
176
     1
 90
        1
176
     1
 40
1.0
176
     1
 90
        0
176
     1
 62
   257
176
     1
 40
1.0
176
     1
 90
        1
176
     1
 90
        6
176
     1
 90
        2
176
     1
 62
     7
176
     1
 90
        5
176
     1
 90
        0
176
     1
 90
        0
176
     1
290
     0
176
     1
 90
       13
176
     1
 40
0.0
176
     1
 90
        0
176
     1
290
     0
176
     1
290
     1
176
     1
290
     1
176
     1
290
     0
176
     1
290
     0
176
     1
290
     0
176
     1
290
     0
176
     1
290
     0
176
     1
290
     0
176
     1
 90
       50
176
     1
 40
0.0
176
     1
 40
1.0
176
     1
 90
        0
176
     1
 62
    18
420
        0
176
     1
 90
       50
176
     1
 90
        3
176
     1
 62
     5
420
      255
176
     1
290
     0
176
     1
 90
       50
176
     1
 90
       50
176
     1
 90
       50
176
     1
290
     0
176
     1
 90
       50
176
     1
 62
   256
176
     0
 40
1.0
176
     0
 90
        2
176
     1
  1
strokes_ogs.tif
176
     1
290
     0
176
     1
 40
1.0
176
     1
 40
1.0
176
     1
  0
VISUALSTYLE
  5
2C
102
{ACAD_REACTORS
330
29
102
}
330
29
100
AcDbVisualStyle
  2
Gouraud
 70
     2
177
     3
291
     1
 70
    58
 90
        2
176
     1
 90
        2
176
     1
 90
        1
176
     1
 90
        2
176
     1
 40
0.6
176
     1
 40
30.0
176
     1
 62
     7
420
 16777215
176
     1
 90
        0
176
     1
 90
        0
176
     1
 62
     7
176
     1
 62
   257
176
     1
 90
        1
176
     1
 90
        1
176
     1
 40
1.0
176
     1
 90
        0
176
     1
 62
     7
176
     1
 40
1.0
176
     1
 90
        1
176
     1
 90
        6
176
     1
 90
        2
176
     1
 62
     7
176
     1
 90
        5
176
     1
 90
        0
176
     1
 90
        0
176
     1
290
     0
176
     1
 90
       13
176
     1
 40
0.0
176
     1
 90
        0
176
     1
290
     0
176
     1
290
     1
176
     1
290
     1
176
     1
290
     0
176
     1
290
     0
176
     1
290
     0
176
     1
290
     0
176
     1
290
     0
176
     1
290
     0
176
     1
 90
       50
176
     1
 40
0.0
176
     1
 40
1.0
176
     1
 90
        0
176
     1
 62
    18
420
        0
176
     1
 90
       50
176
     1
 90
        3
176
     1
 62
     5
420
      255
176
     1
290
     0
176
     1
 90
       50
176
     1
 90
       50
176
     1
 90
       50
176
     1
290
     0
176
     1
 90
       50
176
     1
 62
   256
176
     0
 40
1.0
176
     0
 90
        2
176
     1
  1
strokes_ogs.tif
176
     1
290
     0
176
     1
 40
1.0
176
     1
 40
1.0
176
     1
  0
VISUALSTYLE
  5
2D
102
{ACAD_REACTORS
330
29
102
}
330
29
100
AcDbVisualStyle
  2
GouraudWithEdges
 70
     3
177
     3
291
     1
 70
    58
 90
        2
176
     1
 90
        2
176
     1
 90
        1
176
     1
 90
        2
176
     1
 40
0.6
176
     1
 40
30.0
176
     1
 62
     7
420
 16777215
176
     1
 90
        1
176
     1
 90
        0
176
     1
 62
     7
176
     1
 62
   257
176
     1
 90
        1
176
     1
 90
        1
176
     1
 40
1.0
176
     1
 90
        0
176
     1
 62
   257
176
     1
 40
1.0
176
     1
 90
        1
176
     1
 90
        6
176
     1
 90
        2
176
     1
 62
     7
176
     1
 90
        5
176
     1
 90
        0
176
     1
 90
        0
176
     1
290
     0
176
     1
 90
       13
176
     1
 40
0.0
176
     1
 90
        0
176
     1
290
     0
176
     1
290
     1
176
     1
290
     1
176
     1
290
     0
176
     1
290
     0
176
     1
290
     0
176
     1
290
     0
176
     1
290
     0
176
     1
290
     0
176
     1
 90
       50
176
     1
 40
0.0
176
     1
 40
1.0
176
     1
 90
        0
176
     1
 62
    18
420
        0
176
     1
 90
       50
176
     1
 90
        3
176
     1
 62
     5
420
      255
176
     1
290
     0
176
     1
 90
       50
176
     1
 90
       50
176
     1
 90
       50
176
     1
290
     0
176
     1
 90
       50
176
     1
 62
   256
176
     0
 40
1.0
176
     0
 90
        2
176
     1
  1
strokes_ogs.tif
176
     1
290
     0
176
     1
 40
1.0
176
     1
 40
1.0
176
     1
  0
VISUALSTYLE
  5
31
102
{ACAD_REACTORS
330
29
102
}
330
29
100
AcDbVisualStyle
  2
Hidden
 70
     6
177
     3
291
     0
 70
    58
 90
        1
176
     1
 90
        2
176
     1
 90
        2
176
     1
 90
        0
176
     1
 40
0.6
176
     1
 40
30.0
176
     1
 62
     7
420
 16777215
176
     1
 90
        2
176
     1
 90
        2
176
     1
 62
     7
176
     1
 62
   257
176
     1
 90
        2
176
     1
 90
        1
176
     1
 40
40.0
176
     1
 90
        0
176
     1
 62
   257
176
     1
 40
1.0
176
     1
 90
        1
176
     1
 90
        6
176
     1
 90
        2
176
     1
 62
     7
176
     1
 90
        3
176
     1
 90
        0
176
     1
 90
        0
176
     1
290
     0
176
     1
 90
        1
176
     1
 40
0.0
176
     1
 90
        0
176
     1
290
     0
176
     1
290
     1
176
     1
290
     1
176
     1
290
     0
176
     1
290
     0
176
     1
290
     0
176
     1
290
     0
176
     1
290
     0
176
     1
290
     0
176
     1
 90
       50
176
     1
 40
0.0
176
     1
 40
1.0
176
     1
 90
        0
176
     1
 62
    18
420
        0
176
     1
 90
       50
176
     1
 90
        3
176
     1
 62
     5
420
      255
176
     1
290
     0
176
     1
 90
       50
176
     1
 90
       50
176
     1
 90
       50
176
     1
290
     0
176
     1
 90
       50
176
     1
 62
   256
176
     0
 40
1.0
176
     0
 90
        2
176
     1
  1
strokes_ogs.tif
176
     1
290
     0
176
     1
 40
1.0
176
     1
 40
1.0
176
     1
  0
VISUALSTYLE
  5
3F
102
{ACAD_REACTORS
330
29
102
}
330
29
100
AcDbVisualStyle
  2
JitterOff
 70
    20
177
     3
291
     1
 70
    58
 90
        2
176
     0
 90
        2
176
     0
 90
        0
176
     0
 90
        0
176
     0
 40
0.6
176
     0
 40
30.0
176
     0
 62
     7
420
 16777215
176
     0
 90
        1
176
     0
 90
        4
176
     0
 62
     7
176
     0
 62
   257
176
     0
 90
        1
176
     0
 90
        1
176
     0
 40
1.0
176
     0
 90
       10
176
     2
 62
     7
176
     0
 40
1.0
176
     0
 90
        1
176
     0
 90
        6
176
     0
 90
        2
176
     0
 62
     7
176
     0
 90
        5
176
     0
 90
        0
176
     0
 90
        0
176
     0
290
     0
176
     0
 90
        1
176
     0
 40
0.0
176
     0
 90
        0
176
     0
290
     0
176
     0
290
     1
176
     0
290
     1
176
     0
290
     0
176
     0
290
     0
176
     0
290
     0
176
     0
290
     0
176
     0
290
     0
176
     0
290
     0
176
     0
 90
       50
176
     0
 40
0.0
176
     0
 40
1.0
176
     0
 90
        0
176
     0
 62
    18
420
        0
176
     0
 90
       50
176
     0
 90
        3
176
     0
 62
     5
420
      255
176
     0
290
     0
176
     0
 90
       50
176
     0
 90
       50
176
     0
 90
       50
176
     0
290
     0
176
     0
 90
       50
176
     0
 62
   256
176
     0
 40
1.0
176
     0
 90
        2
176
     0
  1
strokes_ogs.tif
176
     0
290
     0
176
     0
 40
1.0
176
     0
 40
1.0
176
     0
  0
VISUALSTYLE
  5
37
102
{ACAD_REACTORS
330
29
102
}
330
29
100
AcDbVisualStyle
  2
Linepattern
 70
    14
177
     3
291
     1
 70
    58
 90
        2
176
     1
 90
        2
176
     1
 90
        0
176
     1
 90
        0
176
     1
 40
0.6
176
     1
 40
30.0
176
     1
 62
     7
420
 16777215
176
     1
 90
        1
176
     1
 90
        4
176
     1
 62
     7
176
     1
 62
   257
176
     1
 90
        7
176
     1
 90
        7
176
     1
 40
1.0
176
     1
 90
        8
176
     1
 62
     7
176
     1
 40
1.0
176
     1
 90
        1
176
     1
 90
        6
176
     1
 90
        2
176
     1
 62
     7
176
     1
 90
        5
176
     1
 90
        0
176
     1
 90
        0
176
     1
290
     0
176
     1
 90
        1
176
     1
 40
0.0
176
     1
 90
        0
176
     1
290
     0
176
     1
290
     1
176
     1
290
     1
176
     1
290
     0
176
     1
290
     0
176
     1
290
     0
176
     1
290
     0
176
     1
290
     0
176
     1
290
     0
176
     1
 90
       50
176
     1
 40
0.0
176
     1
 40
1.0
176
     1
 90
        0
176
     1
 62
    18
420
        0
176
     1
 90
       50
176
     1
 90
        3
176
     1
 62
     5
420
      255
176
     1
290
     0
176
     1
 90
       50
176
     1
 90
       50
176
     1
 90
       50
176
     1
290
     0
176
     1
 90
       50
176
     1
 62
   256
176
     0
 40
1.0
176
     0
 90
        2
176
     1
  1
strokes_ogs.tif
176
     1
290
     0
176
     1
 40
1.0
176
     1
 40
1.0
176
     1
  0
VISUALSTYLE
  5
40
102
{ACAD_REACTORS
330
29
102
}
330
29
100
AcDbVisualStyle
  2
OverhangOff
 70
    21
177
     3
291
     1
 70
    58
 90
        2
176
     0
 90
        2
176
     0
 90
        0
176
     0
 90
        0
176
     0
 40
0.6
176
     0
 40
30.0
176
     0
 62
     7
420
 16777215
176
     0
 90
        1
176
     0
 90
        4
176
     0
 62
     7
176
     0
 62
   257
176
     0
 90
        1
176
     0
 90
        1
176
     0
 40
1.0
176
     0
 90
        9
176
     2
 62
     7
176
     0
 40
1.0
176
     0
 90
        1
176
     0
 90
        6
176
     0
 90
        2
176
     0
 62
     7
176
     0
 90
        5
176
     0
 90
        0
176
     0
 90
        0
176
     0
290
     0
176
     0
 90
        1
176
     0
 40
0.0
176
     0
 90
        0
176
     0
290
     0
176
     0
290
     1
176
     0
290
     1
176
     0
290
     0
176
     0
290
     0
176
     0
290
     0
176
     0
290
     0
176
     0
290
     0
176
     0
290
     0
176
     0
 90
       50
176
     0
 40
0.0
176
     0
 40
1.0
176
     0
 90
        0
176
     0
 62
    18
420
        0
176
     0
 90
       50
176
     0
 90
        3
176
     0
 62
     5
420
      255
176
     0
290
     0
176
     0
 90
       50
176
     0
 90
       50
176
     0
 90
       50
176
     0
290
     0
176
     0
 90
       50
176
     0
 62
   256
176
     0
 40
1.0
176
     0
 90
        2
176
     0
  1
strokes_ogs.tif
176
     0
290
     0
176
     0
 40
1.0
176
     0
 40
1.0
176
     0
  0
VISUALSTYLE
  5
33
102
{ACAD_REACTORS
330
29
102
}
330
29
100
AcDbVisualStyle
  2
Realistic
 70
     8
177
     3
291
     0
 70
    58
 90
        2
176
     1
 90
        3
176
     1
 90
        0
176
     1
 90
        2
176
     1
 40
0.6
176
     1
 40
30.0
176
     1
 62
     7
420
 16777215
176
     1
 90
        0
176
     1
 90
        0
176
     1
 62
     7
176
     1
 62
   257
176
     1
 90
        1
176
     1
 90
        1
176
     1
 40
1.0
176
     1
 90
        8
176
     1
 62
   257
176
     1
 40
1.0
176
     1
 90
        1
176
     1
 90
        6
176
     1
 90
        2
176
     1
 62
     7
176
     1
 90
        3
176
     1
 90
        0
176
     1
 90
        0
176
     1
290
     0
176
     1
 90
       13
176
     1
 40
0.0
176
     1
 90
        0
176
     1
290
     0
176
     1
290
     1
176
     1
290
     1
176
     1
290
     0
176
     1
290
     0
176
     1
290
     0
176
     1
290
     0
176
     1
290
     0
176
     1
290
     0
176
     1
 90
       50
176
     1
 40
0.0
176
     1
 40
1.0
176
     1
 90
        0
176
     1
 62
    18
420
        0
176
     1
 90
       50
176
     1
 90
        3
176
     1
 62
     5
420
      255
176
     1
290
     0
176
     1
 90
       50
176
     1
 90
       50
176
     1
 90
       50
176
     1
290
     0
176
     1
 90
       50
176
     1
 62
   256
176
     0
 40
1.0
176
     0
 90
        2
176
     1
  1
strokes_ogs.tif
176
     1
290
     0
176
     1
 40
1.0
176
     1
 40
1.0
176
     1
  0
VISUALSTYLE
  5
3E
102
{ACAD_REACTORS
330
29
102
}
330
29
100
AcDbVisualStyle
  2
Shaded
 70
    27
177
     3
291
     0
 70
    58
 90
        2
176
     1
 90
        2
176
     1
 90
        1
176
     1
 90
        2
176
     1
 40
0.6
176
     1
 40
30.0
176
     1
 62
     7
420
 16777215
176
     1
 90
        0
176
     1
 90
        4
176
     1
 62
     7
176
     1
 62
   257
176
     1
 90
        1
176
     1
 90
        1
176
     1
 40
1.0
176
     1
 90
        8
176
     1
 62
   257
176
     1
 40
1.0
176
     1
 90
        1
176
     1
 90
        6
176
     1
 90
        2
176
     1
 62
     8
420
  7895160
176
     1
 90
        3
176
     1
 90
        0
176
     1
 90
        0
176
     1
290
     0
176
     1
 90
        5
176
     1
 40
0.0
176
     1
 90
        0
176
     1
290
     0
176
     1
290
     1
176
     1
290
     1
176
     1
290
     0
176
     1
290
     0
176
     1
290
     0
176
     1
290
     0
176
     1
290
     0
176
     1
290
     0
176
     1
 90
       50
176
     1
 40
0.0
176
     1
 40
1.0
176
     1
 90
        0
176
     1
 62
    18
420
        0
176
     1
 90
       50
176
     1
 90
        3
176
     1
 62
     5
420
      255
176
     1
290
     0
176
     1
 90
       50
176
     1
 90
       50
176
     1
 90
       50
176
     1
290
     0
176
     1
 90
       50
176
     1
 62
   256
176
     0
 40
1.0
176
     0
 90
        2
176
     1
  1
strokes_ogs.tif
176
     1
290
     0
176
     1
 40
1.0
176
     1
 40
1.0
176
     1
  0
VISUALSTYLE
  5
3D
102
{ACAD_REACTORS
330
29
102
}
330
29
100
AcDbVisualStyle
  2
Shaded with edges
 70
    26
177
     3
291
     0
 70
    58
 90
        2
176
     1
 90
        2
176
     1
 90
        1
176
     1
 90
        2
176
     1
 40
0.6
176
     1
 40
30.0
176
     1
 62
     7
420
 16777215
176
     1
 90
        1
176
     1
 90
        2
176
     1
 62
     7
176
     1
 62
   257
176
     1
 90
        2
176
     1
 90
        1
176
     1
 40
1.0
176
     1
 90
        8
176
     1
 62
   257
176
     1
 40
1.0
176
     1
 90
        1
176
     1
 90
        6
176
     1
 90
        2
176
     1
 62
     7
176
     1
 90
        3
176
     1
 90
        0
176
     1
 90
        0
176
     1
290
     0
176
     1
 90
        5
176
     1
 40
0.0
176
     1
 90
        0
176
     1
290
     0
176
     1
290
     1
176
     1
290
     1
176
     1
290
     0
176
     1
290
     0
176
     1
290
     0
176
     1
290
     0
176
     1
290
     0
176
     1
290
     0
176
     1
 90
       50
176
     1
 40
0.0
176
     1
 40
1.0
176
     1
 90
        0
176
     1
 62
    18
420
        0
176
     1
 90
       50
176
     1
 90
        3
176
     1
 62
     5
420
      255
176
     1
290
     0
176
     1
 90
       50
176
     1
 90
       50
176
     1
 90
       50
176
     1
290
     0
176
     1
 90
       50
176
     1
 62
   256
176
     0
 40
1.0
176
     0
 90
        2
176
     1
  1
strokes_ogs.tif
176
     1
290
     0
176
     1
 40
1.0
176
     1
 40
1.0
176
     1
  0
VISUALSTYLE
  5
3A
102
{ACAD_REACTORS
330
29
102
}
330
29
100
AcDbVisualStyle
  2
Shades of Gray
 70
    23
177
     3
291
     0
 70
    58
 90
        2
176
     1
 90
        2
176
     1
 90
        3
176
     1
 90
        0
176
     1
 40
0.6
176
     1
 40
30.0
176
     1
 62
     7
420
 16777215
176
     1
 90
        2
176
     1
 90
        2
176
     1
 62
     7
176
     1
 62
     7
176
     1
 90
        1
176
     1
 90
        1
176
     1
 40
40.0
176
     1
 90
        8
176
     1
 62
     7
176
     1
 40
1.0
176
     1
 90
        1
176
     1
 90
        6
176
     1
 90
        2
176
     1
 62
     7
176
     1
 90
        3
176
     1
 90
        0
176
     1
 90
        0
176
     1
290
     0
176
     1
 90
        1
176
     1
 40
0.0
176
     1
 90
        0
176
     1
290
     0
176
     1
290
     1
176
     1
290
     1
176
     1
290
     0
176
     1
290
     0
176
     1
290
     0
176
     1
290
     0
176
     1
290
     0
176
     1
290
     0
176
     1
 90
       50
176
     1
 40
0.0
176
     1
 40
1.0
176
     1
 90
        0
176
     1
 62
    18
420
        0
176
     1
 90
       50
176
     1
 90
        3
176
     1
 62
     5
420
      255
176
     1
290
     0
176
     1
 90
       50
176
     1
 90
       50
176
     1
 90
       50
176
     1
290
     0
176
     1
 90
       50
176
     1
 62
   256
176
     0
 40
1.0
176
     0
 90
        2
176
     1
  1
strokes_ogs.tif
176
     1
290
     0
176
     1
 40
1.0
176
     1
 40
1.0
176
     1
  0
VISUALSTYLE
  5
3B
102
{ACAD_REACTORS
330
29
102
}
330
29
100
AcDbVisualStyle
  2
Sketchy
 70
    24
177
     3
291
     0
 70
    58
 90
        1
176
     1
 90
        2
176
     1
 90
        2
176
     1
 90
        0
176
     1
 40
0.6
176
     1
 40
30.0
176
     1
 62
     7
420
 16777215
176
     1
 90
        2
176
     1
 90
        2
176
     1
 62
     7
176
     1
 62
     7
176
     1
 90
        1
176
     1
 90
        1
176
     1
 40
40.0
176
     1
 90
       11
176
     1
 62
     7
176
     1
 40
1.0
176
     1
 90
        1
176
     1
 90
        6
176
     1
 90
        2
176
     1
 62
     7
176
     1
 90
        6
176
     1
 90
        0
176
     1
 90
        0
176
     1
290
     0
176
     1
 90
        1
176
     1
 40
0.0
176
     1
 90
        0
176
     1
290
     0
176
     1
290
     1
176
     1
290
     1
176
     1
290
     0
176
     1
290
     0
176
     1
290
     0
176
     1
290
     0
176
     1
290
     0
176
     1
290
     0
176
     1
 90
       50
176
     1
 40
0.0
176
     1
 40
1.0
176
     1
 90
        0
176
     1
 62
    18
420
        0
176
     1
 90
       50
176
     1
 90
        3
176
     1
 62
     5
420
      255
176
     1
290
     0
176
     1
 90
       50
176
     1
 90
       50
176
     1
 90
       50
176
     1
290
     0
176
     1
 90
       50
176
     1
 62
   256
176
     0
 40
1.0
176
     0
 90
        2
176
     1
  1
strokes_ogs.tif
176
     1
290
     0
176
     1
 40
1.0
176
     1
 40
1.0
176
     1
  0
VISUALSTYLE
  5
36
102
{ACAD_REACTORS
330
29
102
}
330
29
100
AcDbVisualStyle
  2
Thicken
 70
    13
177
     3
291
     1
 70
    58
 90
        2
176
     1
 90
        2
176
     1
 90
        0
176
     1
 90
        0
176
     1
 40
0.6
176
     1
 40
30.0
176
     1
 62
     7
420
 16777215
176
     1
 90
        1
176
     1
 90
        4
176
     1
 62
     7
176
     1
 62
   257
176
     1
 90
        1
176
     1
 90
        1
176
     1
 40
1.0
176
     1
 90
       12
176
     1
 62
     7
176
     1
 40
1.0
176
     1
 90
        1
176
     1
 90
        6
176
     1
 90
        2
176
     1
 62
     7
176
     1
 90
        5
176
     1
 90
        0
176
     1
 90
        0
176
     1
290
     0
176
     1
 90
        1
176
     1
 40
0.0
176
     1
 90
        0
176
     1
290
     0
176
     1
290
     1
176
     1
290
     1
176
     1
290
     0
176
     1
290
     0
176
     1
290
     0
176
     1
290
     0
176
     1
290
     0
176
     1
290
     0
176
     1
 90
       50
176
     1
 40
0.0
176
     1
 40
1.0
176
     1
 90
        0
176
     1
 62
    18
420
        0
176
     1
 90
       50
176
     1
 90
        3
176
     1
 62
     5
420
      255
176
     1
290
     0
176
     1
 90
       50
176
     1
 90
       50
176
     1
 90
       50
176
     1
290
     0
176
     1
 90
       50
176
     1
 62
   256
176
     0
 40
1.0
176
     0
 90
        2
176
     1
  1
strokes_ogs.tif
176
     1
290
     0
176
     1
 40
1.0
176
     1
 40
1.0
176
     1
  0
VISUALSTYLE
  5
30
102
{ACAD_REACTORS
330
29
102
}
330
29
100
AcDbVisualStyle
  2
Wireframe
 70
     5
177
     3
291
     0
 70
    58
 90
        0
176
     1
 90
        2
176
     1
 90
        0
176
     1
 90
        0
176
     1
 40
0.6
176
     1
 40
30.0
176
     1
 62
     7
420
 16777215
176
     1
 90
        1
176
     1
 90
        4
176
     1
 62
     7
176
     1
 62
   257
176
     1
 90
        1
176
     1
 90
        1
176
     1
 40
1.0
176
     1
 90
        0
176
     1
 62
   257
176
     1
 40
1.0
176
     1
 90
        1
176
     1
 90
        6
176
     1
 90
        2
176
     1
 62
     7
176
     1
 90
        3
176
     1
 90
        0
176
     1
 90
        0
176
     1
290
     0
176
     1
 90
        1
176
     1
 40
0.0
176
     1
 90
        0
176
     1
290
     0
176
     1
290
     1
176
     1
290
     1
176
     1
290
     0
176
     1
290
     0
176
     1
290
     0
176
     1
290
     0
176
     1
290
     0
176
     1
290
     0
176
     1
 90
       50
176
     1
 40
0.0
176
     1
 40
1.0
176
     1
 90
        0
176
     1
 62
    18
420
        0
176
     1
 90
       50
176
     1
 90
        3
176
     1
 62
     5
420
      255
176
     1
290
     0
176
     1
 90
       50
176
     1
 90
       50
176
     1
 90
       50
176
     1
290
     0
176
     1
 90
       50
176
     1
 62
   256
176
     0
 40
1.0
176
     0
 90
        2
176
     1
  1
strokes_ogs.tif
176
     1
290
     0
176
     1
 40
1.0
176
     1
 40
1.0
176
     1
  0
VISUALSTYLE
  5
3C
102
{ACAD_REACTORS
330
29
102
}
330
29
100
AcDbVisualStyle
  2
X-Ray
 70
    25
177
     3
291
     0
 70
    58
 90
        2
176
     1
 90
        2
176
     1
 90
        1
176
     1
 90
        1
176
     1
 40
0.5
176
     1
 40
30.0
176
     1
 62
     7
420
 16777215
176
     1
 90
        1
176
     1
 90
        0
176
     1
 62
     7
176
     1
 62
   257
176
     1
 90
        1
176
     1
 90
        1
176
     1
 40
1.0
176
     1
 90
        8
176
     1
 62
     7
176
     1
 40
1.0
176
     1
 90
        1
176
     1
 90
        6
176
     1
 90
        2
176
     1
 62
     7
176
     1
 90
        3
176
     1
 90
        0
176
     1
 90
        0
176
     1
290
     0
176
     1
 90
       13
176
     1
 40
0.0
176
     1
 90
        0
176
     1
290
     0
176
     1
290
     1
176
     1
290
     1
176
     1
290
     0
176
     1
290
     0
176
     1
290
     0
176
     1
290
     0
176
     1
290
     0
176
     1
290
     0
176
     1
 90
       50
176
     1
 40
0.0
176
     1
 40
1.0
176
     1
 90
        0
176
     1
 62
    18
420
        0
176
     1
 90
       50
176
     1
 90
        3
176
     1
 62
     5
420
      255
176
     1
290
     0
176
     1
 90
       50
176
     1
 90
       50
176
     1
 90
       50
176
     1
290
     0
176
     1
 90
       50
176
     1
 62
   256
176
     0
 40
1.0
176
     0
 90
        2
176
     1
  1
strokes_ogs.tif
176
     1
290
     0
176
     1
 40
1.0
176
     1
 40
1.0
176
     1
  0
DICTIONARYVAR
  5
2EE
102
{ACAD_REACTORS
330
2E9
102
}
330
2E9
100
DictionaryVariables
280
     0
  1
1:1
  0
DICTIONARYVAR
  5
2EB
102
{ACAD_REACTORS
330
2E9
102
}
330
2E9
100
DictionaryVariables
280
     0
  1
STANDARD
  0
DICTIONARYVAR
  5
2EA
102
{ACAD_REACTORS
330
2E9
102
}
330
2E9
100
DictionaryVariables
280
     0
  1
STANDARD
  0
DICTIONARYVAR
  5
2EC
102
{ACAD_REACTORS
330
2E9
102
}
330
2E9
100
DictionaryVariables
280
     0
  1
Imperial24
  0
DICTIONARYVAR
  5
2ED
102
{ACAD_REACTORS
330
2E9
102
}
330
2E9
100
DictionaryVariables
280
     0
  1
Imperial24
  0
DICTIONARY
  5
1A
330
19
100
AcDbDictionary
280
     1
281
     1
  3
BUMPTILE
360
1C
  3
DIFFUSETILE
360
1B
  3
OPACITYTILE
360
1F
  3
REFLECTIONTILE
360
1E
  3
REFRACTIONTILE
360
20
  3
SPECULARTILE
360
1D
  0
DICTIONARY
  5
12
330
11
100
AcDbDictionary
280
     1
281
     1
  3
BUMPTILE
360
14
  3
DIFFUSETILE
360
13
  3
OPACITYTILE
360
17
  3
REFLECTIONTILE
360
16
  3
REFRACTIONTILE
360
18
  3
SPECULARTILE
360
15
  0
DICTIONARY
  5
22
330
21
100
AcDbDictionary
280
     1
281
     1
  3
BUMPTILE
360
24
  3
DIFFUSETILE
360
23
  3
OPACITYTILE
360
27
  3
REFLECTIONTILE
360
26
  3
REFRACTIONTILE
360
28
  3
SPECULARTILE
360
25
  0
DICTIONARY
  5
2EF
330
65
100
AcDbDictionary
280
     1
281
     1
  3
ACAD_ROUNDTRIP_2008_TABLESTYLE_CELLSTYLEMAP
360
2F0
  0
XRECORD
  5
1C
102
{ACAD_REACTORS
330
1A
102
}
330
1A
100
AcDbXrecord
280
     1
270
     1
271
     1
  0
XRECORD
  5
1B
102
{ACAD_REACTORS
330
1A
102
}
330
1A
100
AcDbXrecord
280
     1
270
     1
271
     1
  0
XRECORD
  5
1F
102
{ACAD_REACTORS
330
1A
102
}
330
1A
100
AcDbXrecord
280
     1
270
     1
271
     1
  0
XRECORD
  5
1E
102
{ACAD_REACTORS
330
1A
102
}
330
1A
100
AcDbXrecord
280
     1
270
     1
271
     1
  0
XRECORD
  5
20
102
{ACAD_REACTORS
330
1A
102
}
330
1A
100
AcDbXrecord
280
     1
270
     1
271
     1
  0
XRECORD
  5
1D
102
{ACAD_REACTORS
330
1A
102
}
330
1A
100
AcDbXrecord
280
     1
270
     1
271
     1
  0
XRECORD
  5
14
102
{ACAD_REACTORS
330
12
102
}
330
12
100
AcDbXrecord
280
     1
270
     1
271
     1
  0
XRECORD
  5
13
102
{ACAD_REACTORS
330
12
102
}
330
12
100
AcDbXrecord
280
     1
270
     1
271
     1
  0
XRECORD
  5
17
102
{ACAD_REACTORS
330
12
102
}
330
12
100
AcDbXrecord
280
     1
270
     1
271
     1
  0
XRECORD
  5
16
102
{ACAD_REACTORS
330
12
102
}
330
12
100
AcDbXrecord
280
     1
270
     1
271
     1
  0
XRECORD
  5
18
102
{ACAD_REACTORS
330
12
102
}
330
12
100
AcDbXrecord
280
     1
270
     1
271
     1
  0
XRECORD
  5
15
102
{ACAD_REACTORS
330
12
102
}
330
12
100
AcDbXrecord
280
     1
270
     1
271
     1
  0
XRECORD
  5
24
102
{ACAD_REACTORS
330
22
102
}
330
22
100
AcDbXrecord
280
     1
270
     1
271
     1
  0
XRECORD
  5
23
102
{ACAD_REACTORS
330
22
102
}
330
22
100
AcDbXrecord
280
     1
270
     1
271
     1
  0
XRECORD
  5
27
102
{ACAD_REACTORS
330
22
102
}
330
22
100
AcDbXrecord
280
     1
270
     1
271
     1
  0
XRECORD
  5
26
102
{ACAD_REACTORS
330
22
102
}
330
22
100
AcDbXrecord
280
     1
270
     1
271
     1
  0
XRECORD
  5
28
102
{ACAD_REACTORS
330
22
102
}
330
22
100
AcDbXrecord
280
     1
270
     1
271
     1
  0
XRECORD
  5
25
102
{ACAD_REACTORS
330
22
102
}
330
22
100
AcDbXrecord
280
     1
270
     1
271
     1
  0
CELLSTYLEMAP
  5
2F0
102
{ACAD_REACTORS
330
2EF
102
}
330
2EF
100
AcDbCellStyleMap
 90
        3
300
CELLSTYLE
  1
TABLEFORMAT_BEGIN
 90
        5
170
     1
 91
        0
 92
    32768
 62
   257
 93
        1
300
CONTENTFORMAT
  1
CONTENTFORMAT_BEGIN
 90
        0
 91
        0
 92
      512
 93
        0
300

 40
0.0
140
1.0
 94
        5
 62
     0
340
55
144
0.25
309
CONTENTFORMAT_END
171
     0
 94
        0
309
TABLEFORMAT_END
  1
CELLSTYLE_BEGIN
 90
        1
 91
        1
300
_TITLE
309
CELLSTYLE_END
300
CELLSTYLE
  1
TABLEFORMAT_BEGIN
 90
        5
170
     1
 91
        0
 92
        0
 62
   257
 93
        1
300
CONTENTFORMAT
  1
CONTENTFORMAT_BEGIN
 90
        0
 91
        0
 92
      512
 93
        0
300

 40
0.0
140
1.0
 94
        5
 62
     0
340
55
144
0.18
309
CONTENTFORMAT_END
171
     0
 94
        0
309
TABLEFORMAT_END
  1
CELLSTYLE_BEGIN
 90
        2
 91
        1
300
_HEADER
309
CELLSTYLE_END
300
CELLSTYLE
  1
TABLEFORMAT_BEGIN
 90
        5
170
     1
 91
        0
 92
        0
 62
   257
 93
        1
300
CONTENTFORMAT
  1
CONTENTFORMAT_BEGIN
 90
        0
 91
        0
 92
      512
 93
        0
300

 40
0.0
140
1.0
 94
        2
 62
     0
340
55
144
0.18
309
CONTENTFORMAT_END
171
     0
 94
        0
309
TABLEFORMAT_END
  1
CELLSTYLE_BEGIN
 90
        3
 91
        2
300
_DATA
309
CELLSTYLE_END
  0
ENDSEC
  0
EOF
