<?xml version="1.0" standalone="no"?>
 <!DOCTYPE svg PUBLIC "-//W3C//DTD SVG 1.1//EN" 
 "http://www.w3.org/Graphics/SVG/1.1/DTD/svg11.dtd"> 
<svg
  xmlns:svg="http://www.w3.org/2000/svg"
  xmlns="http://www.w3.org/2000/svg"
  xmlns:xlink="http://www.w3.org/1999/xlink"
  version="1.1"
  width="41.998900cm" height="29.700220cm" viewBox="0 0 419989000 297002200">
<title>SVG Picture created as ByranTK-Alpha-F_Silkscreen.svg date 2021/08/31 13:14:53 </title>
  <desc>Picture generated by PCBNEW </desc>
<g style="fill:#000000; fill-opacity:1.000000;stroke:#000000; stroke-opacity:1.000000;
stroke-linecap:round; stroke-linejoin:round;"
 transform="translate(0 0) scale(1 1)">
</g>
<g style="fill:#000000; fill-opacity:0.0; 
stroke:#000000; stroke-width:0.000000; stroke-opacity:1; 
stroke-linecap:round; stroke-linejoin:round;">
</g>
<g style="fill:#000000; fill-opacity:0.0; 
stroke:#000000; stroke-width:300000.000000; stroke-opacity:1; 
stroke-linecap:round; stroke-linejoin:round;">
<text x="199960000.000000" y="198200000.000000"
textLength="4909286.000000" font-size="2000000.000000" lengthAdjust="spacingAndGlyphs"
text-anchor="middle" opacity="0">v1.0</text>
<g class="stroked-text"><desc>v1.0</desc>
<path d="M197817142 197128571
L198174285 198128571
L198531428 197128571
" />
<path d="M199888571 198128571
L199031428 198128571
" />
<path d="M199460000 198128571
L199460000 196628571
L199317142 196842857
L199174285 196985714
L199031428 197057142
" />
<path d="M200531428 197985714
L200602857 198057142
L200531428 198128571
L200460000 198057142
L200531428 197985714
L200531428 198128571
" />
<path d="M201531428 196628571
L201674285 196628571
L201817142 196700000
L201888571 196771428
L201960000 196914285
L202031428 197200000
L202031428 197557142
L201960000 197842857
L201888571 197985714
L201817142 198057142
L201674285 198128571
L201531428 198128571
L201388571 198057142
L201317142 197985714
L201245714 197842857
L201174285 197557142
L201174285 197200000
L201245714 196914285
L201317142 196771428
L201388571 196700000
L201531428 196628571
" />
</g><text x="172000000.000000" y="198200000.000000"
textLength="17318571.000000" font-size="2000000.000000" lengthAdjust="spacingAndGlyphs"
text-anchor="middle" opacity="0">ByranTK-Alpha</text>
<g class="stroked-text"><desc>ByranTK-Alpha</desc>
<path d="M164392857 197342857
L164607142 197414285
L164678571 197485714
L164750000 197628571
L164750000 197842857
L164678571 197985714
L164607142 198057142
L164464285 198128571
L163892857 198128571
L163892857 196628571
L164392857 196628571
L164535714 196700000
L164607142 196771428
L164678571 196914285
L164678571 197057142
L164607142 197200000
L164535714 197271428
L164392857 197342857
L163892857 197342857
" />
<path d="M165250000 197128571
L165607142 198128571
" />
<path d="M165964285 197128571
L165607142 198128571
L165464285 198485714
L165392857 198557142
L165250000 198628571
" />
<path d="M166535714 198128571
L166535714 197128571
" />
<path d="M166535714 197414285
L166607142 197271428
L166678571 197200000
L166821428 197128571
L166964285 197128571
" />
<path d="M168107142 198128571
L168107142 197342857
L168035714 197200000
L167892857 197128571
L167607142 197128571
L167464285 197200000
" />
<path d="M168107142 198057142
L167964285 198128571
L167607142 198128571
L167464285 198057142
L167392857 197914285
L167392857 197771428
L167464285 197628571
L167607142 197557142
L167964285 197557142
L168107142 197485714
" />
<path d="M168821428 197128571
L168821428 198128571
" />
<path d="M168821428 197271428
L168892857 197200000
L169035714 197128571
L169250000 197128571
L169392857 197200000
L169464285 197342857
L169464285 198128571
" />
<path d="M169964285 196628571
L170821428 196628571
" />
<path d="M170392857 198128571
L170392857 196628571
" />
<path d="M171321428 198128571
L171321428 196628571
" />
<path d="M172178571 198128571
L171535714 197271428
" />
<path d="M172178571 196628571
L171321428 197485714
" />
<path d="M172821428 197557142
L173964285 197557142
" />
<path d="M174607142 197700000
L175321428 197700000
" />
<path d="M174464285 198128571
L174964285 196628571
L175464285 198128571
" />
<path d="M176178571 198128571
L176035714 198057142
L175964285 197914285
L175964285 196628571
" />
<path d="M176750000 197128571
L176750000 198628571
" />
<path d="M176750000 197200000
L176892857 197128571
L177178571 197128571
L177321428 197200000
L177392857 197271428
L177464285 197414285
L177464285 197842857
L177392857 197985714
L177321428 198057142
L177178571 198128571
L176892857 198128571
L176750000 198057142
" />
<path d="M178107142 198128571
L178107142 196628571
" />
<path d="M178750000 198128571
L178750000 197342857
L178678571 197200000
L178535714 197128571
L178321428 197128571
L178178571 197200000
L178107142 197271428
" />
<path d="M180107142 198128571
L180107142 197342857
L180035714 197200000
L179892857 197128571
L179607142 197128571
L179464285 197200000
" />
<path d="M180107142 198057142
L179964285 198128571
L179607142 198128571
L179464285 198057142
L179392857 197914285
L179392857 197771428
L179464285 197628571
L179607142 197557142
L179964285 197557142
L180107142 197485714
" />
</g></g>
<g style="fill:#000000; fill-opacity:0.0; 
stroke:#000000; stroke-width:150000.000000; stroke-opacity:1; 
stroke-linecap:round; stroke-linejoin:round;">
<text x="318820000.000000" y="165150000.000000"
textLength="2390000.000000" font-size="1333333.000000" lengthAdjust="spacingAndGlyphs"
text-anchor="middle" opacity="0">H5</text>
<g class="stroked-text"><desc>H5</desc>
<path d="M318058095 165102380
L318058095 164102380
" />
<path d="M318058095 164578571
L318629523 164578571
" />
<path d="M318629523 165102380
L318629523 164102380
" />
<path d="M319581904 164102380
L319105714 164102380
L319058095 164578571
L319105714 164530952
L319200952 164483333
L319439047 164483333
L319534285 164530952
L319581904 164578571
L319629523 164673809
L319629523 164911904
L319581904 165007142
L319534285 165054761
L319439047 165102380
L319200952 165102380
L319105714 165054761
L319058095 165007142
" />
</g><text x="83820000.000000" y="88150000.000000"
textLength="2195000.000000" font-size="1333333.000000" lengthAdjust="spacingAndGlyphs"
text-anchor="middle" opacity="0">H1</text>
<g class="stroked-text"><desc>H1</desc>
<path d="M83058095 88102380
L83058095 87102380
" />
<path d="M83058095 87578571
L83629523 87578571
" />
<path d="M83629523 88102380
L83629523 87102380
" />
<path d="M84629523 88102380
L84058095 88102380
" />
<path d="M84343809 88102380
L84343809 87102380
L84248571 87245238
L84153333 87340476
L84058095 87388095
" />
</g><text x="339820000.000000" y="107150000.000000"
textLength="2195000.000000" font-size="1333333.000000" lengthAdjust="spacingAndGlyphs"
text-anchor="middle" opacity="0">H6</text>
<g class="stroked-text"><desc>H6</desc>
<path d="M339058095 107102380
L339058095 106102380
" />
<path d="M339058095 106578571
L339629523 106578571
" />
<path d="M339629523 107102380
L339629523 106102380
" />
<path d="M340534285 106102380
L340343809 106102380
L340248571 106150000
L340200952 106197619
L340105714 106340476
L340058095 106530952
L340058095 106911904
L340105714 107007142
L340153333 107054761
L340248571 107102380
L340439047 107102380
L340534285 107054761
L340581904 107007142
L340629523 106911904
L340629523 106673809
L340581904 106578571
L340534285 106530952
L340439047 106483333
L340248571 106483333
L340153333 106530952
L340105714 106578571
L340058095 106673809
" />
</g><text x="361057191.000000" y="118816700.000000"
textLength="2480714.000000" font-size="1066666.000000" lengthAdjust="spacingAndGlyphs"
text-anchor="middle" opacity="0">113</text>
<g class="stroked-text"><desc>113</desc>
<path d="M360523857 118778604
L360066714 118778604
" />
<path d="M360295286 118778604
L360295286 117978604
L360219095 118092890
L360142905 118169080
L360066714 118207176
" />
<path d="M361285762 118778604
L360828619 118778604
" />
<path d="M361057191 118778604
L361057191 117978604
L360981000 118092890
L360904810 118169080
L360828619 118207176
" />
<path d="M361552429 117978604
L362047667 117978604
L361781000 118283366
L361895286 118283366
L361971476 118321461
L362009571 118359557
L362047667 118435747
L362047667 118626223
L362009571 118702414
L361971476 118740509
L361895286 118778604
L361666714 118778604
L361590524 118740509
L361552429 118702414
" />
</g><text x="349982810.000000" y="111266700.000000"
textLength="2480714.000000" font-size="1066666.000000" lengthAdjust="spacingAndGlyphs"
text-anchor="middle" opacity="0">020</text>
<g class="stroked-text"><desc>020</desc>
<path d="M349182810 110428604
L349259000 110428604
L349335190 110466700
L349373286 110504795
L349411381 110580985
L349449476 110733366
L349449476 110923842
L349411381 111076223
L349373286 111152414
L349335190 111190509
L349259000 111228604
L349182810 111228604
L349106619 111190509
L349068524 111152414
L349030429 111076223
L348992333 110923842
L348992333 110733366
L349030429 110580985
L349068524 110504795
L349106619 110466700
L349182810 110428604
" />
<path d="M349754238 110504795
L349792333 110466700
L349868524 110428604
L350059000 110428604
L350135190 110466700
L350173286 110504795
L350211381 110580985
L350211381 110657176
L350173286 110771461
L349716143 111228604
L350211381 111228604
" />
<path d="M350706619 110428604
L350782810 110428604
L350859000 110466700
L350897095 110504795
L350935190 110580985
L350973286 110733366
L350973286 110923842
L350935190 111076223
L350897095 111152414
L350859000 111190509
L350782810 111228604
L350706619 111228604
L350630429 111190509
L350592333 111152414
L350554238 111076223
L350516143 110923842
L350516143 110733366
L350554238 110580985
L350592333 110504795
L350630429 110466700
L350706619 110428604
" />
</g><text x="349982810.000000" y="108666700.000000"
textLength="2480714.000000" font-size="1066666.000000" lengthAdjust="spacingAndGlyphs"
text-anchor="middle" opacity="0">017</text>
<g class="stroked-text"><desc>017</desc>
<path d="M349182810 107828604
L349259000 107828604
L349335190 107866700
L349373286 107904795
L349411381 107980985
L349449476 108133366
L349449476 108323842
L349411381 108476223
L349373286 108552414
L349335190 108590509
L349259000 108628604
L349182810 108628604
L349106619 108590509
L349068524 108552414
L349030429 108476223
L348992333 108323842
L348992333 108133366
L349030429 107980985
L349068524 107904795
L349106619 107866700
L349182810 107828604
" />
<path d="M350211381 108628604
L349754238 108628604
" />
<path d="M349982810 108628604
L349982810 107828604
L349906619 107942890
L349830429 108019080
L349754238 108057176
" />
<path d="M350478048 107828604
L351011381 107828604
L350668524 108628604
" />
</g><text x="349982810.000000" y="116276700.000000"
textLength="2480714.000000" font-size="1066666.000000" lengthAdjust="spacingAndGlyphs"
text-anchor="middle" opacity="0">024</text>
<g class="stroked-text"><desc>024</desc>
<path d="M349182810 115438604
L349259000 115438604
L349335190 115476700
L349373286 115514795
L349411381 115590985
L349449476 115743366
L349449476 115933842
L349411381 116086223
L349373286 116162414
L349335190 116200509
L349259000 116238604
L349182810 116238604
L349106619 116200509
L349068524 116162414
L349030429 116086223
L348992333 115933842
L348992333 115743366
L349030429 115590985
L349068524 115514795
L349106619 115476700
L349182810 115438604
" />
<path d="M349754238 115514795
L349792333 115476700
L349868524 115438604
L350059000 115438604
L350135190 115476700
L350173286 115514795
L350211381 115590985
L350211381 115667176
L350173286 115781461
L349716143 116238604
L350211381 116238604
" />
<path d="M350897095 115705271
L350897095 116238604
" />
<path d="M350706619 115400509
L350516143 115971938
L351011381 115971938
" />
</g><text x="361057191.000000" y="121356700.000000"
textLength="2480714.000000" font-size="1066666.000000" lengthAdjust="spacingAndGlyphs"
text-anchor="middle" opacity="0">111</text>
<g class="stroked-text"><desc>111</desc>
<path d="M360523857 121318604
L360066714 121318604
" />
<path d="M360295286 121318604
L360295286 120518604
L360219095 120632890
L360142905 120709080
L360066714 120747176
" />
<path d="M361285762 121318604
L360828619 121318604
" />
<path d="M361057191 121318604
L361057191 120518604
L360981000 120632890
L360904810 120709080
L360828619 120747176
" />
<path d="M362047667 121318604
L361590524 121318604
" />
<path d="M361819095 121318604
L361819095 120518604
L361742905 120632890
L361666714 120709080
L361590524 120747176
" />
</g><text x="349982810.000000" y="123896700.000000"
textLength="2480714.000000" font-size="1066666.000000" lengthAdjust="spacingAndGlyphs"
text-anchor="middle" opacity="0">104</text>
<g class="stroked-text"><desc>104</desc>
<path d="M349449476 123858604
L348992333 123858604
" />
<path d="M349220905 123858604
L349220905 123058604
L349144714 123172890
L349068524 123249080
L348992333 123287176
" />
<path d="M349944714 123058604
L350020905 123058604
L350097095 123096700
L350135190 123134795
L350173286 123210985
L350211381 123363366
L350211381 123553842
L350173286 123706223
L350135190 123782414
L350097095 123820509
L350020905 123858604
L349944714 123858604
L349868524 123820509
L349830429 123782414
L349792333 123706223
L349754238 123553842
L349754238 123363366
L349792333 123210985
L349830429 123134795
L349868524 123096700
L349944714 123058604
" />
<path d="M350897095 123325271
L350897095 123858604
" />
<path d="M350706619 123020509
L350516143 123591938
L351011381 123591938
" />
</g><text x="349982810.000000" y="113766700.000000"
textLength="2480714.000000" font-size="1066666.000000" lengthAdjust="spacingAndGlyphs"
text-anchor="middle" opacity="0">022</text>
<g class="stroked-text"><desc>022</desc>
<path d="M349182810 112928604
L349259000 112928604
L349335190 112966700
L349373286 113004795
L349411381 113080985
L349449476 113233366
L349449476 113423842
L349411381 113576223
L349373286 113652414
L349335190 113690509
L349259000 113728604
L349182810 113728604
L349106619 113690509
L349068524 113652414
L349030429 113576223
L348992333 113423842
L348992333 113233366
L349030429 113080985
L349068524 113004795
L349106619 112966700
L349182810 112928604
" />
<path d="M349754238 113004795
L349792333 112966700
L349868524 112928604
L350059000 112928604
L350135190 112966700
L350173286 113004795
L350211381 113080985
L350211381 113157176
L350173286 113271461
L349716143 113728604
L350211381 113728604
" />
<path d="M350516143 113004795
L350554238 112966700
L350630429 112928604
L350820905 112928604
L350897095 112966700
L350935190 113004795
L350973286 113080985
L350973286 113157176
L350935190 113271461
L350478048 113728604
L350973286 113728604
" />
</g><text x="350059000.000000" y="106116700.000000"
textLength="2633095.000000" font-size="1066666.000000" lengthAdjust="spacingAndGlyphs"
text-anchor="middle" opacity="0">GND</text>
<g class="stroked-text"><desc>GND</desc>
<path d="M349449476 105316700
L349373285 105278604
L349259000 105278604
L349144714 105316700
L349068523 105392890
L349030428 105469080
L348992333 105621461
L348992333 105735747
L349030428 105888128
L349068523 105964319
L349144714 106040509
L349259000 106078604
L349335190 106078604
L349449476 106040509
L349487571 106002414
L349487571 105735747
L349335190 105735747
" />
<path d="M349830428 106078604
L349830428 105278604
L350287571 106078604
L350287571 105278604
" />
<path d="M350668523 106078604
L350668523 105278604
L350859000 105278604
L350973285 105316700
L351049476 105392890
L351087571 105469080
L351125666 105621461
L351125666 105735747
L351087571 105888128
L351049476 105964319
L350973285 106040509
L350859000 106078604
L350668523 106078604
" />
</g></g>
<g style="fill:#000000; fill-opacity:0.0; 
stroke:#000000; stroke-width:300000.000000; stroke-opacity:1; 
stroke-linecap:round; stroke-linejoin:round;">
<text x="355774000.000000" y="126278700.000000"
textLength="10980714.000000" font-size="2000000.000000" lengthAdjust="spacingAndGlyphs"
text-anchor="middle" opacity="0">nice!nano</text>
<g class="stroked-text"><desc>nice!nano</desc>
<path d="M350738285 125207271
L350738285 126207271
" />
<path d="M350738285 125350128
L350809714 125278700
L350952571 125207271
L351166857 125207271
L351309714 125278700
L351381142 125421557
L351381142 126207271
" />
<path d="M352095428 126207271
L352095428 125207271
" />
<path d="M352095428 124707271
L352024000 124778700
L352095428 124850128
L352166857 124778700
L352095428 124707271
L352095428 124850128
" />
<path d="M353452571 126135842
L353309714 126207271
L353024000 126207271
L352881142 126135842
L352809714 126064414
L352738285 125921557
L352738285 125492985
L352809714 125350128
L352881142 125278700
L353024000 125207271
L353309714 125207271
L353452571 125278700
" />
<path d="M354666857 126135842
L354524000 126207271
L354238285 126207271
L354095428 126135842
L354024000 125992985
L354024000 125421557
L354095428 125278700
L354238285 125207271
L354524000 125207271
L354666857 125278700
L354738285 125421557
L354738285 125564414
L354024000 125707271
" />
<path d="M355381142 126064414
L355452571 126135842
L355381142 126207271
L355309714 126135842
L355381142 126064414
L355381142 126207271
" />
<path d="M355381142 125635842
L355309714 124778700
L355381142 124707271
L355452571 124778700
L355381142 125635842
L355381142 124707271
" />
<path d="M356095428 125207271
L356095428 126207271
" />
<path d="M356095428 125350128
L356166857 125278700
L356309714 125207271
L356524000 125207271
L356666857 125278700
L356738285 125421557
L356738285 126207271
" />
<path d="M358095428 126207271
L358095428 125421557
L358024000 125278700
L357881142 125207271
L357595428 125207271
L357452571 125278700
" />
<path d="M358095428 126135842
L357952571 126207271
L357595428 126207271
L357452571 126135842
L357381142 125992985
L357381142 125850128
L357452571 125707271
L357595428 125635842
L357952571 125635842
L358095428 125564414
" />
<path d="M358809714 125207271
L358809714 126207271
" />
<path d="M358809714 125350128
L358881142 125278700
L359024000 125207271
L359238285 125207271
L359381142 125278700
L359452571 125421557
L359452571 126207271
" />
<path d="M360381142 126207271
L360238285 126135842
L360166857 126064414
L360095428 125921557
L360095428 125492985
L360166857 125350128
L360238285 125278700
L360381142 125207271
L360595428 125207271
L360738285 125278700
L360809714 125350128
L360881142 125492985
L360881142 125921557
L360809714 126064414
L360738285 126135842
L360595428 126207271
L360381142 126207271
" />
</g></g>
<g style="fill:#000000; fill-opacity:0.0; 
stroke:#000000; stroke-width:150000.000000; stroke-opacity:1; 
stroke-linecap:round; stroke-linejoin:round;">
<text x="361057191.000000" y="108656700.000000"
textLength="2675714.000000" font-size="1066666.000000" lengthAdjust="spacingAndGlyphs"
text-anchor="middle" opacity="0">031</text>
<g class="stroked-text"><desc>031</desc>
<path d="M360257191 107818604
L360333381 107818604
L360409571 107856700
L360447667 107894795
L360485762 107970985
L360523857 108123366
L360523857 108313842
L360485762 108466223
L360447667 108542414
L360409571 108580509
L360333381 108618604
L360257191 108618604
L360181000 108580509
L360142905 108542414
L360104810 108466223
L360066714 108313842
L360066714 108123366
L360104810 107970985
L360142905 107894795
L360181000 107856700
L360257191 107818604
" />
<path d="M360790524 107818604
L361285762 107818604
L361019095 108123366
L361133381 108123366
L361209571 108161461
L361247667 108199557
L361285762 108275747
L361285762 108466223
L361247667 108542414
L361209571 108580509
L361133381 108618604
L360904810 108618604
L360828619 108580509
L360790524 108542414
" />
<path d="M362047667 108618604
L361590524 108618604
" />
<path d="M361819095 108618604
L361819095 107818604
L361742905 107932890
L361666714 108009080
L361590524 108047176
" />
</g><text x="360993715.000000" y="98496700.000000"
textLength="2595000.000000" font-size="1066666.000000" lengthAdjust="spacingAndGlyphs"
text-anchor="middle" opacity="0">RAW</text>
<g class="stroked-text"><desc>RAW</desc>
<path d="M360441334 98458604
L360174667 98077652
" />
<path d="M359984191 98458604
L359984191 97658604
L360288953 97658604
L360365143 97696700
L360403238 97734795
L360441334 97810985
L360441334 97925271
L360403238 98001461
L360365143 98039557
L360288953 98077652
L359984191 98077652
" />
<path d="M360746095 98230033
L361127048 98230033
" />
<path d="M360669905 98458604
L360936572 97658604
L361203238 98458604
" />
<path d="M361393715 97658604
L361584191 98458604
L361736572 97887176
L361888953 98458604
L362079429 97658604
" />
</g><text x="349982810.000000" y="98496700.000000"
textLength="2480714.000000" font-size="1066666.000000" lengthAdjust="spacingAndGlyphs"
text-anchor="middle" opacity="0">006</text>
<g class="stroked-text"><desc>006</desc>
<path d="M349182810 97658604
L349259000 97658604
L349335190 97696700
L349373286 97734795
L349411381 97810985
L349449476 97963366
L349449476 98153842
L349411381 98306223
L349373286 98382414
L349335190 98420509
L349259000 98458604
L349182810 98458604
L349106619 98420509
L349068524 98382414
L349030429 98306223
L348992333 98153842
L348992333 97963366
L349030429 97810985
L349068524 97734795
L349106619 97696700
L349182810 97658604
" />
<path d="M349944714 97658604
L350020905 97658604
L350097095 97696700
L350135190 97734795
L350173286 97810985
L350211381 97963366
L350211381 98153842
L350173286 98306223
L350135190 98382414
L350097095 98420509
L350020905 98458604
L349944714 98458604
L349868524 98420509
L349830429 98382414
L349792333 98306223
L349754238 98153842
L349754238 97963366
L349792333 97810985
L349830429 97734795
L349868524 97696700
L349944714 97658604
" />
<path d="M350897095 97658604
L350744714 97658604
L350668524 97696700
L350630429 97734795
L350554238 97849080
L350516143 98001461
L350516143 98306223
L350554238 98382414
L350592333 98420509
L350668524 98458604
L350820905 98458604
L350897095 98420509
L350935190 98382414
L350973286 98306223
L350973286 98115747
L350935190 98039557
L350897095 98001461
L350820905 97963366
L350668524 97963366
L350592333 98001461
L350554238 98039557
L350516143 98115747
" />
</g><text x="349982810.000000" y="100966700.000000"
textLength="2480714.000000" font-size="1066666.000000" lengthAdjust="spacingAndGlyphs"
text-anchor="middle" opacity="0">008</text>
<g class="stroked-text"><desc>008</desc>
<path d="M349182810 100128604
L349259000 100128604
L349335190 100166700
L349373286 100204795
L349411381 100280985
L349449476 100433366
L349449476 100623842
L349411381 100776223
L349373286 100852414
L349335190 100890509
L349259000 100928604
L349182810 100928604
L349106619 100890509
L349068524 100852414
L349030429 100776223
L348992333 100623842
L348992333 100433366
L349030429 100280985
L349068524 100204795
L349106619 100166700
L349182810 100128604
" />
<path d="M349944714 100128604
L350020905 100128604
L350097095 100166700
L350135190 100204795
L350173286 100280985
L350211381 100433366
L350211381 100623842
L350173286 100776223
L350135190 100852414
L350097095 100890509
L350020905 100928604
L349944714 100928604
L349868524 100890509
L349830429 100852414
L349792333 100776223
L349754238 100623842
L349754238 100433366
L349792333 100280985
L349830429 100204795
L349868524 100166700
L349944714 100128604
" />
<path d="M350668524 100471461
L350592333 100433366
L350554238 100395271
L350516143 100319080
L350516143 100280985
L350554238 100204795
L350592333 100166700
L350668524 100128604
L350820905 100128604
L350897095 100166700
L350935190 100204795
L350973286 100280985
L350973286 100319080
L350935190 100395271
L350897095 100433366
L350820905 100471461
L350668524 100471461
L350592333 100509557
L350554238 100547652
L350516143 100623842
L350516143 100776223
L350554238 100852414
L350592333 100890509
L350668524 100928604
L350820905 100928604
L350897095 100890509
L350935190 100852414
L350973286 100776223
L350973286 100623842
L350935190 100547652
L350897095 100509557
L350820905 100471461
" />
</g><text x="361057191.000000" y="113736700.000000"
textLength="2480714.000000" font-size="1066666.000000" lengthAdjust="spacingAndGlyphs"
text-anchor="middle" opacity="0">002</text>
<g class="stroked-text"><desc>002</desc>
<path d="M360257191 112898604
L360333381 112898604
L360409571 112936700
L360447667 112974795
L360485762 113050985
L360523857 113203366
L360523857 113393842
L360485762 113546223
L360447667 113622414
L360409571 113660509
L360333381 113698604
L360257191 113698604
L360181000 113660509
L360142905 113622414
L360104810 113546223
L360066714 113393842
L360066714 113203366
L360104810 113050985
L360142905 112974795
L360181000 112936700
L360257191 112898604
" />
<path d="M361019095 112898604
L361095286 112898604
L361171476 112936700
L361209571 112974795
L361247667 113050985
L361285762 113203366
L361285762 113393842
L361247667 113546223
L361209571 113622414
L361171476 113660509
L361095286 113698604
L361019095 113698604
L360942905 113660509
L360904810 113622414
L360866714 113546223
L360828619 113393842
L360828619 113203366
L360866714 113050985
L360904810 112974795
L360942905 112936700
L361019095 112898604
" />
<path d="M361590524 112974795
L361628619 112936700
L361704810 112898604
L361895286 112898604
L361971476 112936700
L362009571 112974795
L362047667 113050985
L362047667 113127176
L362009571 113241461
L361552429 113698604
L362047667 113698604
" />
</g><text x="361057191.000000" y="106116700.000000"
textLength="2480714.000000" font-size="1066666.000000" lengthAdjust="spacingAndGlyphs"
text-anchor="middle" opacity="0">VCC</text>
<g class="stroked-text"><desc>VCC</desc>
<path d="M359990524 105278604
L360257191 106078604
L360523857 105278604
" />
<path d="M361247667 106002414
L361209571 106040509
L361095286 106078604
L361019095 106078604
L360904810 106040509
L360828619 105964319
L360790524 105888128
L360752429 105735747
L360752429 105621461
L360790524 105469080
L360828619 105392890
L360904810 105316700
L361019095 105278604
L361095286 105278604
L361209571 105316700
L361247667 105354795
" />
<path d="M362047667 106002414
L362009571 106040509
L361895286 106078604
L361819095 106078604
L361704810 106040509
L361628619 105964319
L361590524 105888128
L361552429 105735747
L361552429 105621461
L361590524 105469080
L361628619 105392890
L361704810 105316700
L361819095 105278604
L361895286 105278604
L362009571 105316700
L362047667 105354795
" />
</g><text x="360974667.000000" y="101036700.000000"
textLength="2633095.000000" font-size="1066666.000000" lengthAdjust="spacingAndGlyphs"
text-anchor="middle" opacity="0">GND</text>
<g class="stroked-text"><desc>GND</desc>
<path d="M360365143 100236700
L360288952 100198604
L360174667 100198604
L360060381 100236700
L359984190 100312890
L359946095 100389080
L359908000 100541461
L359908000 100655747
L359946095 100808128
L359984190 100884319
L360060381 100960509
L360174667 100998604
L360250857 100998604
L360365143 100960509
L360403238 100922414
L360403238 100655747
L360250857 100655747
" />
<path d="M360746095 100998604
L360746095 100198604
L361203238 100998604
L361203238 100198604
" />
<path d="M361584190 100998604
L361584190 100198604
L361774667 100198604
L361888952 100236700
L361965143 100312890
L362003238 100389080
L362041333 100541461
L362041333 100655747
L362003238 100808128
L361965143 100884319
L361888952 100960509
L361774667 100998604
L361584190 100998604
" />
</g><text x="349982810.000000" y="118816700.000000"
textLength="2480714.000000" font-size="1066666.000000" lengthAdjust="spacingAndGlyphs"
text-anchor="middle" opacity="0">100</text>
<g class="stroked-text"><desc>100</desc>
<path d="M349449476 118778604
L348992333 118778604
" />
<path d="M349220905 118778604
L349220905 117978604
L349144714 118092890
L349068524 118169080
L348992333 118207176
" />
<path d="M349944714 117978604
L350020905 117978604
L350097095 118016700
L350135190 118054795
L350173286 118130985
L350211381 118283366
L350211381 118473842
L350173286 118626223
L350135190 118702414
L350097095 118740509
L350020905 118778604
L349944714 118778604
L349868524 118740509
L349830429 118702414
L349792333 118626223
L349754238 118473842
L349754238 118283366
L349792333 118130985
L349830429 118054795
L349868524 118016700
L349944714 117978604
" />
<path d="M350706619 117978604
L350782810 117978604
L350859000 118016700
L350897095 118054795
L350935190 118130985
L350973286 118283366
L350973286 118473842
L350935190 118626223
L350897095 118702414
L350859000 118740509
L350782810 118778604
L350706619 118778604
L350630429 118740509
L350592333 118702414
L350554238 118626223
L350516143 118473842
L350516143 118283366
L350554238 118130985
L350592333 118054795
L350630429 118016700
L350706619 117978604
" />
</g><text x="350059000.000000" y="103576700.000000"
textLength="2633095.000000" font-size="1066666.000000" lengthAdjust="spacingAndGlyphs"
text-anchor="middle" opacity="0">GND</text>
<g class="stroked-text"><desc>GND</desc>
<path d="M349449476 102776700
L349373285 102738604
L349259000 102738604
L349144714 102776700
L349068523 102852890
L349030428 102929080
L348992333 103081461
L348992333 103195747
L349030428 103348128
L349068523 103424319
L349144714 103500509
L349259000 103538604
L349335190 103538604
L349449476 103500509
L349487571 103462414
L349487571 103195747
L349335190 103195747
" />
<path d="M349830428 103538604
L349830428 102738604
L350287571 103538604
L350287571 102738604
" />
<path d="M350668523 103538604
L350668523 102738604
L350859000 102738604
L350973285 102776700
L351049476 102852890
L351087571 102929080
L351125666 103081461
L351125666 103195747
L351087571 103348128
L351049476 103424319
L350973285 103500509
L350859000 103538604
L350668523 103538604
" />
</g><text x="361057191.000000" y="111196700.000000"
textLength="2480714.000000" font-size="1066666.000000" lengthAdjust="spacingAndGlyphs"
text-anchor="middle" opacity="0">029</text>
<g class="stroked-text"><desc>029</desc>
<path d="M360257191 110358604
L360333381 110358604
L360409571 110396700
L360447667 110434795
L360485762 110510985
L360523857 110663366
L360523857 110853842
L360485762 111006223
L360447667 111082414
L360409571 111120509
L360333381 111158604
L360257191 111158604
L360181000 111120509
L360142905 111082414
L360104810 111006223
L360066714 110853842
L360066714 110663366
L360104810 110510985
L360142905 110434795
L360181000 110396700
L360257191 110358604
" />
<path d="M360828619 110434795
L360866714 110396700
L360942905 110358604
L361133381 110358604
L361209571 110396700
L361247667 110434795
L361285762 110510985
L361285762 110587176
L361247667 110701461
L360790524 111158604
L361285762 111158604
" />
<path d="M361666714 111158604
L361819095 111158604
L361895286 111120509
L361933381 111082414
L362009571 110968128
L362047667 110815747
L362047667 110510985
L362009571 110434795
L361971476 110396700
L361895286 110358604
L361742905 110358604
L361666714 110396700
L361628619 110434795
L361590524 110510985
L361590524 110701461
L361628619 110777652
L361666714 110815747
L361742905 110853842
L361895286 110853842
L361971476 110815747
L362009571 110777652
L362047667 110701461
" />
</g><text x="361057191.000000" y="116276700.000000"
textLength="2480714.000000" font-size="1066666.000000" lengthAdjust="spacingAndGlyphs"
text-anchor="middle" opacity="0">115</text>
<g class="stroked-text"><desc>115</desc>
<path d="M360523857 116238604
L360066714 116238604
" />
<path d="M360295286 116238604
L360295286 115438604
L360219095 115552890
L360142905 115629080
L360066714 115667176
" />
<path d="M361285762 116238604
L360828619 116238604
" />
<path d="M361057191 116238604
L361057191 115438604
L360981000 115552890
L360904810 115629080
L360828619 115667176
" />
<path d="M362009571 115438604
L361628619 115438604
L361590524 115819557
L361628619 115781461
L361704810 115743366
L361895286 115743366
L361971476 115781461
L362009571 115819557
L362047667 115895747
L362047667 116086223
L362009571 116162414
L361971476 116200509
L361895286 116238604
L361704810 116238604
L361628619 116200509
L361590524 116162414
" />
</g><text x="361108000.000000" y="103576700.000000"
textLength="2366429.000000" font-size="1066666.000000" lengthAdjust="spacingAndGlyphs"
text-anchor="middle" opacity="0">RST</text>
<g class="stroked-text"><desc>RST</desc>
<path d="M360669904 103538604
L360403238 103157652
" />
<path d="M360212761 103538604
L360212761 102738604
L360517523 102738604
L360593714 102776700
L360631809 102814795
L360669904 102890985
L360669904 103005271
L360631809 103081461
L360593714 103119557
L360517523 103157652
L360212761 103157652
" />
<path d="M360974666 103500509
L361088952 103538604
L361279428 103538604
L361355619 103500509
L361393714 103462414
L361431809 103386223
L361431809 103310033
L361393714 103233842
L361355619 103195747
L361279428 103157652
L361127047 103119557
L361050857 103081461
L361012761 103043366
L360974666 102967176
L360974666 102890985
L361012761 102814795
L361050857 102776700
L361127047 102738604
L361317523 102738604
L361431809 102776700
" />
<path d="M361660380 102738604
L362117523 102738604
" />
<path d="M361888952 103538604
L361888952 102738604
" />
</g><text x="361057191.000000" y="123896700.000000"
textLength="2480714.000000" font-size="1066666.000000" lengthAdjust="spacingAndGlyphs"
text-anchor="middle" opacity="0">010</text>
<g class="stroked-text"><desc>010</desc>
<path d="M360257191 123058604
L360333381 123058604
L360409571 123096700
L360447667 123134795
L360485762 123210985
L360523857 123363366
L360523857 123553842
L360485762 123706223
L360447667 123782414
L360409571 123820509
L360333381 123858604
L360257191 123858604
L360181000 123820509
L360142905 123782414
L360104810 123706223
L360066714 123553842
L360066714 123363366
L360104810 123210985
L360142905 123134795
L360181000 123096700
L360257191 123058604
" />
<path d="M361285762 123858604
L360828619 123858604
" />
<path d="M361057191 123858604
L361057191 123058604
L360981000 123172890
L360904810 123249080
L360828619 123287176
" />
<path d="M361781000 123058604
L361857191 123058604
L361933381 123096700
L361971476 123134795
L362009571 123210985
L362047667 123363366
L362047667 123553842
L362009571 123706223
L361971476 123782414
L361933381 123820509
L361857191 123858604
L361781000 123858604
L361704810 123820509
L361666714 123782414
L361628619 123706223
L361590524 123553842
L361590524 123363366
L361628619 123210985
L361666714 123134795
L361704810 123096700
L361781000 123058604
" />
</g><text x="173820000.000000" y="99150000.000000"
textLength="2195000.000000" font-size="1333333.000000" lengthAdjust="spacingAndGlyphs"
text-anchor="middle" opacity="0">H4</text>
<g class="stroked-text"><desc>H4</desc>
<path d="M173058095 99102380
L173058095 98102380
" />
<path d="M173058095 98578571
L173629523 98578571
" />
<path d="M173629523 99102380
L173629523 98102380
" />
<path d="M174534285 98435714
L174534285 99102380
" />
<path d="M174296190 98054761
L174058095 98769047
L174677142 98769047
" />
</g><text x="362550000.000000" y="130250000.000000"
textLength="2099762.000000" font-size="1333333.000000" lengthAdjust="spacingAndGlyphs"
text-anchor="middle" opacity="0">S2</text>
<g class="stroked-text"><desc>S2</desc>
<path d="M361788095 130154761
L361930952 130202380
L362169047 130202380
L362264285 130154761
L362311904 130107142
L362359523 130011904
L362359523 129916666
L362311904 129821428
L362264285 129773809
L362169047 129726190
L361978571 129678571
L361883333 129630952
L361835714 129583333
L361788095 129488095
L361788095 129392857
L361835714 129297619
L361883333 129250000
L361978571 129202380
L362216666 129202380
L362359523 129250000
" />
<path d="M362740476 129297619
L362788095 129250000
L362883333 129202380
L363121428 129202380
L363216666 129250000
L363264285 129297619
L363311904 129392857
L363311904 129488095
L363264285 129630952
L362692857 130202380
L363311904 130202380
" />
</g><text x="201820000.000000" y="188150000.000000"
textLength="2195000.000000" font-size="1333333.000000" lengthAdjust="spacingAndGlyphs"
text-anchor="middle" opacity="0">H3</text>
<g class="stroked-text"><desc>H3</desc>
<path d="M201058095 188102380
L201058095 187102380
" />
<path d="M201058095 187578571
L201629523 187578571
" />
<path d="M201629523 188102380
L201629523 187102380
" />
<path d="M202010476 187102380
L202629523 187102380
L202296190 187483333
L202439047 187483333
L202534285 187530952
L202581904 187578571
L202629523 187673809
L202629523 187911904
L202581904 188007142
L202534285 188054761
L202439047 188102380
L202153333 188102380
L202058095 188054761
L202010476 188007142
" />
</g><text x="352160000.000000" y="129930000.000000"
textLength="2099762.000000" font-size="1333333.000000" lengthAdjust="spacingAndGlyphs"
text-anchor="middle" opacity="0">S1</text>
<g class="stroked-text"><desc>S1</desc>
<path d="M351398095 129834761
L351540952 129882380
L351779047 129882380
L351874285 129834761
L351921904 129787142
L351969523 129691904
L351969523 129596666
L351921904 129501428
L351874285 129453809
L351779047 129406190
L351588571 129358571
L351493333 129310952
L351445714 129263333
L351398095 129168095
L351398095 129072857
L351445714 128977619
L351493333 128930000
L351588571 128882380
L351826666 128882380
L351969523 128930000
" />
<path d="M352921904 129882380
L352350476 129882380
" />
<path d="M352636190 129882380
L352636190 128882380
L352540952 129025238
L352445714 129120476
L352350476 129168095
" />
</g><text x="95820000.000000" y="162150000.000000"
textLength="2195000.000000" font-size="1333333.000000" lengthAdjust="spacingAndGlyphs"
text-anchor="middle" opacity="0">H2</text>
<g class="stroked-text"><desc>H2</desc>
<path d="M95058095 162102380
L95058095 161102380
" />
<path d="M95058095 161578571
L95629523 161578571
" />
<path d="M95629523 162102380
L95629523 161102380
" />
<path d="M96058095 161197619
L96105714 161150000
L96200952 161102380
L96439047 161102380
L96534285 161150000
L96581904 161197619
L96629523 161292857
L96629523 161388095
L96581904 161530952
L96010476 162102380
L96629523 162102380
" />
</g><path d="M246220000 164100000
L248220000 164100000
" />
<path d="M234220000 178100000
L236220000 178100000
" />
<path d="M248220000 178100000
L248220000 176100000
" />
<path d="M248220000 164100000
L248220000 166100000
" />
<path d="M246220000 178100000
L248220000 178100000
" />
<path d="M236220000 164100000
L234220000 164100000
" />
<path d="M234220000 164100000
L234220000 166100000
" />
<path d="M326770000 145050000
L326770000 147050000
" />
<path d="M324770000 159050000
L326770000 159050000
" />
<path d="M324770000 145050000
L326770000 145050000
" />
<path d="M312770000 145050000
L312770000 147050000
" />
<path d="M314770000 145050000
L312770000 145050000
" />
<path d="M312770000 159050000
L314770000 159050000
" />
<path d="M312770000 157050000
L312770000 159050000
" />
<path d="M326770000 159050000
L326770000 157050000
" />
<path d="M91045000 120925000
L91045000 118925000
" />
<path d="M77045000 106925000
L77045000 108925000
" />
<path d="M77045000 120925000
L79045000 120925000
" />
<path d="M89045000 120925000
L91045000 120925000
" />
<path d="M91045000 106925000
L91045000 108925000
" />
<path d="M89045000 106925000
L91045000 106925000
" />
<path d="M79045000 106925000
L77045000 106925000
" />
<path d="M79132500 145050000
L79132500 147050000
" />
<path d="M67132500 145050000
L65132500 145050000
" />
<path d="M77132500 159050000
L79132500 159050000
" />
<path d="M65132500 145050000
L65132500 147050000
" />
<path d="M65132500 159050000
L67132500 159050000
" />
<path d="M79132500 159050000
L79132500 157050000
" />
<path d="M77132500 145050000
L79132500 145050000
" />
<path d="M65132500 157050000
L65132500 159050000
" />
<path d="M76751300 140000000
L76751300 138000000
" />
<path d="M64751300 126000000
L62751300 126000000
" />
<path d="M62751300 140000000
L64751300 140000000
" />
<path d="M62751300 126000000
L62751300 128000000
" />
<path d="M74751300 126000000
L76751300 126000000
" />
<path d="M74751300 140000000
L76751300 140000000
" />
<path d="M62751300 138000000
L62751300 140000000
" />
<path d="M76751300 126000000
L76751300 128000000
" />
<path d="M167270000 83080000
L167270000 85080000
" />
<path d="M165270000 83080000
L167270000 83080000
" />
<path d="M153270000 97080000
L155270000 97080000
" />
<path d="M153270000 83080000
L153270000 85080000
" />
<path d="M167270000 97080000
L167270000 95080000
" />
<path d="M165270000 97080000
L167270000 97080000
" />
<path d="M155270000 83080000
L153270000 83080000
" />
<path d="M98170000 197150000
L98170000 195150000
" />
<path d="M96170000 183150000
L98170000 183150000
" />
<path d="M84170000 183150000
L84170000 185150000
" />
<path d="M84170000 197150000
L86170000 197150000
" />
<path d="M98170000 183150000
L98170000 185150000
" />
<path d="M84170000 195150000
L84170000 197150000
" />
<path d="M96170000 197150000
L98170000 197150000
" />
<path d="M86170000 183150000
L84170000 183150000
" />
<path d="M60370000 183150000
L60370000 185150000
" />
<path d="M72370000 197150000
L74370000 197150000
" />
<path d="M74370000 197150000
L74370000 195150000
" />
<path d="M62370000 183150000
L60370000 183150000
" />
<path d="M74370000 183150000
L74370000 185150000
" />
<path d="M60370000 197150000
L62370000 197150000
" />
<path d="M72370000 183150000
L74370000 183150000
" />
<path d="M60370000 195150000
L60370000 197150000
" />
<path d="M158120000 197150000
L160120000 197150000
" />
<path d="M160120000 197150000
L160120000 195150000
" />
<path d="M146120000 195150000
L146120000 197150000
" />
<path d="M158120000 183150000
L160120000 183150000
" />
<path d="M160120000 183150000
L160120000 185150000
" />
<path d="M146120000 183150000
L146120000 185150000
" />
<path d="M148120000 183150000
L146120000 183150000
" />
<path d="M146120000 197150000
L148120000 197150000
" />
<path d="M255720000 159050000
L257720000 159050000
" />
<path d="M245720000 145050000
L243720000 145050000
" />
<path d="M257720000 159050000
L257720000 157050000
" />
<path d="M243720000 145050000
L243720000 147050000
" />
<path d="M255720000 145050000
L257720000 145050000
" />
<path d="M243720000 159050000
L245720000 159050000
" />
<path d="M257720000 145050000
L257720000 147050000
" />
<path d="M219920000 97110000
L221920000 97110000
" />
<path d="M231920000 83110000
L233920000 83110000
" />
<path d="M233920000 97110000
L233920000 95110000
" />
<path d="M233920000 83110000
L233920000 85110000
" />
<path d="M219920000 83110000
L219920000 85110000
" />
<path d="M221920000 83110000
L219920000 83110000
" />
<path d="M231920000 97110000
L233920000 97110000
" />
<path d="M219950000 126000000
L219950000 128000000
" />
<path d="M231950000 140000000
L233950000 140000000
" />
<path d="M221950000 126000000
L219950000 126000000
" />
<path d="M219950000 140000000
L221950000 140000000
" />
<path d="M233950000 140000000
L233950000 138000000
" />
<path d="M233950000 126000000
L233950000 128000000
" />
<path d="M231950000 126000000
L233950000 126000000
" />
<path d="M267526300 197150000
L269526300 197150000
" />
<path d="M279526300 197150000
L281526300 197150000
" />
<path d="M281526300 197150000
L281526300 195150000
" />
<path d="M267526300 183150000
L267526300 185150000
" />
<path d="M281526300 183150000
L281526300 185150000
" />
<path d="M269526300 183150000
L267526300 183150000
" />
<path d="M279526300 183150000
L281526300 183150000
" />
<path d="M357726300 183150000
L357726300 185150000
" />
<path d="M345726300 183150000
L343726300 183150000
" />
<path d="M343726300 183150000
L343726300 185150000
" />
<path d="M343726300 197150000
L345726300 197150000
" />
<path d="M355726300 183150000
L357726300 183150000
" />
<path d="M357726300 197150000
L357726300 195150000
" />
<path d="M355726300 197150000
L357726300 197150000
" />
<path d="M110120000 97080000
L110120000 95080000
" />
<path d="M108120000 83080000
L110120000 83080000
" />
<path d="M96120000 83080000
L96120000 85080000
" />
<path d="M96120000 97080000
L98120000 97080000
" />
<path d="M98120000 83080000
L96120000 83080000
" />
<path d="M110120000 83080000
L110120000 85080000
" />
<path d="M108120000 97080000
L110120000 97080000
" />
<path d="M338676300 164100000
L338676300 166100000
" />
<path d="M338676300 178100000
L338676300 176100000
" />
<path d="M336676300 164100000
L338676300 164100000
" />
<path d="M324676300 164100000
L324676300 166100000
" />
<path d="M336676300 178100000
L338676300 178100000
" />
<path d="M324676300 178100000
L326676300 178100000
" />
<path d="M326676300 164100000
L324676300 164100000
" />
<path d="M141420000 159050000
L143420000 159050000
" />
<path d="M143420000 159050000
L143420000 157050000
" />
<path d="M143420000 145050000
L143420000 147050000
" />
<path d="M131420000 145050000
L129420000 145050000
" />
<path d="M141420000 145050000
L143420000 145050000
" />
<path d="M129420000 145050000
L129420000 147050000
" />
<path d="M129420000 159050000
L131420000 159050000
" />
<path d="M119650000 126000000
L119650000 128000000
" />
<path d="M105650000 126000000
L105650000 128000000
" />
<path d="M117650000 140000000
L119650000 140000000
" />
<path d="M107650000 126000000
L105650000 126000000
" />
<path d="M117650000 126000000
L119650000 126000000
" />
<path d="M105650000 140000000
L107650000 140000000
" />
<path d="M119650000 140000000
L119650000 138000000
" />
<path d="M186570000 145050000
L186570000 147050000
" />
<path d="M198570000 145050000
L200570000 145050000
" />
<path d="M186570000 159050000
L188570000 159050000
" />
<path d="M200570000 159050000
L200570000 157050000
" />
<path d="M198570000 159050000
L200570000 159050000
" />
<path d="M188570000 145050000
L186570000 145050000
" />
<path d="M200570000 145050000
L200570000 147050000
" />
<path d="M203345000 120925000
L205345000 120925000
" />
<path d="M205345000 120925000
L205345000 118925000
" />
<path d="M191345000 120925000
L193345000 120925000
" />
<path d="M191345000 106925000
L191345000 108925000
" />
<path d="M205345000 106925000
L205345000 108925000
" />
<path d="M193345000 106925000
L191345000 106925000
" />
<path d="M203345000 106925000
L205345000 106925000
" />
</g>
<g style="fill:#000000; fill-opacity:0.0; 
stroke:#000000; stroke-width:381000.000000; stroke-opacity:1; 
stroke-linecap:round; stroke-linejoin:round;">
<path d="M364410000 127306700
L364410000 96826700
" />
<path d="M346630000 96826700
L346630000 127306700
" />
<path d="M364410000 96826700
L364410000 94286700
" />
<path d="M346630000 94286700
L346630000 96826700
" />
<path d="M346630000 127306700
L364410000 127306700
" />
<path d="M364410000 94286700
L346630000 94286700
" />
</g>
<g style="fill:#000000; fill-opacity:0.0; 
stroke:#000000; stroke-width:150000.000000; stroke-opacity:1; 
stroke-linecap:round; stroke-linejoin:round;">
<path d="M181520000 159050000
L181520000 157050000
" />
<path d="M167520000 159050000
L169520000 159050000
" />
<path d="M181520000 145050000
L181520000 147050000
" />
<path d="M179520000 145050000
L181520000 145050000
" />
<path d="M169520000 145050000
L167520000 145050000
" />
<path d="M179520000 159050000
L181520000 159050000
" />
<path d="M167520000 145050000
L167520000 147050000
" />
<path d="M269520000 83080000
L267520000 83080000
" />
<path d="M281520000 83080000
L281520000 85080000
" />
<path d="M281520000 97080000
L281520000 95080000
" />
<path d="M279520000 83080000
L281520000 83080000
" />
<path d="M279520000 97080000
L281520000 97080000
" />
<path d="M267520000 97080000
L269520000 97080000
" />
<path d="M267520000 83080000
L267520000 85080000
" />
<path d="M329151300 106925000
L329151300 108925000
" />
<path d="M315151300 118925000
L315151300 120925000
" />
<path d="M327151300 106925000
L329151300 106925000
" />
<path d="M315151300 106925000
L315151300 108925000
" />
<path d="M317151300 106925000
L315151300 106925000
" />
<path d="M329151300 120925000
L329151300 118925000
" />
<path d="M327151300 120925000
L329151300 120925000
" />
<path d="M315151300 120925000
L317151300 120925000
" />
<path d="M307620000 83080000
L305620000 83080000
" />
<path d="M319620000 97080000
L319620000 95080000
" />
<path d="M317620000 97080000
L319620000 97080000
" />
<path d="M305620000 97080000
L307620000 97080000
" />
<path d="M319620000 83080000
L319620000 85080000
" />
<path d="M317620000 83080000
L319620000 83080000
" />
<path d="M305620000 83080000
L305620000 85080000
" />
<path d="M212870000 97110000
L214870000 97110000
" />
<path d="M214870000 83110000
L214870000 85110000
" />
<path d="M214870000 97110000
L214870000 95110000
" />
<path d="M202870000 83110000
L200870000 83110000
" />
<path d="M212870000 83110000
L214870000 83110000
" />
<path d="M200870000 83110000
L200870000 85110000
" />
<path d="M200870000 97110000
L202870000 97110000
" />
<path d="M214900000 140000000
L214900000 138000000
" />
<path d="M212900000 140000000
L214900000 140000000
" />
<path d="M202900000 126000000
L200900000 126000000
" />
<path d="M212900000 126000000
L214900000 126000000
" />
<path d="M214900000 126000000
L214900000 128000000
" />
<path d="M200900000 126000000
L200900000 128000000
" />
<path d="M200900000 140000000
L202900000 140000000
" />
<path d="M310520000 178100000
L312520000 178100000
" />
<path d="M312520000 164100000
L312520000 166100000
" />
<path d="M310520000 164100000
L312520000 164100000
" />
<path d="M298520000 178100000
L300520000 178100000
" />
<path d="M300520000 164100000
L298520000 164100000
" />
<path d="M312520000 178100000
L312520000 176100000
" />
<path d="M298520000 164100000
L298520000 166100000
" />
<path d="M298520000 176100000
L298520000 178100000
" />
<path d="M308150000 126000000
L310150000 126000000
" />
<path d="M296150000 126000000
L296150000 128000000
" />
<path d="M296150000 140000000
L298150000 140000000
" />
<path d="M308150000 140000000
L310150000 140000000
" />
<path d="M310150000 126000000
L310150000 128000000
" />
<path d="M298150000 126000000
L296150000 126000000
" />
<path d="M310150000 140000000
L310150000 138000000
" />
<path d="M324676300 197150000
L326676300 197150000
" />
<path d="M338676300 197150000
L338676300 195150000
" />
<path d="M336676300 183150000
L338676300 183150000
" />
<path d="M336676300 197150000
L338676300 197150000
" />
<path d="M338676300 183150000
L338676300 185150000
" />
<path d="M324676300 183150000
L324676300 185150000
" />
<path d="M326676300 183150000
L324676300 183150000
" />
<path d="M215170000 164100000
L215170000 166100000
" />
<path d="M229170000 178100000
L229170000 176100000
" />
<path d="M215170000 178100000
L217170000 178100000
" />
<path d="M217170000 164100000
L215170000 164100000
" />
<path d="M227170000 164100000
L229170000 164100000
" />
<path d="M227170000 178100000
L229170000 178100000
" />
<path d="M229170000 164100000
L229170000 166100000
" />
</g>
<g style="fill:#000000; fill-opacity:0.0; 
stroke:#000000; stroke-width:100000.000000; stroke-opacity:1; 
stroke-linecap:round; stroke-linejoin:round;">
<path d="M360950000 130850000
L361450000 130850000
" />
<path d="M360950000 134050000
L360950000 133550000
" />
<path d="M360950000 134050000
L361450000 134050000
" />
<path d="M360950000 130850000
L360950000 131350000
" />
<path d="M364150000 130850000
L364150000 131350000
" />
<path d="M364150000 134050000
L364150000 133550000
" />
<path d="M364150000 130850000
L363650000 130850000
" />
<path d="M360950000 131350000
L360550000 131350000
" />
<path d="M364150000 134050000
L363750000 134050000
" />
</g>
<g style="fill:#000000; fill-opacity:0.0; 
stroke:#000000; stroke-width:150000.000000; stroke-opacity:1; 
stroke-linecap:round; stroke-linejoin:round;">
<path d="M281545000 106925000
L281545000 108925000
" />
<path d="M279545000 120925000
L281545000 120925000
" />
<path d="M269545000 106925000
L267545000 106925000
" />
<path d="M267545000 106925000
L267545000 108925000
" />
<path d="M267545000 120925000
L269545000 120925000
" />
<path d="M281545000 120925000
L281545000 118925000
" />
<path d="M279545000 106925000
L281545000 106925000
" />
<path d="M324670000 83080000
L324670000 85080000
" />
<path d="M336670000 83080000
L338670000 83080000
" />
<path d="M336670000 97080000
L338670000 97080000
" />
<path d="M324670000 97080000
L326670000 97080000
" />
<path d="M338670000 83080000
L338670000 85080000
" />
<path d="M338670000 97080000
L338670000 95080000
" />
<path d="M326670000 83080000
L324670000 83080000
" />
<path d="M260476300 197150000
L262476300 197150000
" />
<path d="M260476300 183150000
L262476300 183150000
" />
<path d="M250476300 183150000
L248476300 183150000
" />
<path d="M262476300 197150000
L262476300 195150000
" />
<path d="M248476300 197150000
L250476300 197150000
" />
<path d="M248476300 183150000
L248476300 185150000
" />
<path d="M262476300 183150000
L262476300 185150000
" />
<path d="M317626300 183150000
L319626300 183150000
" />
<path d="M307626300 183150000
L305626300 183150000
" />
<path d="M305626300 183150000
L305626300 185150000
" />
<path d="M319626300 197150000
L319626300 195150000
" />
<path d="M319626300 183150000
L319626300 185150000
" />
<path d="M305626300 197150000
L307626300 197150000
" />
<path d="M317626300 197150000
L319626300 197150000
" />
<path d="M253270000 164100000
L253270000 166100000
" />
<path d="M253270000 178100000
L255270000 178100000
" />
<path d="M267270000 178100000
L267270000 176100000
" />
<path d="M265270000 178100000
L267270000 178100000
" />
<path d="M265270000 164100000
L267270000 164100000
" />
<path d="M267270000 164100000
L267270000 166100000
" />
<path d="M255270000 164100000
L253270000 164100000
" />
</g>
<g style="fill:#000000; fill-opacity:1.0; 
stroke:#000000; stroke-width:1.000000; stroke-opacity:1; 
stroke-linecap:round; stroke-linejoin:round;">
<path style="fill:#000000; fill-opacity:1.0; 
stroke:#000000; stroke-width:1.000000; stroke-opacity:1; 
stroke-linecap:round; stroke-linejoin:round;fill-rule:evenodd;"
d="M 191698112.000000,184528863.000000
191930653.000000,184701720.000000
192155309.000000,184868641.000000
192368811.000000,185027202.000000
192567893.000000,185174981.000000
192749286.000000,185309553.000000
192909721.000000,185428494.000000
193045930.000000,185529381.000000
193154646.000000,185609790.000000
193232601.000000,185667298.000000
193276525.000000,185699480.000000
193277767.000000,185700379.000000
193423676.000000,185805898.000000
193423676.000000,189123933.000000
192593069.000000,189954780.000000
191762463.000000,190785628.000000
192593228.000000,191602630.000000
193423994.000000,192419633.000000
193417999.000000,194061001.000000
193412004.000000,195702368.000000
191837261.000000,196819750.000000
190262519.000000,197937132.000000
182517414.000000,197937132.000000
182595224.000000,197844855.000000
182624621.000000,197810412.000000
182681540.000000,197744120.000000
182762978.000000,197649463.000000
182865932.000000,197529926.000000
182987400.000000,197388991.000000
183124380.000000,197230143.000000
183273869.000000,197056865.000000
183432864.000000,196872642.000000
183560165.000000,196725192.000000
184447298.000000,195697806.000000
189923906.000000,195695956.000000
191345462.000000,194353584.000000
191345691.000000,193944208.000000
191345919.000000,193534832.000000
190632183.000000,192759419.000000
189918448.000000,191984007.000000
182684293.000000,191984007.000000
182690336.000000,190752527.000000
182696379.000000,189521048.000000
186318463.000000,189509375.000000
189940548.000000,189497702.000000
190643234.000000,188729445.000000
191345919.000000,187961189.000000
191345415.000000,187550493.000000
191344912.000000,187139798.000000
190638585.000000,186480138.000000
189932258.000000,185820479.000000
182530998.000000,185820485.000000
181002843.000000,184663673.000000
180767253.000000,184485270.000000
180542228.000000,184314747.000000
180330575.000000,184154237.000000
180135098.000000,184005874.000000
179958603.000000,183871790.000000
179803895.000000,183754119.000000
179673779.000000,183654993.000000
179571061.000000,183576546.000000
179498546.000000,183520911.000000
179459040.000000,183490221.000000
179452509.000000,183484865.000000
179473122.000000,183482374.000000
179539485.000000,183480013.000000
179650661.000000,183477788.000000
179805710.000000,183475701.000000
180003692.000000,183473757.000000
180243667.000000,183471959.000000
180524697.000000,183470311.000000
180845841.000000,183468817.000000
181206161.000000,183467481.000000
181604717.000000,183466307.000000
182040569.000000,183465298.000000
182512778.000000,183464458.000000
183020404.000000,183463792.000000
183562508.000000,183463303.000000
184138151.000000,183462994.000000
184746393.000000,183462870.000000
184847349.000000,183462868.000000
190264368.000000,183462868.000000
Z" /> 
</g>
<g style="fill:#000000; fill-opacity:1.0; 
stroke:#000000; stroke-width:150000.000000; stroke-opacity:1; 
stroke-linecap:round; stroke-linejoin:round;">
</g>
<g style="fill:#000000; fill-opacity:0.0; 
stroke:#000000; stroke-width:150000.000000; stroke-opacity:1; 
stroke-linecap:round; stroke-linejoin:round;">
<path d="M150470000 145050000
L148470000 145050000
" />
<path d="M160470000 159050000
L162470000 159050000
" />
<path d="M160470000 145050000
L162470000 145050000
" />
<path d="M148470000 145050000
L148470000 147050000
" />
<path d="M162470000 159050000
L162470000 157050000
" />
<path d="M148470000 159050000
L150470000 159050000
" />
<path d="M162470000 145050000
L162470000 147050000
" />
<path d="M71988800 97080000
L71988800 95080000
" />
<path d="M69988800 83080000
L71988800 83080000
" />
<path d="M57988800 83080000
L57988800 85080000
" />
<path d="M57988800 97080000
L59988800 97080000
" />
<path d="M59988800 83080000
L57988800 83080000
" />
<path d="M69988800 97080000
L71988800 97080000
" />
<path d="M71988800 83080000
L71988800 85080000
" />
</g>
<g style="fill:#000000; fill-opacity:0.0; 
stroke:#000000; stroke-width:100000.000000; stroke-opacity:1; 
stroke-linecap:round; stroke-linejoin:round;">
<path d="M346070000 134550000
L346070000 134050000
" />
<path d="M357970000 130350000
L357970000 130850000
" />
<path d="M357970000 130350000
L357470000 130350000
" />
<path d="M346070000 130350000
L346570000 130350000
" />
<path d="M346070000 130350000
L346070000 130850000
" />
<path d="M357970000 134550000
L357970000 134050000
" />
<path d="M357970000 134550000
L357470000 134550000
" />
<path d="M346070000 134550000
L346570000 134550000
" />
</g>
<g style="fill:#000000; fill-opacity:0.0; 
stroke:#000000; stroke-width:150000.000000; stroke-opacity:1; 
stroke-linecap:round; stroke-linejoin:round;">
<path d="M319913800 138000000
L319913800 140000000
" />
<path d="M319913800 126000000
L319913800 128000000
" />
<path d="M321913800 126000000
L319913800 126000000
" />
<path d="M331913800 126000000
L333913800 126000000
" />
<path d="M331913800 140000000
L333913800 140000000
" />
<path d="M333913800 140000000
L333913800 138000000
" />
<path d="M319913800 140000000
L321913800 140000000
" />
<path d="M333913800 126000000
L333913800 128000000
" />
<path d="M277100000 126000000
L277100000 128000000
" />
<path d="M289100000 126000000
L291100000 126000000
" />
<path d="M291100000 126000000
L291100000 128000000
" />
<path d="M289100000 140000000
L291100000 140000000
" />
<path d="M279100000 126000000
L277100000 126000000
" />
<path d="M277100000 140000000
L279100000 140000000
" />
<path d="M291100000 140000000
L291100000 138000000
" />
<path d="M152970000 164100000
L152970000 166100000
" />
<path d="M150970000 178100000
L152970000 178100000
" />
<path d="M150970000 164100000
L152970000 164100000
" />
<path d="M152970000 178100000
L152970000 176100000
" />
<path d="M138970000 178100000
L140970000 178100000
" />
<path d="M140970000 164100000
L138970000 164100000
" />
<path d="M138970000 164100000
L138970000 166100000
" />
<path d="M158020000 178100000
L160020000 178100000
" />
<path d="M170020000 178100000
L172020000 178100000
" />
<path d="M170020000 164100000
L172020000 164100000
" />
<path d="M158020000 164100000
L158020000 166100000
" />
<path d="M160020000 164100000
L158020000 164100000
" />
<path d="M172020000 164100000
L172020000 166100000
" />
<path d="M172020000 178100000
L172020000 176100000
" />
<path d="M110370000 145050000
L110370000 147050000
" />
<path d="M122370000 145050000
L124370000 145050000
" />
<path d="M122370000 159050000
L124370000 159050000
" />
<path d="M124370000 159050000
L124370000 157050000
" />
<path d="M112370000 145050000
L110370000 145050000
" />
<path d="M110370000 159050000
L112370000 159050000
" />
<path d="M124370000 145050000
L124370000 147050000
" />
<path d="M86600000 126000000
L86600000 128000000
" />
<path d="M86600000 140000000
L88600000 140000000
" />
<path d="M100600000 126000000
L100600000 128000000
" />
<path d="M88600000 126000000
L86600000 126000000
" />
<path d="M100600000 140000000
L100600000 138000000
" />
<path d="M98600000 126000000
L100600000 126000000
" />
<path d="M98600000 140000000
L100600000 140000000
" />
<path d="M109980000 183140000
L107980000 183140000
" />
<path d="M107980000 195140000
L107980000 197140000
" />
<path d="M107980000 197140000
L109980000 197140000
" />
<path d="M121980000 197140000
L121980000 195140000
" />
<path d="M121980000 183140000
L121980000 185140000
" />
<path d="M119980000 197140000
L121980000 197140000
" />
<path d="M119980000 183140000
L121980000 183140000
" />
<path d="M107980000 183140000
L107980000 185140000
" />
<path d="M136220000 83080000
L134220000 83080000
" />
<path d="M146220000 97080000
L148220000 97080000
" />
<path d="M134220000 83080000
L134220000 85080000
" />
<path d="M148220000 97080000
L148220000 95080000
" />
<path d="M146220000 83080000
L148220000 83080000
" />
<path d="M148220000 83080000
L148220000 85080000
" />
<path d="M134220000 97080000
L136220000 97080000
" />
<path d="M260495000 120925000
L262495000 120925000
" />
<path d="M248495000 120925000
L250495000 120925000
" />
<path d="M260495000 106925000
L262495000 106925000
" />
<path d="M262495000 120925000
L262495000 118925000
" />
<path d="M250495000 106925000
L248495000 106925000
" />
<path d="M262495000 106925000
L262495000 108925000
" />
<path d="M248495000 106925000
L248495000 108925000
" />
<path d="M224670000 145050000
L224670000 147050000
" />
<path d="M238670000 159050000
L238670000 157050000
" />
<path d="M238670000 145050000
L238670000 147050000
" />
<path d="M224670000 159050000
L226670000 159050000
" />
<path d="M236670000 145050000
L238670000 145050000
" />
<path d="M226670000 145050000
L224670000 145050000
" />
<path d="M236670000 159050000
L238670000 159050000
" />
<path d="M274770000 159050000
L276770000 159050000
" />
<path d="M262770000 159050000
L264770000 159050000
" />
<path d="M276770000 159050000
L276770000 157050000
" />
<path d="M276770000 145050000
L276770000 147050000
" />
<path d="M264770000 145050000
L262770000 145050000
" />
<path d="M274770000 145050000
L276770000 145050000
" />
<path d="M262770000 145050000
L262770000 147050000
" />
<path d="M177070000 178100000
L179070000 178100000
" />
<path d="M191070000 164100000
L191070000 166100000
" />
<path d="M189070000 178100000
L191070000 178100000
" />
<path d="M179070000 164100000
L177070000 164100000
" />
<path d="M189070000 164100000
L191070000 164100000
" />
<path d="M191070000 178100000
L191070000 176100000
" />
<path d="M177070000 164100000
L177070000 166100000
" />
<path d="M229445000 106925000
L229445000 108925000
" />
<path d="M243445000 120925000
L243445000 118925000
" />
<path d="M243445000 106925000
L243445000 108925000
" />
<path d="M231445000 106925000
L229445000 106925000
" />
<path d="M241445000 106925000
L243445000 106925000
" />
<path d="M241445000 120925000
L243445000 120925000
" />
<path d="M229445000 120925000
L231445000 120925000
" />
<path d="M71895000 164100000
L69895000 164100000
" />
<path d="M69895000 178100000
L71895000 178100000
" />
<path d="M83895000 164100000
L83895000 166100000
" />
<path d="M81895000 178100000
L83895000 178100000
" />
<path d="M69895000 164100000
L69895000 166100000
" />
<path d="M83895000 178100000
L83895000 176100000
" />
<path d="M81895000 164100000
L83895000 164100000
" />
<path d="M69895000 176100000
L69895000 178100000
" />
<path d="M252970000 97110000
L252970000 95110000
" />
<path d="M240970000 83110000
L238970000 83110000
" />
<path d="M250970000 83110000
L252970000 83110000
" />
<path d="M238970000 83110000
L238970000 85110000
" />
<path d="M252970000 83110000
L252970000 85110000
" />
<path d="M250970000 97110000
L252970000 97110000
" />
<path d="M238970000 97110000
L240970000 97110000
" />
<path d="M288570000 83080000
L286570000 83080000
" />
<path d="M298570000 83080000
L300570000 83080000
" />
<path d="M300570000 97080000
L300570000 95080000
" />
<path d="M286570000 97080000
L288570000 97080000
" />
<path d="M300570000 83080000
L300570000 85080000
" />
<path d="M286570000 83080000
L286570000 85080000
" />
<path d="M298570000 97080000
L300570000 97080000
" />
<path d="M193850000 126000000
L195850000 126000000
" />
<path d="M181850000 140000000
L183850000 140000000
" />
<path d="M181850000 126000000
L181850000 128000000
" />
<path d="M183850000 126000000
L181850000 126000000
" />
<path d="M195850000 140000000
L195850000 138000000
" />
<path d="M193850000 140000000
L195850000 140000000
" />
<path d="M195850000 126000000
L195850000 128000000
" />
<path d="M117145000 106925000
L115145000 106925000
" />
<path d="M115145000 120925000
L117145000 120925000
" />
<path d="M127145000 106925000
L129145000 106925000
" />
<path d="M129145000 106925000
L129145000 108925000
" />
<path d="M127145000 120925000
L129145000 120925000
" />
<path d="M129145000 120925000
L129145000 118925000
" />
<path d="M115145000 106925000
L115145000 108925000
" />
<path d="M205620000 159050000
L207620000 159050000
" />
<path d="M205620000 145050000
L205620000 147050000
" />
<path d="M207620000 145050000
L205620000 145050000
" />
<path d="M217620000 159050000
L219620000 159050000
" />
<path d="M219620000 145050000
L219620000 147050000
" />
<path d="M219620000 159050000
L219620000 157050000
" />
<path d="M217620000 145050000
L219620000 145050000
" />
<path d="M71988800 120925000
L71988800 118925000
" />
<path d="M69988800 120925000
L71988800 120925000
" />
<path d="M57988800 106925000
L57988800 108925000
" />
<path d="M57988800 120925000
L59988800 120925000
" />
<path d="M69988800 106925000
L71988800 106925000
" />
<path d="M71988800 106925000
L71988800 108925000
" />
<path d="M59988800 106925000
L57988800 106925000
" />
<path d="M172295000 120925000
L174295000 120925000
" />
<path d="M184295000 106925000
L186295000 106925000
" />
<path d="M172295000 106925000
L172295000 108925000
" />
<path d="M174295000 106925000
L172295000 106925000
" />
<path d="M186295000 106925000
L186295000 108925000
" />
<path d="M186295000 120925000
L186295000 118925000
" />
<path d="M184295000 120925000
L186295000 120925000
" />
<path d="M193820000 97110000
L195820000 97110000
" />
<path d="M183820000 83110000
L181820000 83110000
" />
<path d="M195820000 97110000
L195820000 95110000
" />
<path d="M193820000 83110000
L195820000 83110000
" />
<path d="M181820000 97110000
L183820000 97110000
" />
<path d="M181820000 83110000
L181820000 85110000
" />
<path d="M195820000 83110000
L195820000 85110000
" />
<path d="M241000000 126000000
L239000000 126000000
" />
<path d="M239000000 140000000
L241000000 140000000
" />
<path d="M253000000 140000000
L253000000 138000000
" />
<path d="M251000000 140000000
L253000000 140000000
" />
<path d="M253000000 126000000
L253000000 128000000
" />
<path d="M251000000 126000000
L253000000 126000000
" />
<path d="M239000000 126000000
L239000000 128000000
" />
<path d="M226770000 183150000
L226770000 185150000
" />
<path d="M212770000 183150000
L212770000 185150000
" />
<path d="M214770000 183150000
L212770000 183150000
" />
<path d="M212770000 197150000
L214770000 197150000
" />
<path d="M224770000 197150000
L226770000 197150000
" />
<path d="M226770000 197150000
L226770000 195150000
" />
<path d="M224770000 183150000
L226770000 183150000
" />
<path d="M212770000 195150000
L212770000 197150000
" />
<path d="M127170000 83080000
L129170000 83080000
" />
<path d="M127170000 97080000
L129170000 97080000
" />
<path d="M115170000 83080000
L115170000 85080000
" />
<path d="M115170000 97080000
L117170000 97080000
" />
<path d="M129170000 97080000
L129170000 95080000
" />
<path d="M117170000 83080000
L115170000 83080000
" />
<path d="M129170000 83080000
L129170000 85080000
" />
<path d="M350420000 159450000
L348420000 159450000
" />
<path d="M348420000 159450000
L348420000 161450000
" />
<path d="M348420000 173450000
L350420000 173450000
" />
<path d="M362420000 159450000
L362420000 161450000
" />
<path d="M360420000 173450000
L362420000 173450000
" />
<path d="M360420000 159450000
L362420000 159450000
" />
<path d="M362420000 173450000
L362420000 171450000
" />
<path d="M162800000 126000000
L162800000 128000000
" />
<path d="M176800000 140000000
L176800000 138000000
" />
<path d="M174800000 140000000
L176800000 140000000
" />
<path d="M176800000 126000000
L176800000 128000000
" />
<path d="M162800000 140000000
L164800000 140000000
" />
<path d="M174800000 126000000
L176800000 126000000
" />
<path d="M164800000 126000000
L162800000 126000000
" />
<path d="M114870000 178100000
L114870000 176100000
" />
<path d="M114870000 164100000
L114870000 166100000
" />
<path d="M100870000 178100000
L102870000 178100000
" />
<path d="M102870000 164100000
L100870000 164100000
" />
<path d="M112870000 164100000
L114870000 164100000
" />
<path d="M112870000 178100000
L114870000 178100000
" />
<path d="M100870000 164100000
L100870000 166100000
" />
<path d="M196120000 178100000
L198120000 178100000
" />
<path d="M208120000 178100000
L210120000 178100000
" />
<path d="M210120000 164100000
L210120000 166100000
" />
<path d="M198120000 164100000
L196120000 164100000
" />
<path d="M208120000 164100000
L210120000 164100000
" />
<path d="M210120000 178100000
L210120000 176100000
" />
<path d="M196120000 164100000
L196120000 166100000
" />
<path d="M93320000 145050000
L91320000 145050000
" />
<path d="M105320000 159050000
L105320000 157050000
" />
<path d="M105320000 145050000
L105320000 147050000
" />
<path d="M91320000 145050000
L91320000 147050000
" />
<path d="M103320000 145050000
L105320000 145050000
" />
<path d="M103320000 159050000
L105320000 159050000
" />
<path d="M91320000 159050000
L93320000 159050000
" />
<path d="M155750000 126000000
L157750000 126000000
" />
<path d="M155750000 140000000
L157750000 140000000
" />
<path d="M143750000 140000000
L145750000 140000000
" />
<path d="M145750000 126000000
L143750000 126000000
" />
<path d="M157750000 126000000
L157750000 128000000
" />
<path d="M157750000 140000000
L157750000 138000000
" />
<path d="M143750000 126000000
L143750000 128000000
" />
<path d="M138700000 140000000
L138700000 138000000
" />
<path d="M124700000 140000000
L126700000 140000000
" />
<path d="M136700000 126000000
L138700000 126000000
" />
<path d="M124700000 126000000
L124700000 128000000
" />
<path d="M138700000 126000000
L138700000 128000000
" />
<path d="M136700000 140000000
L138700000 140000000
" />
<path d="M126700000 126000000
L124700000 126000000
" />
<path d="M258050000 140000000
L260050000 140000000
" />
<path d="M272050000 140000000
L272050000 138000000
" />
<path d="M260050000 126000000
L258050000 126000000
" />
<path d="M270050000 140000000
L272050000 140000000
" />
<path d="M272050000 126000000
L272050000 128000000
" />
<path d="M258050000 126000000
L258050000 128000000
" />
<path d="M270050000 126000000
L272050000 126000000
" />
<path d="M281820000 159050000
L283820000 159050000
" />
<path d="M295820000 145050000
L295820000 147050000
" />
<path d="M293820000 159050000
L295820000 159050000
" />
<path d="M293820000 145050000
L295820000 145050000
" />
<path d="M283820000 145050000
L281820000 145050000
" />
<path d="M295820000 159050000
L295820000 157050000
" />
<path d="M281820000 145050000
L281820000 147050000
" />
<path d="M286595000 120925000
L288595000 120925000
" />
<path d="M298595000 120925000
L300595000 120925000
" />
<path d="M300595000 120925000
L300595000 118925000
" />
<path d="M286595000 106925000
L286595000 108925000
" />
<path d="M288595000 106925000
L286595000 106925000
" />
<path d="M298595000 106925000
L300595000 106925000
" />
<path d="M300595000 106925000
L300595000 108925000
" />
<path d="M133920000 178100000
L133920000 176100000
" />
<path d="M119920000 164100000
L119920000 166100000
" />
<path d="M131920000 178100000
L133920000 178100000
" />
<path d="M121920000 164100000
L119920000 164100000
" />
<path d="M119920000 178100000
L121920000 178100000
" />
<path d="M133920000 164100000
L133920000 166100000
" />
<path d="M131920000 164100000
L133920000 164100000
" />
<path d="M272320000 178100000
L274320000 178100000
" />
<path d="M286320000 178100000
L286320000 176100000
" />
<path d="M272320000 164100000
L272320000 166100000
" />
<path d="M284320000 164100000
L286320000 164100000
" />
<path d="M274320000 164100000
L272320000 164100000
" />
<path d="M286320000 164100000
L286320000 166100000
" />
<path d="M284320000 178100000
L286320000 178100000
" />
<path d="M110095000 106925000
L110095000 108925000
" />
<path d="M96095000 120925000
L98095000 120925000
" />
<path d="M108095000 106925000
L110095000 106925000
" />
<path d="M110095000 120925000
L110095000 118925000
" />
<path d="M98095000 106925000
L96095000 106925000
" />
<path d="M96095000 106925000
L96095000 108925000
" />
<path d="M108095000 120925000
L110095000 120925000
" />
<path d="M212395000 106925000
L210395000 106925000
" />
<path d="M222395000 120925000
L224395000 120925000
" />
<path d="M222395000 106925000
L224395000 106925000
" />
<path d="M224395000 120925000
L224395000 118925000
" />
<path d="M210395000 106925000
L210395000 108925000
" />
<path d="M210395000 120925000
L212395000 120925000
" />
<path d="M224395000 106925000
L224395000 108925000
" />
<path d="M134195000 120925000
L136195000 120925000
" />
<path d="M146195000 106925000
L148195000 106925000
" />
<path d="M136195000 106925000
L134195000 106925000
" />
<path d="M148195000 120925000
L148195000 118925000
" />
<path d="M146195000 120925000
L148195000 120925000
" />
<path d="M148195000 106925000
L148195000 108925000
" />
<path d="M134195000 106925000
L134195000 108925000
" />
<path d="M360420000 154400000
L362420000 154400000
" />
<path d="M350420000 140400000
L348420000 140400000
" />
<path d="M348420000 154400000
L350420000 154400000
" />
<path d="M362420000 154400000
L362420000 152400000
" />
<path d="M348420000 140400000
L348420000 142400000
" />
<path d="M360420000 140400000
L362420000 140400000
" />
<path d="M362420000 140400000
L362420000 142400000
" />
<path d="M288576300 183150000
L286576300 183150000
" />
<path d="M298576300 197150000
L300576300 197150000
" />
<path d="M300576300 183150000
L300576300 185150000
" />
<path d="M300576300 197150000
L300576300 195150000
" />
<path d="M298576300 183150000
L300576300 183150000
" />
<path d="M286576300 183150000
L286576300 185150000
" />
<path d="M286576300 197150000
L288576300 197150000
" />
<path d="M167245000 120925000
L167245000 118925000
" />
<path d="M153245000 120925000
L155245000 120925000
" />
<path d="M165245000 120925000
L167245000 120925000
" />
<path d="M167245000 106925000
L167245000 108925000
" />
<path d="M165245000 106925000
L167245000 106925000
" />
<path d="M153245000 106925000
L153245000 108925000
" />
<path d="M155245000 106925000
L153245000 106925000
" />
<g >
</g>
<g >
</g>
<g >
</g>
<g >
</g>
<g >
</g>
<g >
</g>
<g >
</g>
<g >
</g>
<g >
</g>
<g >
</g>
<g >
</g>
<g >
</g>
<g >
</g>
<g >
</g>
<g >
</g>
<g >
</g>
<g >
</g>
<g >
</g>
<g >
</g>
<g >
</g>
<g >
</g>
<g >
</g>
<g >
</g>
<g >
</g>
<g style="fill:#000000; fill-opacity:0.0; 
stroke:#000000; stroke-width:150000.000000; stroke-opacity:1; 
stroke-linecap:round; stroke-linejoin:round;">
</g>
<g style="fill:#000000; fill-opacity:1.0; 
stroke:#000000; stroke-width:1.000000; stroke-opacity:1; 
stroke-linecap:round; stroke-linejoin:round;">
<circle cx="347900000.000000" cy="98096700.000000" r="876300.000000" /> 
</g>
<g style="fill:#000000; fill-opacity:1.0; 
stroke:#000000; stroke-width:21200.000000; stroke-opacity:1; 
stroke-linecap:round; stroke-linejoin:round;">
</g>
<g style="fill:#000000; fill-opacity:1.0; 
stroke:#000000; stroke-width:1.000000; stroke-opacity:1; 
stroke-linecap:round; stroke-linejoin:round;">
<circle cx="347900000.000000" cy="100636700.000000" r="876300.000000" /> 
</g>
<g style="fill:#000000; fill-opacity:1.0; 
stroke:#000000; stroke-width:21200.000000; stroke-opacity:1; 
stroke-linecap:round; stroke-linejoin:round;">
</g>
<g style="fill:#000000; fill-opacity:1.0; 
stroke:#000000; stroke-width:1.000000; stroke-opacity:1; 
stroke-linecap:round; stroke-linejoin:round;">
<circle cx="347900000.000000" cy="103176700.000000" r="876300.000000" /> 
</g>
<g style="fill:#000000; fill-opacity:1.0; 
stroke:#000000; stroke-width:21200.000000; stroke-opacity:1; 
stroke-linecap:round; stroke-linejoin:round;">
</g>
<g style="fill:#000000; fill-opacity:1.0; 
stroke:#000000; stroke-width:1.000000; stroke-opacity:1; 
stroke-linecap:round; stroke-linejoin:round;">
<circle cx="347900000.000000" cy="105716700.000000" r="876300.000000" /> 
</g>
<g style="fill:#000000; fill-opacity:1.0; 
stroke:#000000; stroke-width:21200.000000; stroke-opacity:1; 
stroke-linecap:round; stroke-linejoin:round;">
</g>
<g style="fill:#000000; fill-opacity:1.0; 
stroke:#000000; stroke-width:1.000000; stroke-opacity:1; 
stroke-linecap:round; stroke-linejoin:round;">
<circle cx="347900000.000000" cy="108256700.000000" r="876300.000000" /> 
</g>
<g style="fill:#000000; fill-opacity:1.0; 
stroke:#000000; stroke-width:21200.000000; stroke-opacity:1; 
stroke-linecap:round; stroke-linejoin:round;">
</g>
<g style="fill:#000000; fill-opacity:1.0; 
stroke:#000000; stroke-width:1.000000; stroke-opacity:1; 
stroke-linecap:round; stroke-linejoin:round;">
<circle cx="347900000.000000" cy="110796700.000000" r="876300.000000" /> 
</g>
<g style="fill:#000000; fill-opacity:1.0; 
stroke:#000000; stroke-width:21200.000000; stroke-opacity:1; 
stroke-linecap:round; stroke-linejoin:round;">
</g>
<g style="fill:#000000; fill-opacity:1.0; 
stroke:#000000; stroke-width:1.000000; stroke-opacity:1; 
stroke-linecap:round; stroke-linejoin:round;">
<circle cx="347900000.000000" cy="113336700.000000" r="876300.000000" /> 
</g>
<g style="fill:#000000; fill-opacity:1.0; 
stroke:#000000; stroke-width:21200.000000; stroke-opacity:1; 
stroke-linecap:round; stroke-linejoin:round;">
</g>
<g style="fill:#000000; fill-opacity:1.0; 
stroke:#000000; stroke-width:1.000000; stroke-opacity:1; 
stroke-linecap:round; stroke-linejoin:round;">
<circle cx="347900000.000000" cy="115876700.000000" r="876300.000000" /> 
</g>
<g style="fill:#000000; fill-opacity:1.0; 
stroke:#000000; stroke-width:21200.000000; stroke-opacity:1; 
stroke-linecap:round; stroke-linejoin:round;">
</g>
<g style="fill:#000000; fill-opacity:1.0; 
stroke:#000000; stroke-width:1.000000; stroke-opacity:1; 
stroke-linecap:round; stroke-linejoin:round;">
<circle cx="347900000.000000" cy="118416700.000000" r="876300.000000" /> 
</g>
<g style="fill:#000000; fill-opacity:1.0; 
stroke:#000000; stroke-width:21200.000000; stroke-opacity:1; 
stroke-linecap:round; stroke-linejoin:round;">
</g>
<g style="fill:#000000; fill-opacity:1.0; 
stroke:#000000; stroke-width:1.000000; stroke-opacity:1; 
stroke-linecap:round; stroke-linejoin:round;">
<circle cx="347900000.000000" cy="120956700.000000" r="876300.000000" /> 
</g>
<g style="fill:#000000; fill-opacity:1.0; 
stroke:#000000; stroke-width:21200.000000; stroke-opacity:1; 
stroke-linecap:round; stroke-linejoin:round;">
</g>
<g style="fill:#000000; fill-opacity:1.0; 
stroke:#000000; stroke-width:1.000000; stroke-opacity:1; 
stroke-linecap:round; stroke-linejoin:round;">
<circle cx="347900000.000000" cy="123496700.000000" r="876300.000000" /> 
</g>
<g style="fill:#000000; fill-opacity:1.0; 
stroke:#000000; stroke-width:21200.000000; stroke-opacity:1; 
stroke-linecap:round; stroke-linejoin:round;">
</g>
<g style="fill:#000000; fill-opacity:1.0; 
stroke:#000000; stroke-width:1.000000; stroke-opacity:1; 
stroke-linecap:round; stroke-linejoin:round;">
<circle cx="347900000.000000" cy="126036700.000000" r="876300.000000" /> 
</g>
<g style="fill:#000000; fill-opacity:1.0; 
stroke:#000000; stroke-width:21200.000000; stroke-opacity:1; 
stroke-linecap:round; stroke-linejoin:round;">
</g>
<g style="fill:#000000; fill-opacity:1.0; 
stroke:#000000; stroke-width:1.000000; stroke-opacity:1; 
stroke-linecap:round; stroke-linejoin:round;">
<circle cx="363140000.000000" cy="126036700.000000" r="876300.000000" /> 
</g>
<g style="fill:#000000; fill-opacity:1.0; 
stroke:#000000; stroke-width:21200.000000; stroke-opacity:1; 
stroke-linecap:round; stroke-linejoin:round;">
</g>
<g style="fill:#000000; fill-opacity:1.0; 
stroke:#000000; stroke-width:1.000000; stroke-opacity:1; 
stroke-linecap:round; stroke-linejoin:round;">
<circle cx="363140000.000000" cy="123496700.000000" r="876300.000000" /> 
</g>
<g style="fill:#000000; fill-opacity:1.0; 
stroke:#000000; stroke-width:21200.000000; stroke-opacity:1; 
stroke-linecap:round; stroke-linejoin:round;">
</g>
<g style="fill:#000000; fill-opacity:1.0; 
stroke:#000000; stroke-width:1.000000; stroke-opacity:1; 
stroke-linecap:round; stroke-linejoin:round;">
<circle cx="363140000.000000" cy="120956700.000000" r="876300.000000" /> 
</g>
<g style="fill:#000000; fill-opacity:1.0; 
stroke:#000000; stroke-width:21200.000000; stroke-opacity:1; 
stroke-linecap:round; stroke-linejoin:round;">
</g>
<g style="fill:#000000; fill-opacity:1.0; 
stroke:#000000; stroke-width:1.000000; stroke-opacity:1; 
stroke-linecap:round; stroke-linejoin:round;">
<circle cx="363140000.000000" cy="118416700.000000" r="876300.000000" /> 
</g>
<g style="fill:#000000; fill-opacity:1.0; 
stroke:#000000; stroke-width:21200.000000; stroke-opacity:1; 
stroke-linecap:round; stroke-linejoin:round;">
</g>
<g style="fill:#000000; fill-opacity:1.0; 
stroke:#000000; stroke-width:1.000000; stroke-opacity:1; 
stroke-linecap:round; stroke-linejoin:round;">
<circle cx="363140000.000000" cy="115876700.000000" r="876300.000000" /> 
</g>
<g style="fill:#000000; fill-opacity:1.0; 
stroke:#000000; stroke-width:21200.000000; stroke-opacity:1; 
stroke-linecap:round; stroke-linejoin:round;">
</g>
<g style="fill:#000000; fill-opacity:1.0; 
stroke:#000000; stroke-width:1.000000; stroke-opacity:1; 
stroke-linecap:round; stroke-linejoin:round;">
<circle cx="363140000.000000" cy="113336700.000000" r="876300.000000" /> 
</g>
<g style="fill:#000000; fill-opacity:1.0; 
stroke:#000000; stroke-width:21200.000000; stroke-opacity:1; 
stroke-linecap:round; stroke-linejoin:round;">
</g>
<g style="fill:#000000; fill-opacity:1.0; 
stroke:#000000; stroke-width:1.000000; stroke-opacity:1; 
stroke-linecap:round; stroke-linejoin:round;">
<circle cx="363140000.000000" cy="110796700.000000" r="876300.000000" /> 
</g>
<g style="fill:#000000; fill-opacity:1.0; 
stroke:#000000; stroke-width:21200.000000; stroke-opacity:1; 
stroke-linecap:round; stroke-linejoin:round;">
</g>
<g style="fill:#000000; fill-opacity:1.0; 
stroke:#000000; stroke-width:1.000000; stroke-opacity:1; 
stroke-linecap:round; stroke-linejoin:round;">
<circle cx="363140000.000000" cy="108256700.000000" r="876300.000000" /> 
</g>
<g style="fill:#000000; fill-opacity:1.0; 
stroke:#000000; stroke-width:21200.000000; stroke-opacity:1; 
stroke-linecap:round; stroke-linejoin:round;">
</g>
<g style="fill:#000000; fill-opacity:1.0; 
stroke:#000000; stroke-width:1.000000; stroke-opacity:1; 
stroke-linecap:round; stroke-linejoin:round;">
<circle cx="363140000.000000" cy="105716700.000000" r="876300.000000" /> 
</g>
<g style="fill:#000000; fill-opacity:1.0; 
stroke:#000000; stroke-width:21200.000000; stroke-opacity:1; 
stroke-linecap:round; stroke-linejoin:round;">
</g>
<g style="fill:#000000; fill-opacity:1.0; 
stroke:#000000; stroke-width:1.000000; stroke-opacity:1; 
stroke-linecap:round; stroke-linejoin:round;">
<circle cx="363140000.000000" cy="103176700.000000" r="876300.000000" /> 
</g>
<g style="fill:#000000; fill-opacity:1.0; 
stroke:#000000; stroke-width:21200.000000; stroke-opacity:1; 
stroke-linecap:round; stroke-linejoin:round;">
</g>
<g style="fill:#000000; fill-opacity:1.0; 
stroke:#000000; stroke-width:1.000000; stroke-opacity:1; 
stroke-linecap:round; stroke-linejoin:round;">
<circle cx="363140000.000000" cy="100636700.000000" r="876300.000000" /> 
</g>
<g style="fill:#000000; fill-opacity:1.0; 
stroke:#000000; stroke-width:21200.000000; stroke-opacity:1; 
stroke-linecap:round; stroke-linejoin:round;">
</g>
<g style="fill:#000000; fill-opacity:1.0; 
stroke:#000000; stroke-width:1.000000; stroke-opacity:1; 
stroke-linecap:round; stroke-linejoin:round;">
<circle cx="363140000.000000" cy="98096700.000000" r="876300.000000" /> 
</g>
<g style="fill:#000000; fill-opacity:1.0; 
stroke:#000000; stroke-width:21200.000000; stroke-opacity:1; 
stroke-linecap:round; stroke-linejoin:round;">
</g>
<g style="fill:#000000; fill-opacity:1.0; 
stroke:#000000; stroke-width:1.000000; stroke-opacity:1; 
stroke-linecap:round; stroke-linejoin:round;">
<circle cx="350440000.000000" cy="120956700.000000" r="876300.000000" /> 
</g>
<g style="fill:#000000; fill-opacity:1.0; 
stroke:#000000; stroke-width:21200.000000; stroke-opacity:1; 
stroke-linecap:round; stroke-linejoin:round;">
</g>
<g style="fill:#000000; fill-opacity:1.0; 
stroke:#000000; stroke-width:1.000000; stroke-opacity:1; 
stroke-linecap:round; stroke-linejoin:round;">
<circle cx="352980000.000000" cy="120956700.000000" r="876300.000000" /> 
</g>
<g style="fill:#000000; fill-opacity:1.0; 
stroke:#000000; stroke-width:21200.000000; stroke-opacity:1; 
stroke-linecap:round; stroke-linejoin:round;">
</g>
<g style="fill:#000000; fill-opacity:1.0; 
stroke:#000000; stroke-width:1.000000; stroke-opacity:1; 
stroke-linecap:round; stroke-linejoin:round;">
<circle cx="355520000.000000" cy="120956700.000000" r="876300.000000" /> 
</g>
<g style="fill:#000000; fill-opacity:1.0; 
stroke:#000000; stroke-width:21200.000000; stroke-opacity:1; 
stroke-linecap:round; stroke-linejoin:round;">
</g>
<g >
</g>
<g >
</g>
<g >
</g>
<g >
</g>
<g >
</g>
<g >
</g>
<g >
</g>
<g >
</g>
<g >
</g>
<g >
</g>
<g >
</g>
<g >
</g>
<g >
</g>
<g >
</g>
<g >
</g>
<g >
</g>
<g >
</g>
<g >
</g>
<g >
</g>
<g >
</g>
<g >
</g>
<g >
</g>
<g >
</g>
<g >
</g>
<g >
</g>
<g >
</g>
<g >
</g>
<g >
</g>
<g >
</g>
<g >
</g>
<g >
</g>
<g >
</g>
<g >
</g>
<g >
</g>
<g >
</g>
<g >
</g>
<g >
</g>
<g >
</g>
<g >
</g>
<g >
</g>
<g >
</g>
<g >
</g>
<g >
</g>
<g >
</g>
<g >
</g>
<g >
</g>
<g >
</g>
<g >
</g>
<g >
</g>
<g >
</g>
<g >
</g>
<g >
</g>
<g >
</g>
<g >
</g>
<g >
</g>
<g >
</g>
<g >
</g>
<g >
</g>
<g >
</g>
<g >
</g>
<g >
</g>
<g >
</g>
<g >
</g>
<g >
</g>
<g >
</g>
<g >
</g>
<g >
</g>
<g >
</g>
<g >
</g>
<g >
</g>
<g >
</g>
<g >
</g>
<g >
</g>
<g >
</g>
<g >
</g>
<g >
</g>
<g >
</g>
<g >
</g>
<g >
</g>
<g >
</g>
<g >
</g>
<g >
</g>
<g >
</g>
<g >
</g>
<g >
</g>
<g >
</g>
<g >
</g>
<g >
</g>
<g >
</g>
<g >
</g>
<g >
</g>
<g >
</g>
<g >
</g>
<g >
</g>
<g >
</g>
<g >
</g>
<g >
</g>
<g >
</g>
<g >
</g>
<g >
</g>
<g >
</g>
<g >
</g>
<g >
</g>
<g >
</g>
<g >
</g>
<g >
</g>
<g >
</g>
<g >
</g>
<g >
</g>
<g >
</g>
<g >
</g>
<g >
</g>
<g >
</g>
<g >
</g>
<g >
</g>
<g >
</g>
<g >
</g>
<g >
</g>
<g >
</g>
<g >
</g>
<g >
</g>
<g >
</g>
<g >
</g>
<g >
</g>
<g >
</g>
<g >
</g>
<g >
</g>
<g >
</g>
<g >
</g>
<g >
</g>
<g >
</g>
<g >
</g>
<g >
</g>
<g >
</g>
<g >
</g>
<g >
</g>
<g >
</g>
<g >
</g>
<g >
</g>
<g >
</g>
<g >
</g>
<g >
</g>
<g >
</g>
<g >
</g>
<g >
</g>
<g >
</g>
<g >
</g>
<g >
</g>
<g >
</g>
<g >
</g>
<g >
</g>
</g> 
</svg>
